Perun-Regular.ufo
<glyph name="exclam" format="2">
  <advance width="203"/>
  <unicode hex="0021"/>
  <outline>
    <contour>
      <point x="153" y="0" type="line"/>
      <point x="153" y="95" type="line"/>
      <point x="53" y="95" type="line"/>
      <point x="53" y="0" type="line"/>
    </contour>
    <contour>
      <point x="153" y="722" type="line"/>
      <point x="50" y="722" type="line"/>
      <point x="70" y="169" type="line"/>
      <point x="133" y="169" type="line"/>
    </contour>
  </outline>
</glyph>
<glyph name="numbersign" format="2">
  <advance width="745"/>
  <unicode hex="0023"/>
  <outline>
    <contour>
      <point x="120" y="0" type="line"/>
      <point x="340" y="722" type="line"/>
      <point x="415" y="722" type="line"/>
      <point x="194" y="0" type="line"/>
    </contour>
    <contour>
      <point x="325" y="0" type="line"/>
      <point x="545" y="722" type="line"/>
      <point x="620" y="722" type="line"/>
      <point x="399" y="0" type="line"/>
    </contour>
    <contour>
      <point x="135" y="513" type="line"/>
      <point x="696" y="513" type="line"/>
      <point x="675" y="444" type="line"/>
      <point x="114" y="444" type="line"/>
    </contour>
    <contour>
      <point x="71" y="308" type="line"/>
      <point x="632" y="308" type="line"/>
      <point x="611" y="239" type="line"/>
      <point x="50" y="239" type="line"/>
    </contour>
  </outline>
</glyph>
<glyph name="ampersand" format="2">
  <advance width="711"/>
  <unicode hex="0026"/>
  <outline>
    <contour>
      <point x="575" y="0" type="line"/>
      <point x="231" y="370" type="line" smooth="yes"/>
      <point x="174" y="431"/>
      <point x="125" y="522"/>
      <point x="125" y="569" type="qcurve" smooth="yes"/>
      <point x="125" y="618"/>
      <point x="172" y="693"/>
      <point x="256" y="736"/>
      <point x="311" y="736" type="qcurve" smooth="yes"/>
      <point x="362" y="736"/>
      <point x="440" y="699"/>
      <point x="485" y="635"/>
      <point x="485" y="593" type="qcurve" smooth="yes"/>
      <point x="485" y="545"/>
      <point x="422" y="458"/>
      <point x="359" y="419" type="qcurve" smooth="yes"/>
      <point x="292" y="378" type="line"/>
      <point x="252" y="432" type="line"/>
      <point x="319" y="473" type="line" smooth="yes"/>
      <point x="363" y="501"/>
      <point x="403" y="552"/>
      <point x="403" y="582" type="qcurve" smooth="yes"/>
      <point x="403" y="618"/>
      <point x="353" y="661"/>
      <point x="313" y="661" type="qcurve" smooth="yes"/>
      <point x="270" y="661"/>
      <point x="217" y="614"/>
      <point x="217" y="575" type="qcurve" smooth="yes"/>
      <point x="217" y="545"/>
      <point x="253" y="482"/>
      <point x="298" y="434" type="qcurve" smooth="yes"/>
      <point x="700" y="0" type="line"/>
    </contour>
    <contour>
      <point x="70" y="199" type="qcurve" smooth="yes"/>
      <point x="70" y="261"/>
      <point x="128" y="359"/>
      <point x="184" y="393" type="qcurve" smooth="yes"/>
      <point x="240" y="427" type="line"/>
      <point x="279" y="374" type="line"/>
      <point x="258" y="361" type="line" smooth="yes"/>
      <point x="213" y="333"/>
      <point x="169" y="253"/>
      <point x="169" y="200" type="qcurve" smooth="yes"/>
      <point x="169" y="163"/>
      <point x="208" y="106"/>
      <point x="278" y="73"/>
      <point x="322" y="73" type="qcurve" smooth="yes"/>
      <point x="354" y="73"/>
      <point x="420" y="91"/>
      <point x="478" y="122"/>
      <point x="498" y="143" type="qcurve"/>
      <point x="550" y="80" type="line"/>
      <point x="520" y="53"/>
      <point x="436" y="11"/>
      <point x="342" y="-13"/>
      <point x="297" y="-13" type="qcurve" smooth="yes"/>
      <point x="230" y="-13"/>
      <point x="128" y="41"/>
      <point x="70" y="136"/>
    </contour>
    <contour>
      <point x="564" y="100" type="qcurve"/>
      <point x="504" y="153" type="line"/>
      <point x="527" y="185"/>
      <point x="557" y="282"/>
      <point x="557" y="326" type="qcurve" smooth="yes"/>
      <point x="557" y="362"/>
      <point x="546" y="420" type="qcurve"/>
      <point x="547" y="422" type="line"/>
      <point x="651" y="422" type="line"/>
      <point x="651" y="356"/>
      <point x="629" y="230"/>
      <point x="589" y="129"/>
    </contour>
  </outline>
</glyph>
<glyph name="quotesingle" format="2">
  <advance width="206"/>
  <unicode hex="0027"/>
  <outline>
    <contour>
      <point x="73" y="434" type="line"/>
      <point x="50" y="722" type="line"/>
      <point x="156" y="722" type="line"/>
      <point x="133" y="434" type="line"/>
    </contour>
  </outline>
</glyph>
<glyph name="parenleft" format="2">
  <advance width="277"/>
  <unicode hex="0028"/>
  <outline>
    <contour>
      <point x="163" y="-133" type="line"/>
      <point x="50" y="73"/>
      <point x="50" y="301" type="qcurve" smooth="yes"/>
      <point x="50" y="530"/>
      <point x="163" y="736" type="qcurve"/>
      <point x="227" y="736" type="line"/>
      <point x="186" y="621"/>
      <point x="145" y="405"/>
      <point x="145" y="304" type="qcurve" smooth="yes"/>
      <point x="145" y="237"/>
      <point x="163" y="95"/>
      <point x="200" y="-55"/>
      <point x="227" y="-133" type="qcurve"/>
    </contour>
  </outline>
</glyph>
<glyph name="parenright" format="2">
  <advance width="359"/>
  <unicode hex="0029"/>
  <outline>
    <contour>
      <point x="92" y="-130" type="line"/>
      <point x="174" y="103"/>
      <point x="174" y="306" type="qcurve" smooth="yes"/>
      <point x="174" y="407"/>
      <point x="133" y="623"/>
      <point x="92" y="738" type="qcurve"/>
      <point x="156" y="738" type="line"/>
      <point x="269" y="532"/>
      <point x="269" y="303" type="qcurve" smooth="yes"/>
      <point x="269" y="76"/>
      <point x="156" y="-130" type="qcurve"/>
    </contour>
  </outline>
</glyph>
<glyph name="plus" format="2">
  <advance width="740"/>
  <unicode hex="002B"/>
  <outline>
    <contour>
      <point x="70" y="267" type="line"/>
      <point x="70" y="331" type="line"/>
      <point x="339" y="331" type="line"/>
      <point x="339" y="600" type="line"/>
      <point x="401" y="600" type="line"/>
      <point x="401" y="331" type="line"/>
      <point x="670" y="331" type="line"/>
      <point x="670" y="267" type="line"/>
      <point x="401" y="267" type="line"/>
      <point x="401" y="-2" type="line"/>
      <point x="339" y="-2" type="line"/>
      <point x="339" y="267" type="line"/>
    </contour>
  </outline>
</glyph>
<glyph name="comma" format="2">
  <advance width="275"/>
  <unicode hex="002C"/>
  <outline>
    <contour>
      <point x="48" y="-127" type="line"/>
      <point x="108" y="123" type="line"/>
      <point x="228" y="123" type="line"/>
      <point x="118" y="-127" type="line"/>
    </contour>
  </outline>
</glyph>
<glyph name="hyphen" format="2">
  <advance width="340"/>
  <unicode hex="002D"/>
  <outline>
    <contour>
      <point x="50" y="203" type="line"/>
      <point x="50" y="285" type="line"/>
      <point x="290" y="285" type="line"/>
      <point x="290" y="203" type="line"/>
    </contour>
  </outline>
</glyph>
<glyph name="slash" format="2">
  <advance width="396"/>
  <unicode hex="002F"/>
  <outline>
    <contour>
      <point x="46" y="-52" type="line"/>
      <point x="282" y="736" type="line"/>
      <point x="351" y="736" type="line"/>
      <point x="115" y="-52" type="line"/>
    </contour>
  </outline>
</glyph>
<glyph name="zero" format="2">
  <advance width="558"/>
  <unicode hex="0030"/>
  <outline>
    <contour>
      <point x="51" y="377" type="qcurve" smooth="yes"/>
      <point x="51" y="449"/>
      <point x="72" y="578"/>
      <point x="123" y="678"/>
      <point x="211" y="736"/>
      <point x="277" y="736" type="qcurve" smooth="yes"/>
      <point x="348" y="736"/>
      <point x="438" y="673"/>
      <point x="490" y="569"/>
      <point x="510" y="440"/>
      <point x="510" y="374" type="qcurve" smooth="yes"/>
      <point x="510" y="300"/>
      <point x="490" y="161"/>
      <point x="440" y="51"/>
      <point x="353" y="-14"/>
      <point x="285" y="-14" type="qcurve" smooth="yes"/>
      <point x="227" y="-14"/>
      <point x="146" y="33"/>
      <point x="93" y="112"/>
      <point x="63" y="214"/>
      <point x="51" y="324"/>
    </contour>
    <contour>
      <point x="148" y="381" type="qcurve" smooth="yes"/>
      <point x="148" y="336"/>
      <point x="153" y="246"/>
      <point x="167" y="166"/>
      <point x="196" y="104"/>
      <point x="243" y="68"/>
      <point x="279" y="68" type="qcurve" smooth="yes"/>
      <point x="316" y="68"/>
      <point x="365" y="106"/>
      <point x="394" y="169"/>
      <point x="408" y="249"/>
      <point x="413" y="334"/>
      <point x="413" y="373" type="qcurve" smooth="yes"/>
      <point x="413" y="414"/>
      <point x="408" y="493"/>
      <point x="393" y="564"/>
      <point x="364" y="619"/>
      <point x="319" y="650"/>
      <point x="285" y="650" type="qcurve" smooth="yes"/>
      <point x="252" y="650"/>
      <point x="204" y="619"/>
      <point x="173" y="566"/>
      <point x="155" y="497"/>
      <point x="148" y="420"/>
    </contour>
  </outline>
</glyph>
<glyph name="one" format="2">
  <advance width="558"/>
  <unicode hex="0031"/>
  <outline>
    <contour>
      <point x="286" y="0" type="line"/>
      <point x="286" y="602" type="line"/>
      <point x="258" y="583"/>
      <point x="180" y="541"/>
      <point x="130" y="519" type="qcurve"/>
      <point x="130" y="602" type="line"/>
      <point x="156" y="618"/>
      <point x="219" y="664"/>
      <point x="270" y="709"/>
      <point x="279" y="722" type="qcurve"/>
      <point x="379" y="722" type="line"/>
      <point x="379" y="0" type="line"/>
    </contour>
  </outline>
</glyph>
<glyph name="two" format="2">
  <advance width="558"/>
  <unicode hex="0032"/>
  <outline>
    <contour>
      <point x="60" y="0" type="line"/>
      <point x="60" y="93" type="line"/>
      <point x="125" y="137"/>
      <point x="232" y="231"/>
      <point x="313" y="324"/>
      <point x="369" y="413"/>
      <point x="397" y="493"/>
      <point x="397" y="526" type="qcurve" smooth="yes"/>
      <point x="397" y="568"/>
      <point x="371" y="625"/>
      <point x="322" y="653"/>
      <point x="287" y="653" type="qcurve" smooth="yes"/>
      <point x="235" y="653"/>
      <point x="178" y="589"/>
      <point x="170" y="526" type="qcurve"/>
      <point x="68" y="526" type="line"/>
      <point x="74" y="596"/>
      <point x="125" y="689"/>
      <point x="218" y="736"/>
      <point x="284" y="736" type="qcurve" smooth="yes"/>
      <point x="345" y="736"/>
      <point x="440" y="683"/>
      <point x="495" y="591"/>
      <point x="495" y="531" type="qcurve" smooth="yes"/>
      <point x="495" y="479"/>
      <point x="453" y="373"/>
      <point x="382" y="273"/>
      <point x="294" y="181"/>
      <point x="203" y="102"/>
      <point x="161" y="72" type="qcurve"/>
      <point x="158" y="78" type="line"/>
      <point x="495" y="78" type="line"/>
      <point x="495" y="0" type="line"/>
    </contour>
  </outline>
</glyph>
<glyph name="three" format="2">
  <advance width="558"/>
  <unicode hex="0033"/>
  <outline>
    <contour>
      <point x="46" y="190" type="qcurve"/>
      <point x="152" y="190" type="line"/>
      <point x="152" y="152"/>
      <point x="183" y="95"/>
      <point x="240" y="63"/>
      <point x="278" y="63" type="qcurve" smooth="yes"/>
      <point x="335" y="63"/>
      <point x="413" y="138"/>
      <point x="413" y="214" type="qcurve" smooth="yes"/>
      <point x="413" y="247"/>
      <point x="385" y="303"/>
      <point x="332" y="336"/>
      <point x="294" y="336" type="qcurve" smooth="yes"/>
      <point x="210" y="336" type="line"/>
      <point x="210" y="416" type="line"/>
      <point x="283" y="416" type="line" smooth="yes"/>
      <point x="318" y="416"/>
      <point x="371" y="446"/>
      <point x="401" y="502"/>
      <point x="401" y="540" type="qcurve" smooth="yes"/>
      <point x="401" y="595"/>
      <point x="340" y="659"/>
      <point x="287" y="659" type="qcurve" smooth="yes"/>
      <point x="249" y="659"/>
      <point x="193" y="626"/>
      <point x="161" y="569"/>
      <point x="161" y="532" type="qcurve"/>
      <point x="61" y="532" type="line"/>
      <point x="61" y="591"/>
      <point x="120" y="683"/>
      <point x="225" y="736"/>
      <point x="294" y="736" type="qcurve" smooth="yes"/>
      <point x="356" y="736"/>
      <point x="450" y="690"/>
      <point x="501" y="607"/>
      <point x="501" y="550" type="qcurve" smooth="yes"/>
      <point x="501" y="488"/>
      <point x="438" y="398"/>
      <point x="381" y="380" type="qcurve"/>
      <point x="381" y="384" type="line"/>
      <point x="424" y="374"/>
      <point x="483" y="323"/>
      <point x="513" y="247"/>
      <point x="513" y="202" type="qcurve" smooth="yes"/>
      <point x="513" y="135"/>
      <point x="452" y="38"/>
      <point x="345" y="-14"/>
      <point x="275" y="-14" type="qcurve" smooth="yes"/>
      <point x="207" y="-14"/>
      <point x="104" y="36"/>
      <point x="46" y="128"/>
    </contour>
  </outline>
</glyph>
<glyph name="four" format="2">
  <advance width="558"/>
  <unicode hex="0034"/>
  <outline>
    <contour>
      <point x="30" y="176" type="line"/>
      <point x="30" y="281" type="line"/>
      <point x="330" y="722" type="line"/>
      <point x="440" y="722" type="line"/>
      <point x="440" y="0" type="line"/>
      <point x="347" y="0" type="line"/>
      <point x="347" y="624" type="line"/>
      <point x="354" y="622" type="line"/>
      <point x="103" y="249" type="line"/>
      <point x="98" y="259" type="line"/>
      <point x="362" y="259" type="line"/>
      <point x="362" y="176" type="line"/>
    </contour>
    <contour>
      <point x="425" y="176" type="line"/>
      <point x="425" y="259" type="line"/>
      <point x="529" y="259" type="line"/>
      <point x="529" y="176" type="line"/>
    </contour>
  </outline>
</glyph>
<glyph name="five" format="2">
  <advance width="558"/>
  <unicode hex="0035"/>
  <outline>
    <contour>
      <point x="53" y="176" type="qcurve"/>
      <point x="158" y="176" type="line"/>
      <point x="158" y="122"/>
      <point x="225" y="67"/>
      <point x="279" y="67" type="qcurve" smooth="yes"/>
      <point x="319" y="67"/>
      <point x="375" y="114"/>
      <point x="405" y="191"/>
      <point x="405" y="235" type="qcurve" smooth="yes"/>
      <point x="405" y="321"/>
      <point x="347" y="406"/>
      <point x="289" y="406" type="qcurve" smooth="yes"/>
      <point x="244" y="406"/>
      <point x="177" y="354"/>
      <point x="154" y="302" type="qcurve"/>
      <point x="77" y="302" type="line"/>
      <point x="77" y="722" type="line"/>
      <point x="460" y="722" type="line"/>
      <point x="460" y="639" type="line"/>
      <point x="163" y="639" type="line"/>
      <point x="175" y="651" type="line"/>
      <point x="175" y="400" type="line"/>
      <point x="169" y="405" type="line"/>
      <point x="192" y="433"/>
      <point x="263" y="480"/>
      <point x="323" y="480" type="qcurve" smooth="yes"/>
      <point x="380" y="480"/>
      <point x="462" y="431"/>
      <point x="506" y="332"/>
      <point x="506" y="257" type="qcurve" smooth="yes"/>
      <point x="506" y="201"/>
      <point x="471" y="103"/>
      <point x="410" y="29"/>
      <point x="332" y="-13"/>
      <point x="290" y="-13" type="qcurve" smooth="yes"/>
      <point x="223" y="-13"/>
      <point x="115" y="28"/>
      <point x="53" y="112"/>
    </contour>
  </outline>
</glyph>
<glyph name="six" format="2">
  <advance width="558"/>
  <unicode hex="0036"/>
  <outline>
    <contour>
      <point x="157" y="217" type="qcurve" smooth="yes"/>
      <point x="157" y="144"/>
      <point x="225" y="63"/>
      <point x="285" y="63" type="qcurve" smooth="yes"/>
      <point x="345" y="63"/>
      <point x="412" y="144"/>
      <point x="412" y="218" type="qcurve" smooth="yes"/>
      <point x="412" y="291"/>
      <point x="347" y="369"/>
      <point x="287" y="369" type="qcurve" smooth="yes"/>
      <point x="225" y="369"/>
      <point x="157" y="288"/>
    </contour>
    <contour>
      <point x="47" y="311" type="qcurve" smooth="yes"/>
      <point x="47" y="418"/>
      <point x="77" y="579"/>
      <point x="138" y="685"/>
      <point x="230" y="737"/>
      <point x="292" y="737" type="qcurve" smooth="yes"/>
      <point x="352" y="737"/>
      <point x="442" y="690"/>
      <point x="492" y="606"/>
      <point x="492" y="550" type="qcurve"/>
      <point x="392" y="550" type="line"/>
      <point x="392" y="597"/>
      <point x="338" y="660"/>
      <point x="297" y="660" type="qcurve" smooth="yes"/>
      <point x="258" y="660"/>
      <point x="201" y="624"/>
      <point x="165" y="549"/>
      <point x="147" y="434"/>
      <point x="147" y="354" type="qcurve"/>
      <point x="165" y="393"/>
      <point x="248" y="446"/>
      <point x="292" y="446" type="qcurve" smooth="yes"/>
      <point x="365" y="446"/>
      <point x="463" y="394"/>
      <point x="512" y="292"/>
      <point x="512" y="216" type="qcurve" smooth="yes"/>
      <point x="512" y="145"/>
      <point x="454" y="42"/>
      <point x="349" y="-14"/>
      <point x="278" y="-14" type="qcurve" smooth="yes"/>
      <point x="219" y="-14"/>
      <point x="132" y="26"/>
      <point x="75" y="107"/>
      <point x="47" y="229"/>
    </contour>
  </outline>
</glyph>
<glyph name="seven" format="2">
  <advance width="558"/>
  <unicode hex="0037"/>
  <outline>
    <contour>
      <point x="157" y="0" type="line"/>
      <point x="416" y="653" type="line"/>
      <point x="424" y="642" type="line"/>
      <point x="57" y="642" type="line"/>
      <point x="57" y="722" type="line"/>
      <point x="502" y="722" type="line"/>
      <point x="502" y="622" type="line"/>
      <point x="267" y="0" type="line"/>
    </contour>
  </outline>
</glyph>
<glyph name="eight" format="2">
  <advance width="558"/>
  <unicode hex="0038"/>
  <outline>
    <contour>
      <point x="135" y="199" type="qcurve" smooth="yes"/>
      <point x="135" y="135"/>
      <point x="211" y="64"/>
      <point x="278" y="64" type="qcurve" smooth="yes"/>
      <point x="344" y="64"/>
      <point x="414" y="136"/>
      <point x="414" y="200" type="qcurve" smooth="yes"/>
      <point x="414" y="244"/>
      <point x="382" y="308"/>
      <point x="321" y="343"/>
      <point x="279" y="343" type="qcurve" smooth="yes"/>
      <point x="214" y="343"/>
      <point x="135" y="265"/>
    </contour>
    <contour>
      <point x="279" y="420" type="qcurve" smooth="yes"/>
      <point x="314" y="420"/>
      <point x="370" y="452"/>
      <point x="401" y="508"/>
      <point x="401" y="545" type="qcurve" smooth="yes"/>
      <point x="401" y="599"/>
      <point x="335" y="661"/>
      <point x="279" y="661" type="qcurve" smooth="yes"/>
      <point x="222" y="661"/>
      <point x="156" y="598"/>
      <point x="156" y="545" type="qcurve" smooth="yes"/>
      <point x="156" y="490"/>
      <point x="225" y="420"/>
    </contour>
    <contour>
      <point x="514" y="185" type="qcurve" smooth="yes"/>
      <point x="514" y="124"/>
      <point x="455" y="36"/>
      <point x="347" y="-13"/>
      <point x="276" y="-13" type="qcurve" smooth="yes"/>
      <point x="168" y="-13"/>
      <point x="40" y="95"/>
      <point x="40" y="188" type="qcurve" smooth="yes"/>
      <point x="40" y="257"/>
      <point x="113" y="361"/>
      <point x="179" y="383" type="qcurve"/>
      <point x="125" y="406"/>
      <point x="62" y="500"/>
      <point x="62" y="557" type="qcurve" smooth="yes"/>
      <point x="62" y="610"/>
      <point x="118" y="692"/>
      <point x="216" y="738"/>
      <point x="279" y="738" type="qcurve" smooth="yes"/>
      <point x="341" y="738"/>
      <point x="439" y="690"/>
      <point x="495" y="607"/>
      <point x="495" y="552" type="qcurve" smooth="yes"/>
      <point x="495" y="500"/>
      <point x="436" y="417"/>
      <point x="376" y="384" type="qcurve"/>
      <point x="445" y="361"/>
      <point x="514" y="262"/>
    </contour>
  </outline>
</glyph>
<glyph name="nine" format="2">
  <advance width="558"/>
  <unicode hex="0039"/>
  <outline>
    <contour>
      <point x="276" y="355" type="qcurve" smooth="yes"/>
      <point x="311" y="355"/>
      <point x="359" y="376"/>
      <point x="389" y="415"/>
      <point x="403" y="472"/>
      <point x="403" y="508" type="qcurve" smooth="yes"/>
      <point x="403" y="580"/>
      <point x="347" y="660"/>
      <point x="276" y="660" type="qcurve" smooth="yes"/>
      <point x="206" y="660"/>
      <point x="150" y="580"/>
      <point x="150" y="508" type="qcurve" smooth="yes"/>
      <point x="150" y="436"/>
      <point x="206" y="355"/>
    </contour>
    <contour>
      <point x="163" y="172" type="line"/>
      <point x="163" y="114"/>
      <point x="217" y="63"/>
      <point x="272" y="63" type="qcurve" smooth="yes"/>
      <point x="313" y="63"/>
      <point x="366" y="108"/>
      <point x="397" y="180"/>
      <point x="412" y="263"/>
      <point x="416" y="342"/>
      <point x="416" y="370" type="qcurve"/>
      <point x="401" y="341"/>
      <point x="352" y="300"/>
      <point x="287" y="278"/>
      <point x="247" y="278" type="qcurve" smooth="yes"/>
      <point x="179" y="278"/>
      <point x="90" y="338"/>
      <point x="48" y="441"/>
      <point x="48" y="503" type="qcurve" smooth="yes"/>
      <point x="48" y="569"/>
      <point x="95" y="675"/>
      <point x="194" y="737"/>
      <point x="272" y="737" type="qcurve" smooth="yes"/>
      <point x="358" y="737"/>
      <point x="456" y="683"/>
      <point x="501" y="585"/>
      <point x="512" y="455"/>
      <point x="512" y="380" type="qcurve" smooth="yes"/>
      <point x="512" y="306"/>
      <point x="492" y="165"/>
      <point x="439" y="52"/>
      <point x="340" y="-14"/>
      <point x="261" y="-14" type="qcurve" smooth="yes"/>
      <point x="198" y="-14"/>
      <point x="111" y="31"/>
      <point x="67" y="114"/>
      <point x="67" y="172" type="qcurve"/>
    </contour>
  </outline>
</glyph>
<glyph name="colon" format="2">
  <advance width="208"/>
  <unicode hex="003A"/>
  <outline>
    <contour>
      <point x="50" y="0" type="line"/>
      <point x="50" y="123" type="line"/>
      <point x="158" y="123" type="line"/>
      <point x="158" y="0" type="line"/>
    </contour>
    <contour>
      <point x="50" y="377" type="line"/>
      <point x="50" y="500" type="line"/>
      <point x="158" y="500" type="line"/>
      <point x="158" y="377" type="line"/>
    </contour>
  </outline>
</glyph>
<glyph name="semicolon" format="2">
  <advance width="275"/>
  <unicode hex="003B"/>
  <outline>
    <contour>
      <point x="34" y="-127" type="line"/>
      <point x="94" y="123" type="line"/>
      <point x="214" y="123" type="line"/>
      <point x="104" y="-127" type="line"/>
    </contour>
    <contour>
      <point x="98" y="377" type="line"/>
      <point x="98" y="500" type="line"/>
      <point x="206" y="500" type="line"/>
      <point x="206" y="377" type="line"/>
    </contour>
  </outline>
</glyph>
<glyph name="less" format="2">
  <advance width="700"/>
  <unicode hex="003C"/>
  <outline>
    <contour>
      <point x="50" y="269" type="line"/>
      <point x="50" y="331" type="line"/>
      <point x="650" y="561" type="line"/>
      <point x="650" y="499" type="line"/>
      <point x="103" y="296" type="line"/>
      <point x="103" y="304" type="line"/>
      <point x="650" y="101" type="line"/>
      <point x="650" y="39" type="line"/>
    </contour>
  </outline>
</glyph>
<glyph name="equal" format="2">
  <advance width="700"/>
  <unicode hex="003D"/>
  <outline>
    <contour>
      <point x="50" y="178" type="line"/>
      <point x="50" y="240" type="line"/>
      <point x="650" y="240" type="line"/>
      <point x="650" y="178" type="line"/>
    </contour>
    <contour>
      <point x="50" y="360" type="line"/>
      <point x="50" y="422" type="line"/>
      <point x="650" y="422" type="line"/>
      <point x="650" y="360" type="line"/>
    </contour>
  </outline>
</glyph>
<glyph name="greater" format="2">
  <advance width="700"/>
  <unicode hex="003E"/>
  <outline>
    <contour>
      <point x="650" y="269" type="line"/>
      <point x="50" y="39" type="line"/>
      <point x="50" y="101" type="line"/>
      <point x="597" y="304" type="line"/>
      <point x="597" y="296" type="line"/>
      <point x="50" y="499" type="line"/>
      <point x="50" y="561" type="line"/>
      <point x="650" y="331" type="line"/>
    </contour>
  </outline>
</glyph>
<glyph name="question" format="2">
  <advance width="516"/>
  <unicode hex="003F"/>
  <outline>
    <contour>
      <point x="166" y="0" type="line"/>
      <point x="166" y="123" type="line"/>
      <point x="274" y="123" type="line"/>
      <point x="274" y="0" type="line"/>
    </contour>
    <contour>
      <point x="366" y="550" type="qcurve" smooth="yes"/>
      <point x="366" y="592"/>
      <point x="305" y="647"/>
      <point x="249" y="647" type="qcurve" smooth="yes"/>
      <point x="213" y="647"/>
      <point x="156" y="624"/>
      <point x="115" y="583"/>
      <point x="101" y="557" type="qcurve"/>
      <point x="25" y="605" type="line"/>
      <point x="57" y="666"/>
      <point x="177" y="737"/>
      <point x="248" y="737" type="qcurve" smooth="yes"/>
      <point x="314" y="737"/>
      <point x="409" y="693"/>
      <point x="460" y="612"/>
      <point x="460" y="558" type="qcurve" smooth="yes"/>
      <point x="460" y="506"/>
      <point x="432" y="440"/>
      <point x="387" y="396"/>
      <point x="337" y="360"/>
      <point x="292" y="319"/>
      <point x="264" y="260"/>
      <point x="264" y="213" type="qcurve" smooth="yes"/>
      <point x="264" y="165" type="line"/>
      <point x="174" y="165" type="line"/>
      <point x="174" y="234" type="line" smooth="yes"/>
      <point x="174" y="284"/>
      <point x="202" y="347"/>
      <point x="245" y="389"/>
      <point x="295" y="421"/>
      <point x="338" y="457"/>
      <point x="366" y="509"/>
    </contour>
  </outline>
</glyph>
<glyph name="at" format="2">
  <advance width="1000"/>
  <unicode hex="0040"/>
  <outline>
    <contour>
      <point x="477" y="95" type="qcurve" smooth="yes"/>
      <point x="508" y="95"/>
      <point x="552" y="125"/>
      <point x="580" y="176"/>
      <point x="593" y="237"/>
      <point x="593" y="268" type="qcurve" smooth="yes"/>
      <point x="593" y="308"/>
      <point x="571" y="379"/>
      <point x="523" y="423"/>
      <point x="484" y="423" type="qcurve" smooth="yes"/>
      <point x="446" y="423"/>
      <point x="397" y="379"/>
      <point x="375" y="308"/>
      <point x="375" y="267" type="qcurve" smooth="yes"/>
      <point x="375" y="210"/>
      <point x="399" y="133"/>
      <point x="445" y="95"/>
    </contour>
    <contour>
      <point x="681" y="-152" type="line"/>
      <point x="658" y="-160"/>
      <point x="606" y="-172"/>
      <point x="549" y="-178"/>
      <point x="516" y="-178" type="qcurve" smooth="yes"/>
      <point x="406" y="-178"/>
      <point x="236" y="-112"/>
      <point x="120" y="11"/>
      <point x="60" y="184"/>
      <point x="60" y="291" type="qcurve" smooth="yes"/>
      <point x="60" y="386"/>
      <point x="123" y="542"/>
      <point x="239" y="655"/>
      <point x="397" y="716"/>
      <point x="492" y="716" type="qcurve" smooth="yes"/>
      <point x="591" y="716"/>
      <point x="755" y="664"/>
      <point x="875" y="560"/>
      <point x="940" y="404"/>
      <point x="940" y="299" type="qcurve" smooth="yes"/>
      <point x="940" y="250"/>
      <point x="912" y="152"/>
      <point x="860" y="70"/>
      <point x="785" y="21"/>
      <point x="738" y="21" type="qcurve" smooth="yes"/>
      <point x="694" y="21"/>
      <point x="628" y="69"/>
      <point x="606" y="116" type="qcurve"/>
      <point x="591" y="88"/>
      <point x="552" y="48"/>
      <point x="498" y="26"/>
      <point x="457" y="26" type="qcurve" smooth="yes"/>
      <point x="402" y="26"/>
      <point x="321" y="95"/>
      <point x="278" y="205"/>
      <point x="278" y="266" type="qcurve" smooth="yes"/>
      <point x="278" y="310"/>
      <point x="301" y="391"/>
      <point x="347" y="455"/>
      <point x="414" y="492"/>
      <point x="457" y="492" type="qcurve" smooth="yes"/>
      <point x="497" y="492"/>
      <point x="545" y="477"/>
      <point x="579" y="449"/>
      <point x="597" y="427" type="qcurve"/>
      <point x="597" y="485" type="line"/>
      <point x="687" y="485" type="line"/>
      <point x="687" y="191" type="line" smooth="yes"/>
      <point x="687" y="170"/>
      <point x="698" y="132"/>
      <point x="723" y="108"/>
      <point x="743" y="108" type="qcurve" smooth="yes"/>
      <point x="770" y="108"/>
      <point x="809" y="150"/>
      <point x="832" y="213"/>
      <point x="843" y="277"/>
      <point x="843" y="299" type="qcurve" smooth="yes"/>
      <point x="843" y="413"/>
      <point x="764" y="558"/>
      <point x="612" y="626"/>
      <point x="500" y="626" type="qcurve" smooth="yes"/>
      <point x="421" y="626"/>
      <point x="293" y="582"/>
      <point x="202" y="496"/>
      <point x="154" y="372"/>
      <point x="154" y="292" type="qcurve" smooth="yes"/>
      <point x="154" y="177"/>
      <point x="232" y="6"/>
      <point x="391" y="-88"/>
      <point x="511" y="-88" type="qcurve" smooth="yes"/>
      <point x="552" y="-88"/>
      <point x="608" y="-85"/>
      <point x="654" y="-77"/>
      <point x="681" y="-71" type="qcurve"/>
    </contour>
  </outline>
</glyph>
<glyph name="A" format="2">
  <advance width="760"/>
  <unicode hex="0041"/>
  <outline>
    <contour>
      <point x="20" y="0" type="line"/>
      <point x="323" y="722" type="line"/>
      <point x="433" y="722" type="line"/>
      <point x="740" y="0" type="line"/>
      <point x="634" y="0" type="line"/>
      <point x="370" y="627" type="line"/>
      <point x="382" y="627" type="line"/>
      <point x="123" y="0" type="line"/>
    </contour>
    <contour>
      <point x="539" y="278" type="line"/>
      <point x="581" y="193" type="line"/>
      <point x="177" y="193" type="line"/>
      <point x="216" y="278" type="line"/>
    </contour>
  </outline>
</glyph>
<glyph name="B" format="2">
  <advance width="653"/>
  <unicode hex="0042"/>
  <outline>
    <contour>
      <point x="155" y="0" type="line"/>
      <point x="155" y="87" type="line"/>
      <point x="328" y="87" type="line" smooth="yes"/>
      <point x="408" y="87"/>
      <point x="506" y="160"/>
      <point x="506" y="219" type="qcurve" smooth="yes"/>
      <point x="506" y="257"/>
      <point x="464" y="310"/>
      <point x="382" y="337"/>
      <point x="323" y="337" type="qcurve" smooth="yes"/>
      <point x="155" y="337" type="line"/>
      <point x="155" y="420" type="line"/>
      <point x="316" y="420" type="line" smooth="yes"/>
      <point x="401" y="420"/>
      <point x="484" y="473"/>
      <point x="484" y="528" type="qcurve" smooth="yes"/>
      <point x="484" y="581"/>
      <point x="407" y="635"/>
      <point x="330" y="635" type="qcurve" smooth="yes"/>
      <point x="155" y="635" type="line"/>
      <point x="155" y="722" type="line"/>
      <point x="360" y="722" type="line" smooth="yes"/>
      <point x="460" y="722"/>
      <point x="577" y="625"/>
      <point x="577" y="542" type="qcurve" smooth="yes"/>
      <point x="577" y="484"/>
      <point x="516" y="407"/>
      <point x="454" y="390" type="qcurve"/>
      <point x="454" y="385" type="line"/>
      <point x="523" y="369"/>
      <point x="603" y="274"/>
      <point x="603" y="208" type="qcurve" smooth="yes"/>
      <point x="603" y="150"/>
      <point x="545" y="56"/>
      <point x="447" y="0"/>
      <point x="386" y="0" type="qcurve" smooth="yes"/>
    </contour>
    <contour>
      <point x="70" y="0" type="line"/>
      <point x="70" y="722" type="line"/>
      <point x="170" y="722" type="line"/>
      <point x="170" y="0" type="line"/>
    </contour>
  </outline>
</glyph>
<glyph name="C" format="2">
  <advance width="660"/>
  <unicode hex="0043"/>
  <outline>
    <contour>
      <point x="30" y="361" type="qcurve" smooth="yes"/>
      <point x="30" y="473"/>
      <point x="111" y="641"/>
      <point x="258" y="734"/>
      <point x="355" y="734" type="qcurve" smooth="yes"/>
      <point x="426" y="734"/>
      <point x="535" y="682"/>
      <point x="601" y="589"/>
      <point x="606" y="527" type="qcurve"/>
      <point x="505" y="527" type="line"/>
      <point x="500" y="563"/>
      <point x="459" y="616"/>
      <point x="393" y="646"/>
      <point x="352" y="646" type="qcurve" smooth="yes"/>
      <point x="286" y="646"/>
      <point x="188" y="575"/>
      <point x="133" y="447"/>
      <point x="133" y="361" type="qcurve" smooth="yes"/>
      <point x="133" y="276"/>
      <point x="188" y="147"/>
      <point x="286" y="76"/>
      <point x="352" y="76" type="qcurve" smooth="yes"/>
      <point x="415" y="76"/>
      <point x="502" y="141"/>
      <point x="509" y="195" type="qcurve"/>
      <point x="610" y="195" type="line"/>
      <point x="605" y="133"/>
      <point x="539" y="40"/>
      <point x="429" y="-12"/>
      <point x="358" y="-12" type="qcurve" smooth="yes"/>
      <point x="260" y="-12"/>
      <point x="112" y="81"/>
      <point x="30" y="249"/>
    </contour>
  </outline>
</glyph>
<glyph name="D" format="2">
  <advance width="700"/>
  <unicode hex="0044"/>
  <outline>
    <contour>
      <point x="113" y="0" type="line"/>
      <point x="113" y="87" type="line"/>
      <point x="336" y="87" type="line" smooth="yes"/>
      <point x="401" y="87"/>
      <point x="495" y="154"/>
      <point x="547" y="278"/>
      <point x="547" y="363" type="qcurve" smooth="yes"/>
      <point x="547" y="446"/>
      <point x="495" y="569"/>
      <point x="401" y="635"/>
      <point x="336" y="635" type="qcurve" smooth="yes"/>
      <point x="113" y="635" type="line"/>
      <point x="113" y="722" type="line"/>
      <point x="334" y="722" type="line" smooth="yes"/>
      <point x="435" y="722"/>
      <point x="576" y="639"/>
      <point x="650" y="480"/>
      <point x="650" y="366" type="qcurve" smooth="yes"/>
      <point x="650" y="249"/>
      <point x="576" y="86"/>
      <point x="435" y="0"/>
      <point x="334" y="0" type="qcurve" smooth="yes"/>
    </contour>
    <contour>
      <point x="70" y="0" type="line"/>
      <point x="70" y="722" type="line"/>
      <point x="170" y="722" type="line"/>
      <point x="170" y="0" type="line"/>
    </contour>
  </outline>
</glyph>
<glyph name="E" format="2">
  <advance width="587"/>
  <unicode hex="0045"/>
  <outline>
    <contour>
      <point x="150" y="87" type="line"/>
      <point x="527" y="87" type="line"/>
      <point x="527" y="0" type="line"/>
      <point x="150" y="0" type="line"/>
    </contour>
    <contour>
      <point x="150" y="413" type="line"/>
      <point x="507" y="413" type="line"/>
      <point x="507" y="326" type="line"/>
      <point x="150" y="326" type="line"/>
    </contour>
    <contour>
      <point x="150" y="722" type="line"/>
      <point x="517" y="722" type="line"/>
      <point x="517" y="635" type="line"/>
      <point x="150" y="635" type="line"/>
    </contour>
    <contour>
      <point x="70" y="0" type="line"/>
      <point x="70" y="722" type="line"/>
      <point x="170" y="722" type="line"/>
      <point x="170" y="0" type="line"/>
    </contour>
  </outline>
</glyph>
<glyph name="F" format="2">
  <advance width="540"/>
  <unicode hex="0046"/>
  <outline>
    <contour>
      <point x="160" y="413" type="line"/>
      <point x="517" y="413" type="line"/>
      <point x="517" y="326" type="line"/>
      <point x="160" y="326" type="line"/>
    </contour>
    <contour>
      <point x="160" y="722" type="line"/>
      <point x="517" y="722" type="line"/>
      <point x="517" y="635" type="line"/>
      <point x="160" y="635" type="line"/>
    </contour>
    <contour>
      <point x="80" y="0" type="line"/>
      <point x="80" y="722" type="line"/>
      <point x="180" y="722" type="line"/>
      <point x="180" y="0" type="line"/>
    </contour>
  </outline>
</glyph>
<glyph name="G" format="2">
  <advance width="735"/>
  <unicode hex="0047"/>
  <outline>
    <contour>
      <point x="30" y="361" type="qcurve" smooth="yes"/>
      <point x="30" y="476"/>
      <point x="113" y="643"/>
      <point x="265" y="734"/>
      <point x="370" y="734" type="qcurve" smooth="yes"/>
      <point x="449" y="734"/>
      <point x="563" y="685"/>
      <point x="628" y="598"/>
      <point x="633" y="540" type="qcurve"/>
      <point x="532" y="540" type="line"/>
      <point x="525" y="588"/>
      <point x="443" y="646"/>
      <point x="370" y="646" type="qcurve" smooth="yes"/>
      <point x="297" y="646"/>
      <point x="191" y="576"/>
      <point x="133" y="449"/>
      <point x="133" y="361" type="qcurve" smooth="yes"/>
      <point x="133" y="276"/>
      <point x="189" y="147"/>
      <point x="291" y="76"/>
      <point x="358" y="76" type="qcurve" smooth="yes"/>
      <point x="402" y="76"/>
      <point x="504" y="90"/>
      <point x="542" y="100" type="qcurve"/>
      <point x="542" y="299" type="line"/>
      <point x="378" y="299" type="line"/>
      <point x="378" y="386" type="line"/>
      <point x="643" y="386" type="line"/>
      <point x="643" y="38" type="line"/>
      <point x="608" y="23"/>
      <point x="513" y="0"/>
      <point x="409" y="-12"/>
      <point x="358" y="-12" type="qcurve" smooth="yes"/>
      <point x="260" y="-12"/>
      <point x="112" y="81"/>
      <point x="30" y="249"/>
    </contour>
  </outline>
</glyph>
<glyph name="H" format="2">
  <advance width="689"/>
  <unicode hex="0048"/>
  <outline>
    <contour>
      <point x="150" y="414" type="line"/>
      <point x="539" y="414" type="line"/>
      <point x="539" y="326" type="line"/>
      <point x="150" y="326" type="line"/>
    </contour>
    <contour>
      <point x="70" y="0" type="line"/>
      <point x="70" y="722" type="line"/>
      <point x="170" y="722" type="line"/>
      <point x="170" y="0" type="line"/>
    </contour>
    <contour>
      <point x="519" y="0" type="line"/>
      <point x="519" y="722" type="line"/>
      <point x="619" y="722" type="line"/>
      <point x="619" y="0" type="line"/>
    </contour>
  </outline>
</glyph>
<glyph name="I" format="2">
  <advance width="260"/>
  <unicode hex="0049"/>
  <outline>
    <contour>
      <point x="80" y="0" type="line"/>
      <point x="80" y="722" type="line"/>
      <point x="180" y="722" type="line"/>
      <point x="180" y="0" type="line"/>
    </contour>
  </outline>
</glyph>
<glyph name="J" format="2">
  <advance width="509"/>
  <unicode hex="004A"/>
  <outline>
    <contour>
      <point x="20" y="194" type="qcurve"/>
      <point x="120" y="194" type="line"/>
      <point x="120" y="134"/>
      <point x="178" y="74"/>
      <point x="227" y="74" type="qcurve" smooth="yes"/>
      <point x="288" y="74"/>
      <point x="349" y="155"/>
      <point x="349" y="215" type="qcurve" smooth="yes"/>
      <point x="349" y="722" type="line"/>
      <point x="449" y="722" type="line"/>
      <point x="449" y="215" type="line" smooth="yes"/>
      <point x="449" y="148"/>
      <point x="394" y="45"/>
      <point x="296" y="-14"/>
      <point x="231" y="-14" type="qcurve" smooth="yes"/>
      <point x="169" y="-14"/>
      <point x="74" y="39"/>
      <point x="20" y="133"/>
    </contour>
  </outline>
</glyph>
<glyph name="K" format="2">
  <advance width="640"/>
  <unicode hex="004B"/>
  <outline>
    <contour>
      <point x="145" y="400" type="line"/>
      <point x="459" y="722" type="line"/>
      <point x="583" y="722" type="line"/>
      <point x="255" y="390" type="line"/>
      <point x="255" y="436" type="line"/>
      <point x="620" y="0" type="line"/>
      <point x="485" y="0" type="line"/>
    </contour>
    <contour>
      <point x="60" y="0" type="line"/>
      <point x="60" y="722" type="line"/>
      <point x="160" y="722" type="line"/>
      <point x="160" y="0" type="line"/>
    </contour>
  </outline>
</glyph>
<glyph name="L" format="2">
  <advance width="500"/>
  <unicode hex="004C"/>
  <outline>
    <contour>
      <point x="140" y="87" type="line"/>
      <point x="497" y="87" type="line"/>
      <point x="497" y="0" type="line"/>
      <point x="140" y="0" type="line"/>
    </contour>
    <contour>
      <point x="80" y="0" type="line"/>
      <point x="80" y="722" type="line"/>
      <point x="180" y="722" type="line"/>
      <point x="180" y="0" type="line"/>
    </contour>
  </outline>
</glyph>
<glyph name="M" format="2">
  <advance width="840"/>
  <unicode hex="004D"/>
  <outline>
    <contour>
      <point x="70" y="0" type="line"/>
      <point x="70" y="722" type="line"/>
      <point x="170" y="722" type="line"/>
      <point x="170" y="0" type="line"/>
    </contour>
    <contour>
      <point x="670" y="0" type="line"/>
      <point x="670" y="722" type="line"/>
      <point x="770" y="722" type="line"/>
      <point x="770" y="0" type="line"/>
    </contour>
    <contour>
      <point x="378" y="0" type="line"/>
      <point x="109" y="722" type="line"/>
      <point x="204" y="722" type="line"/>
      <point x="423" y="126" type="line"/>
      <point x="413" y="126" type="line"/>
      <point x="637" y="722" type="line"/>
      <point x="730" y="722" type="line"/>
      <point x="458" y="0" type="line"/>
    </contour>
  </outline>
</glyph>
<glyph name="N" format="2">
  <advance width="683"/>
  <unicode hex="004E"/>
  <outline>
    <contour>
      <point x="90" y="722" type="line"/>
      <point x="202" y="722" type="line"/>
      <point x="593" y="0" type="line"/>
      <point x="480" y="0" type="line"/>
    </contour>
    <contour>
      <point x="160" y="722" type="line"/>
      <point x="160" y="0" type="line"/>
      <point x="60" y="0" type="line"/>
      <point x="60" y="722" type="line"/>
    </contour>
    <contour>
      <point x="523" y="0" type="line"/>
      <point x="523" y="722" type="line"/>
      <point x="623" y="722" type="line"/>
      <point x="623" y="0" type="line"/>
    </contour>
  </outline>
</glyph>
<glyph name="P" format="2">
  <advance width="602"/>
  <unicode hex="0050"/>
  <outline>
    <contour>
      <point x="137" y="635" type="line"/>
      <point x="137" y="722" type="line"/>
      <point x="330" y="722" type="line" smooth="yes"/>
      <point x="397" y="722"/>
      <point x="496" y="670"/>
      <point x="552" y="576"/>
      <point x="552" y="514" type="qcurve" smooth="yes"/>
      <point x="552" y="452"/>
      <point x="496" y="358"/>
      <point x="397" y="306"/>
      <point x="330" y="306" type="qcurve" smooth="yes"/>
      <point x="137" y="306" type="line"/>
      <point x="137" y="394" type="line"/>
      <point x="327" y="394" type="line" smooth="yes"/>
      <point x="366" y="394"/>
      <point x="425" y="424"/>
      <point x="458" y="477"/>
      <point x="458" y="513" type="qcurve" smooth="yes"/>
      <point x="458" y="550"/>
      <point x="425" y="605"/>
      <point x="366" y="635"/>
      <point x="327" y="635" type="qcurve" smooth="yes"/>
    </contour>
    <contour>
      <point x="70" y="0" type="line"/>
      <point x="70" y="722" type="line"/>
      <point x="170" y="722" type="line"/>
      <point x="170" y="0" type="line"/>
    </contour>
  </outline>
</glyph>
<glyph name="Q" format="2">
  <advance width="775"/>
  <unicode hex="0051"/>
  <outline>
    <contour>
      <point x="588" y="70" type="line" smooth="yes"/>
      <point x="592" y="72"/>
      <point x="619" y="77"/>
      <point x="658" y="82"/>
      <point x="701" y="86"/>
      <point x="741" y="88"/>
      <point x="755" y="88" type="qcurve"/>
      <point x="755" y="0" type="line"/>
      <point x="576" y="0" type="line" smooth="yes"/>
      <point x="569" y="0"/>
      <point x="532" y="-1"/>
      <point x="488" y="-3"/>
      <point x="450" y="-5"/>
      <point x="441" y="-7" type="qcurve"/>
      <point x="434" y="-8" type="line"/>
    </contour>
    <contour>
      <point x="50" y="361" type="qcurve" smooth="yes"/>
      <point x="50" y="477"/>
      <point x="129" y="645"/>
      <point x="276" y="734"/>
      <point x="378" y="734" type="qcurve" smooth="yes"/>
      <point x="480" y="734"/>
      <point x="627" y="645"/>
      <point x="706" y="477"/>
      <point x="706" y="361" type="qcurve" smooth="yes"/>
      <point x="706" y="245"/>
      <point x="627" y="77"/>
      <point x="480" y="-12"/>
      <point x="378" y="-12" type="qcurve" smooth="yes"/>
      <point x="276" y="-12"/>
      <point x="129" y="77"/>
      <point x="50" y="245"/>
    </contour>
    <contour>
      <point x="153" y="361" type="qcurve" smooth="yes"/>
      <point x="153" y="218"/>
      <point x="265" y="76"/>
      <point x="378" y="76" type="qcurve" smooth="yes"/>
      <point x="491" y="76"/>
      <point x="603" y="218"/>
      <point x="603" y="361" type="qcurve" smooth="yes"/>
      <point x="603" y="504"/>
      <point x="491" y="646"/>
      <point x="378" y="646" type="qcurve" smooth="yes"/>
      <point x="265" y="646"/>
      <point x="153" y="504"/>
    </contour>
  </outline>
</glyph>
<glyph name="R" format="2">
  <advance width="629"/>
  <unicode hex="0052"/>
  <outline>
    <contour>
      <point x="70" y="634" type="line"/>
      <point x="70" y="722" type="line"/>
      <point x="299" y="722" type="line" smooth="yes"/>
      <point x="367" y="722"/>
      <point x="466" y="699"/>
      <point x="529" y="651"/>
      <point x="559" y="577"/>
      <point x="559" y="525" type="qcurve" smooth="yes"/>
      <point x="559" y="472"/>
      <point x="487" y="388"/>
      <point x="422" y="367" type="qcurve"/>
      <point x="422" y="371" type="line"/>
      <point x="468" y="365"/>
      <point x="511" y="317"/>
      <point x="529" y="251"/>
      <point x="534" y="215" type="qcurve" smooth="yes"/>
      <point x="543" y="155" type="line" smooth="yes"/>
      <point x="549" y="112"/>
      <point x="569" y="27"/>
      <point x="579" y="0" type="qcurve"/>
      <point x="475" y="0" type="line"/>
      <point x="468" y="26"/>
      <point x="457" y="96"/>
      <point x="449" y="143" type="qcurve" smooth="yes"/>
      <point x="444" y="173" type="line" smooth="yes"/>
      <point x="434" y="233"/>
      <point x="401" y="300"/>
      <point x="341" y="328"/>
      <point x="290" y="328" type="qcurve" smooth="yes"/>
      <point x="155" y="328" type="line"/>
      <point x="155" y="414" type="line"/>
      <point x="296" y="414" type="line" smooth="yes"/>
      <point x="380" y="414"/>
      <point x="458" y="467"/>
      <point x="458" y="524" type="qcurve" smooth="yes"/>
      <point x="458" y="562"/>
      <point x="424" y="611"/>
      <point x="353" y="634"/>
      <point x="296" y="634" type="qcurve" smooth="yes"/>
    </contour>
    <contour>
      <point x="70" y="0" type="line"/>
      <point x="70" y="722" type="line"/>
      <point x="170" y="722" type="line"/>
      <point x="170" y="0" type="line"/>
    </contour>
  </outline>
</glyph>
<glyph name="S" format="2">
  <advance width="642"/>
  <unicode hex="0053"/>
  <outline>
    <contour>
      <point x="50" y="214" type="qcurve"/>
      <point x="150" y="214" type="line"/>
      <point x="150" y="174"/>
      <point x="199" y="110"/>
      <point x="279" y="73"/>
      <point x="324" y="73" type="qcurve" smooth="yes"/>
      <point x="407" y="73"/>
      <point x="492" y="136"/>
      <point x="492" y="196" type="qcurve" smooth="yes"/>
      <point x="492" y="234"/>
      <point x="456" y="284"/>
      <point x="373" y="318"/>
      <point x="303" y="332" type="qcurve" smooth="yes"/>
      <point x="213" y="349"/>
      <point x="106" y="400"/>
      <point x="59" y="479"/>
      <point x="59" y="538" type="qcurve" smooth="yes"/>
      <point x="59" y="598"/>
      <point x="120" y="688"/>
      <point x="231" y="737"/>
      <point x="306" y="737" type="qcurve" smooth="yes"/>
      <point x="430" y="737"/>
      <point x="564" y="635"/>
      <point x="564" y="540" type="qcurve"/>
      <point x="464" y="540" type="line"/>
      <point x="464" y="598"/>
      <point x="386" y="649"/>
      <point x="299" y="649" type="qcurve" smooth="yes"/>
      <point x="254" y="649"/>
      <point x="191" y="625"/>
      <point x="159" y="577"/>
      <point x="159" y="541" type="qcurve" smooth="yes"/>
      <point x="159" y="495"/>
      <point x="210" y="446"/>
      <point x="294" y="422"/>
      <point x="341" y="412" type="qcurve" smooth="yes"/>
      <point x="385" y="403"/>
      <point x="474" y="380"/>
      <point x="548" y="338"/>
      <point x="592" y="265"/>
      <point x="592" y="206" type="qcurve" smooth="yes"/>
      <point x="592" y="131"/>
      <point x="532" y="33"/>
      <point x="410" y="-15"/>
      <point x="316" y="-15" type="qcurve" smooth="yes"/>
      <point x="237" y="-15"/>
      <point x="117" y="42"/>
      <point x="50" y="146"/>
    </contour>
  </outline>
</glyph>
<glyph name="T" format="2">
  <advance width="612"/>
  <unicode hex="0054"/>
  <outline>
    <contour>
      <point x="592" y="635" type="line"/>
      <point x="356" y="635" type="line"/>
      <point x="356" y="0" type="line"/>
      <point x="256" y="0" type="line"/>
      <point x="256" y="635" type="line"/>
      <point x="20" y="635" type="line"/>
      <point x="20" y="722" type="line"/>
      <point x="592" y="722" type="line"/>
    </contour>
  </outline>
</glyph>
<glyph name="U" format="2">
  <advance width="716"/>
  <unicode hex="0055"/>
  <outline>
    <contour>
      <point x="70" y="294" type="qcurve" smooth="yes"/>
      <point x="70" y="722" type="line"/>
      <point x="170" y="722" type="line"/>
      <point x="170" y="294" type="line" smooth="yes"/>
      <point x="170" y="219"/>
      <point x="217" y="122"/>
      <point x="301" y="74"/>
      <point x="357" y="74" type="qcurve" smooth="yes"/>
      <point x="414" y="74"/>
      <point x="499" y="122"/>
      <point x="546" y="219"/>
      <point x="546" y="294" type="qcurve" smooth="yes"/>
      <point x="546" y="722" type="line"/>
      <point x="646" y="722" type="line"/>
      <point x="646" y="294" type="line" smooth="yes"/>
      <point x="646" y="193"/>
      <point x="574" y="56"/>
      <point x="444" y="-14"/>
      <point x="358" y="-14" type="qcurve" smooth="yes"/>
      <point x="272" y="-14"/>
      <point x="142" y="56"/>
      <point x="70" y="193"/>
    </contour>
  </outline>
</glyph>
<glyph name="V" format="2">
  <advance width="664"/>
  <unicode hex="0056"/>
  <outline>
    <contour>
      <point x="644" y="722" type="line"/>
      <point x="387" y="0" type="line"/>
      <point x="277" y="0" type="line"/>
      <point x="20" y="722" type="line"/>
      <point x="133" y="722" type="line"/>
      <point x="336" y="119" type="line"/>
      <point x="328" y="119" type="line"/>
      <point x="531" y="722" type="line"/>
    </contour>
  </outline>
</glyph>
<glyph name="W" format="2">
  <advance width="982"/>
  <unicode hex="0057"/>
  <outline>
    <contour>
      <point x="962" y="722" type="line"/>
      <point x="748" y="0" type="line"/>
      <point x="658" y="0" type="line"/>
      <point x="488" y="614" type="line"/>
      <point x="494" y="614" type="line"/>
      <point x="324" y="0" type="line"/>
      <point x="234" y="0" type="line"/>
      <point x="20" y="722" type="line"/>
      <point x="126" y="722" type="line"/>
      <point x="282" y="138" type="line"/>
      <point x="276" y="138" type="line"/>
      <point x="431" y="722" type="line"/>
      <point x="551" y="722" type="line"/>
      <point x="706" y="138" type="line"/>
      <point x="700" y="138" type="line"/>
      <point x="856" y="722" type="line"/>
    </contour>
  </outline>
</glyph>
<glyph name="X" format="2">
  <advance width="684"/>
  <unicode hex="0058"/>
  <outline>
    <contour>
      <point x="541" y="0" type="line"/>
      <point x="49" y="722" type="line"/>
      <point x="177" y="722" type="line"/>
      <point x="669" y="0" type="line"/>
    </contour>
    <contour>
      <point x="289" y="397" type="line"/>
      <point x="343" y="327" type="line"/>
      <point x="133" y="0" type="line"/>
      <point x="15" y="0" type="line"/>
    </contour>
    <contour>
      <point x="395" y="373" type="line"/>
      <point x="341" y="443" type="line"/>
      <point x="516" y="722" type="line"/>
      <point x="634" y="722" type="line"/>
    </contour>
  </outline>
</glyph>
<glyph name="Y" format="2">
  <advance width="676"/>
  <unicode hex="0059"/>
  <outline>
    <contour>
      <point x="656" y="722" type="line"/>
      <point x="338" y="206" type="line"/>
      <point x="20" y="722" type="line"/>
      <point x="143" y="722" type="line"/>
      <point x="338" y="375" type="line"/>
      <point x="542" y="722" type="line"/>
    </contour>
    <contour>
      <point x="287" y="302" type="line"/>
      <point x="387" y="302" type="line"/>
      <point x="387" y="0" type="line"/>
      <point x="287" y="0" type="line"/>
    </contour>
  </outline>
</glyph>
<glyph name="Z" format="2">
  <advance width="626"/>
  <unicode hex="005A"/>
  <outline>
    <contour>
      <point x="576" y="0" type="line"/>
      <point x="50" y="0" type="line"/>
      <point x="50" y="110" type="line"/>
      <point x="456" y="635" type="line"/>
      <point x="70" y="635" type="line"/>
      <point x="70" y="722" type="line"/>
      <point x="566" y="722" type="line"/>
      <point x="566" y="612" type="line"/>
      <point x="160" y="87" type="line"/>
      <point x="576" y="87" type="line"/>
    </contour>
  </outline>
</glyph>
<glyph name="bracketleft" format="2">
  <advance width="396"/>
  <unicode hex="005B"/>
  <outline>
    <contour>
      <point x="292" y="-198" type="line"/>
      <point x="106" y="-198" type="line"/>
      <point x="106" y="722" type="line"/>
      <point x="292" y="722" type="line"/>
      <point x="292" y="671" type="line"/>
      <point x="192" y="671" type="line"/>
      <point x="192" y="-147" type="line"/>
      <point x="292" y="-147" type="line"/>
    </contour>
  </outline>
</glyph>
<glyph name="backslash" format="2">
  <advance width="345"/>
  <unicode hex="005C"/>
  <outline>
    <contour>
      <point x="325" y="-52" type="line"/>
      <point x="256" y="-52" type="line"/>
      <point x="20" y="736" type="line"/>
      <point x="89" y="736" type="line"/>
    </contour>
  </outline>
</glyph>
<glyph name="bracketright" format="2">
  <advance width="396"/>
  <unicode hex="005D"/>
  <outline>
    <contour>
      <point x="292" y="-198" type="line"/>
      <point x="106" y="-198" type="line"/>
      <point x="106" y="-147" type="line"/>
      <point x="205" y="-147" type="line"/>
      <point x="205" y="671" type="line"/>
      <point x="106" y="671" type="line"/>
      <point x="106" y="722" type="line"/>
      <point x="292" y="722" type="line"/>
    </contour>
  </outline>
</glyph>
<glyph name="asciicircum" format="2">
  <advance width="618"/>
  <unicode hex="005E"/>
  <outline>
    <contour>
      <point x="598" y="10" type="line"/>
      <point x="508" y="10" type="line"/>
      <point x="309" y="546" type="line"/>
      <point x="110" y="10" type="line"/>
      <point x="20" y="10" type="line"/>
      <point x="243" y="610" type="line"/>
      <point x="375" y="610" type="line"/>
    </contour>
  </outline>
</glyph>
<glyph name="grave" format="2">
  <advance width="260"/>
  <unicode hex="0060"/>
  <outline>
    <contour>
      <point x="230" y="580" type="line"/>
      <point x="160" y="580" type="line"/>
      <point x="30" y="730" type="line"/>
      <point x="130" y="730" type="line"/>
    </contour>
  </outline>
</glyph>
<glyph name="a" format="2">
  <advance width="566"/>
  <unicode hex="0061"/>
  <outline>
    <contour>
      <point x="60" y="140" type="qcurve" smooth="yes"/>
      <point x="60" y="223"/>
      <point x="204" y="308"/>
      <point x="335" y="308" type="qcurve" smooth="yes"/>
      <point x="357" y="308"/>
      <point x="411" y="302"/>
      <point x="420" y="300" type="qcurve"/>
      <point x="439" y="232" type="line"/>
      <point x="414" y="234"/>
      <point x="386" y="237"/>
      <point x="363" y="239"/>
      <point x="347" y="239" type="qcurve" smooth="yes"/>
      <point x="258" y="239"/>
      <point x="154" y="192"/>
      <point x="154" y="143" type="qcurve" smooth="yes"/>
      <point x="154" y="106"/>
      <point x="211" y="55"/>
      <point x="254" y="55" type="qcurve" smooth="yes"/>
      <point x="303" y="55"/>
      <point x="368" y="88"/>
      <point x="400" y="155"/>
      <point x="400" y="204" type="qcurve" smooth="yes"/>
      <point x="400" y="349" type="line" smooth="yes"/>
      <point x="400" y="395"/>
      <point x="343" y="444"/>
      <point x="290" y="444" type="qcurve" smooth="yes"/>
      <point x="240" y="444"/>
      <point x="182" y="402"/>
      <point x="182" y="365" type="qcurve"/>
      <point x="88" y="365" type="line"/>
      <point x="88" y="438"/>
      <point x="192" y="513"/>
      <point x="292" y="513" type="qcurve" smooth="yes"/>
      <point x="387" y="513"/>
      <point x="490" y="433"/>
      <point x="490" y="360" type="qcurve" smooth="yes"/>
      <point x="490" y="182" type="line" smooth="yes"/>
      <point x="490" y="131"/>
      <point x="494" y="59"/>
      <point x="502" y="12"/>
      <point x="506" y="0" type="qcurve"/>
      <point x="416" y="0" type="line"/>
      <point x="407" y="37"/>
      <point x="406" y="78"/>
      <point x="402" y="103" type="qcurve"/>
      <point x="416" y="85" type="line"/>
      <point x="385" y="47"/>
      <point x="334" y="4"/>
      <point x="282" y="-14"/>
      <point x="247" y="-14" type="qcurve" smooth="yes"/>
      <point x="190" y="-14"/>
      <point x="106" y="24"/>
      <point x="60" y="93"/>
    </contour>
  </outline>
</glyph>
<glyph name="b" format="2">
  <advance width="626"/>
  <unicode hex="0062"/>
  <outline>
    <contour>
      <point x="74" y="0" type="line"/>
      <point x="77" y="16"/>
      <point x="79" y="57"/>
      <point x="80" y="101"/>
      <point x="80" y="120" type="qcurve" smooth="yes"/>
      <point x="80" y="722" type="line"/>
      <point x="170" y="722" type="line"/>
      <point x="170" y="480" type="line" smooth="yes"/>
      <point x="170" y="460"/>
      <point x="166" y="418"/>
      <point x="163" y="397" type="qcurve"/>
      <point x="158" y="397" type="line"/>
      <point x="158" y="101" type="line"/>
      <point x="164" y="101" type="line"/>
      <point x="165" y="91"/>
      <point x="165" y="74"/>
      <point x="165" y="67" type="qcurve" smooth="yes"/>
      <point x="165" y="42"/>
      <point x="161" y="12"/>
      <point x="158" y="0" type="qcurve"/>
    </contour>
    <contour>
      <point x="120" y="72" type="line"/>
      <point x="120" y="436" type="line"/>
      <point x="170" y="436" type="line"/>
      <point x="195" y="471"/>
      <point x="289" y="513"/>
      <point x="344" y="513" type="qcurve" smooth="yes"/>
      <point x="410" y="513"/>
      <point x="510" y="454"/>
      <point x="566" y="347"/>
      <point x="566" y="276" type="qcurve" smooth="yes"/>
      <point x="566" y="189"/>
      <point x="507" y="60"/>
      <point x="402" y="-12"/>
      <point x="332" y="-12" type="qcurve" smooth="yes"/>
      <point x="283" y="-12"/>
      <point x="192" y="34"/>
      <point x="166" y="72" type="qcurve"/>
    </contour>
    <contour>
      <point x="168" y="251" type="qcurve" smooth="yes"/>
      <point x="168" y="160"/>
      <point x="253" y="53"/>
      <point x="324" y="53" type="qcurve" smooth="yes"/>
      <point x="369" y="53"/>
      <point x="435" y="104"/>
      <point x="472" y="196"/>
      <point x="472" y="257" type="qcurve" smooth="yes"/>
      <point x="472" y="346"/>
      <point x="391" y="455"/>
      <point x="324" y="455" type="qcurve" smooth="yes"/>
      <point x="289" y="455"/>
      <point x="231" y="426"/>
      <point x="190" y="372"/>
      <point x="168" y="297"/>
    </contour>
  </outline>
</glyph>
<glyph name="c" format="2">
  <advance width="580"/>
  <unicode hex="0063"/>
  <outline>
    <contour>
      <point x="60" y="250" type="qcurve" smooth="yes"/>
      <point x="60" y="171"/>
      <point x="120" y="54"/>
      <point x="227" y="-12"/>
      <point x="299" y="-12" type="qcurve" smooth="yes"/>
      <point x="360" y="-12"/>
      <point x="456" y="33"/>
      <point x="515" y="115"/>
      <point x="520" y="169" type="qcurve"/>
      <point x="425" y="169" type="line"/>
      <point x="420" y="117"/>
      <point x="349" y="53"/>
      <point x="298" y="53" type="qcurve" smooth="yes"/>
      <point x="254" y="53"/>
      <point x="190" y="100"/>
      <point x="154" y="188"/>
      <point x="154" y="250" type="qcurve" smooth="yes"/>
      <point x="154" y="296"/>
      <point x="174" y="369"/>
      <point x="212" y="420"/>
      <point x="267" y="447"/>
      <point x="301" y="447" type="qcurve" smooth="yes"/>
      <point x="333" y="447"/>
      <point x="385" y="421"/>
      <point x="417" y="373"/>
      <point x="421" y="341" type="qcurve"/>
      <point x="516" y="341" type="line"/>
      <point x="511" y="392"/>
      <point x="455" y="469"/>
      <point x="362" y="512"/>
      <point x="302" y="512" type="qcurve" smooth="yes"/>
      <point x="230" y="512"/>
      <point x="121" y="446"/>
      <point x="60" y="329"/>
    </contour>
  </outline>
</glyph>
<glyph name="d" format="2">
  <advance width="611"/>
  <unicode hex="0064"/>
  <outline>
    <contour>
      <point x="441" y="0" type="line"/>
      <point x="441" y="722" type="line"/>
      <point x="531" y="722" type="line"/>
      <point x="531" y="0" type="line"/>
    </contour>
    <contour>
      <point x="60" y="253" type="qcurve" smooth="yes"/>
      <point x="60" y="337"/>
      <point x="123" y="453"/>
      <point x="226" y="513"/>
      <point x="287" y="513" type="qcurve" smooth="yes"/>
      <point x="330" y="513"/>
      <point x="390" y="486"/>
      <point x="433" y="441"/>
      <point x="450" y="415" type="qcurve"/>
      <point x="450" y="70" type="line"/>
      <point x="443" y="56"/>
      <point x="394" y="17"/>
      <point x="326" y="-13"/>
      <point x="291" y="-13" type="qcurve" smooth="yes"/>
      <point x="217" y="-13"/>
      <point x="114" y="58"/>
      <point x="60" y="178"/>
    </contour>
    <contour>
      <point x="150" y="248" type="qcurve" smooth="yes"/>
      <point x="150" y="200"/>
      <point x="185" y="111"/>
      <point x="253" y="55"/>
      <point x="304" y="55" type="qcurve" smooth="yes"/>
      <point x="349" y="55"/>
      <point x="410" y="102"/>
      <point x="441" y="187"/>
      <point x="441" y="244" type="qcurve" smooth="yes"/>
      <point x="441" y="282"/>
      <point x="426" y="354"/>
      <point x="392" y="414"/>
      <point x="336" y="449"/>
      <point x="294" y="449" type="qcurve" smooth="yes"/>
      <point x="253" y="449"/>
      <point x="198" y="414"/>
      <point x="165" y="356"/>
      <point x="150" y="285"/>
    </contour>
  </outline>
</glyph>
<glyph name="e" format="2">
  <advance width="576"/>
  <unicode hex="0065"/>
  <outline>
    <contour>
      <point x="60" y="250" type="qcurve" smooth="yes"/>
      <point x="60" y="328"/>
      <point x="111" y="446"/>
      <point x="214" y="512"/>
      <point x="292" y="512" type="qcurve" smooth="yes"/>
      <point x="364" y="512"/>
      <point x="463" y="456"/>
      <point x="515" y="353"/>
      <point x="515" y="282" type="qcurve" smooth="yes"/>
      <point x="515" y="236" type="line"/>
      <point x="494" y="236" type="line"/>
      <point x="421" y="289" type="line"/>
      <point x="421" y="312"/>
      <point x="411" y="366"/>
      <point x="384" y="415"/>
      <point x="330" y="447"/>
      <point x="287" y="447" type="qcurve" smooth="yes"/>
      <point x="247" y="447"/>
      <point x="194" y="418"/>
      <point x="164" y="368"/>
      <point x="152" y="303"/>
      <point x="152" y="267" type="qcurve" smooth="yes"/>
      <point x="152" y="232"/>
      <point x="164" y="156"/>
      <point x="196" y="91"/>
      <point x="253" y="51"/>
      <point x="297" y="51" type="qcurve" smooth="yes"/>
      <point x="353" y="51"/>
      <point x="416" y="114"/>
      <point x="420" y="160" type="qcurve"/>
      <point x="516" y="160" type="line"/>
      <point x="506" y="108"/>
      <point x="449" y="29"/>
      <point x="356" y="-14"/>
      <point x="292" y="-14" type="qcurve" smooth="yes"/>
      <point x="211" y="-14"/>
      <point x="108" y="56"/>
      <point x="60" y="176"/>
    </contour>
    <contour>
      <point x="119" y="236" type="line"/>
      <point x="119" y="301" type="line"/>
      <point x="436" y="301" type="line"/>
      <point x="515" y="246" type="line"/>
      <point x="515" y="236" type="line"/>
    </contour>
  </outline>
</glyph>
<glyph name="h" format="2">
  <advance width="595"/>
  <unicode hex="0068"/>
  <outline>
    <contour>
      <point x="150" y="323" type="line"/>
      <point x="150" y="408" type="line"/>
      <point x="170" y="436" type="line" smooth="yes"/>
      <point x="187" y="460"/>
      <point x="236" y="494"/>
      <point x="295" y="513"/>
      <point x="327" y="513" type="qcurve" smooth="yes"/>
      <point x="421" y="513"/>
      <point x="515" y="421"/>
      <point x="515" y="329" type="qcurve" smooth="yes"/>
      <point x="515" y="0" type="line"/>
      <point x="425" y="0" type="line"/>
      <point x="425" y="311" type="line" smooth="yes"/>
      <point x="425" y="385"/>
      <point x="366" y="453"/>
      <point x="302" y="453" type="qcurve" smooth="yes"/>
      <point x="265" y="453"/>
      <point x="205" y="418"/>
      <point x="170" y="360"/>
      <point x="170" y="323" type="qcurve"/>
    </contour>
    <contour>
      <point x="80" y="0" type="line"/>
      <point x="80" y="722" type="line"/>
      <point x="170" y="722" type="line"/>
      <point x="170" y="0" type="line"/>
    </contour>
  </outline>
</glyph>
<glyph name="k" format="2">
  <advance width="519"/>
  <unicode hex="006B"/>
  <outline>
    <contour>
      <point x="499" y="0" type="line"/>
      <point x="380" y="0" type="line"/>
      <point x="170" y="281" type="line"/>
      <point x="370" y="500" type="line"/>
      <point x="483" y="500" type="line"/>
      <point x="275" y="273" type="line"/>
      <point x="276" y="292" type="line"/>
    </contour>
    <contour>
      <point x="80" y="0" type="line"/>
      <point x="80" y="722" type="line"/>
      <point x="170" y="722" type="line"/>
      <point x="170" y="0" type="line"/>
    </contour>
  </outline>
</glyph>
<glyph name="l" format="2">
  <advance width="250"/>
  <unicode hex="006C"/>
  <outline>
    <contour>
      <point x="80" y="0" type="line"/>
      <point x="80" y="722" type="line"/>
      <point x="170" y="722" type="line"/>
      <point x="170" y="0" type="line"/>
    </contour>
  </outline>
</glyph>
<glyph name="m" format="2">
  <advance width="910"/>
  <unicode hex="006D"/>
  <outline>
    <contour>
      <point x="500" y="314" type="line"/>
      <point x="474" y="314" type="line"/>
      <point x="474" y="409" type="line"/>
      <point x="507" y="460"/>
      <point x="592" y="512"/>
      <point x="645" y="512" type="qcurve" smooth="yes"/>
      <point x="737" y="512"/>
      <point x="830" y="418"/>
      <point x="830" y="325" type="qcurve" smooth="yes"/>
      <point x="830" y="0" type="line"/>
      <point x="740" y="0" type="line"/>
      <point x="740" y="322" type="line" smooth="yes"/>
      <point x="740" y="381"/>
      <point x="685" y="448"/>
      <point x="627" y="448" type="qcurve" smooth="yes"/>
      <point x="593" y="448"/>
      <point x="535" y="409"/>
      <point x="500" y="351"/>
      <point x="500" y="323" type="qcurve" smooth="yes"/>
    </contour>
    <contour>
      <point x="170" y="431" type="line" smooth="yes"/>
      <point x="201" y="472"/>
      <point x="270" y="512"/>
      <point x="314" y="512" type="qcurve" smooth="yes"/>
      <point x="362" y="512"/>
      <point x="425" y="491"/>
      <point x="474" y="440"/>
      <point x="500" y="396" type="qcurve"/>
      <point x="500" y="0" type="line"/>
      <point x="410" y="0" type="line"/>
      <point x="410" y="323" type="line" smooth="yes"/>
      <point x="410" y="384"/>
      <point x="350" y="448"/>
      <point x="303" y="448" type="qcurve" smooth="yes"/>
      <point x="263" y="448"/>
      <point x="204" y="409"/>
      <point x="170" y="351"/>
      <point x="170" y="323" type="qcurve"/>
      <point x="150" y="323" type="line"/>
      <point x="150" y="404" type="line"/>
    </contour>
    <contour>
      <point x="80" y="0" type="line"/>
      <point x="80" y="500" type="line"/>
      <point x="170" y="500" type="line"/>
      <point x="170" y="0" type="line"/>
    </contour>
  </outline>
</glyph>
<glyph name="n" format="2">
  <advance width="595"/>
  <unicode hex="006E"/>
  <outline>
    <contour>
      <point x="150" y="323" type="line"/>
      <point x="150" y="436" type="line"/>
      <point x="172" y="436" type="line"/>
      <point x="198" y="471"/>
      <point x="279" y="513"/>
      <point x="327" y="513" type="qcurve" smooth="yes"/>
      <point x="389" y="513"/>
      <point x="473" y="473"/>
      <point x="515" y="393"/>
      <point x="515" y="332" type="qcurve" smooth="yes"/>
      <point x="515" y="0" type="line"/>
      <point x="425" y="0" type="line"/>
      <point x="425" y="312" type="line" smooth="yes"/>
      <point x="425" y="361"/>
      <point x="399" y="423"/>
      <point x="345" y="453"/>
      <point x="302" y="453" type="qcurve" smooth="yes"/>
      <point x="265" y="453"/>
      <point x="205" y="418"/>
      <point x="170" y="360"/>
      <point x="170" y="323" type="qcurve"/>
    </contour>
    <contour>
      <point x="80" y="0" type="line"/>
      <point x="80" y="500" type="line"/>
      <point x="170" y="500" type="line"/>
      <point x="170" y="0" type="line"/>
    </contour>
  </outline>
</glyph>
<glyph name="p" format="2">
  <advance width="631"/>
  <unicode hex="0070"/>
  <outline>
    <contour>
      <point x="83" y="-200" type="line"/>
      <point x="83" y="421" type="line" smooth="yes"/>
      <point x="83" y="441"/>
      <point x="82" y="481"/>
      <point x="80" y="500" type="qcurve"/>
      <point x="170" y="500" type="line"/>
      <point x="172" y="480"/>
      <point x="173" y="441"/>
      <point x="173" y="421" type="qcurve" smooth="yes"/>
      <point x="173" y="-200" type="line"/>
    </contour>
    <contour>
      <point x="154" y="111" type="qcurve"/>
      <point x="154" y="407" type="line"/>
      <point x="170" y="442"/>
      <point x="224" y="489"/>
      <point x="295" y="513"/>
      <point x="337" y="513" type="qcurve" smooth="yes"/>
      <point x="405" y="513"/>
      <point x="510" y="454"/>
      <point x="571" y="345"/>
      <point x="571" y="271" type="qcurve" smooth="yes"/>
      <point x="571" y="181"/>
      <point x="512" y="54"/>
      <point x="406" y="-13"/>
      <point x="336" y="-13" type="qcurve" smooth="yes"/>
      <point x="277" y="-13"/>
      <point x="186" y="49"/>
    </contour>
    <contour>
      <point x="173" y="262" type="qcurve" smooth="yes"/>
      <point x="173" y="203"/>
      <point x="212" y="109"/>
      <point x="279" y="54"/>
      <point x="321" y="54" type="qcurve" smooth="yes"/>
      <point x="369" y="54"/>
      <point x="438" y="101"/>
      <point x="475" y="194"/>
      <point x="475" y="265" type="qcurve" smooth="yes"/>
      <point x="475" y="324"/>
      <point x="435" y="409"/>
      <point x="367" y="455"/>
      <point x="324" y="455" type="qcurve" smooth="yes"/>
      <point x="291" y="455"/>
      <point x="235" y="427"/>
      <point x="195" y="376"/>
      <point x="173" y="305"/>
    </contour>
  </outline>
</glyph>
<glyph name="r" format="2">
  <advance width="372"/>
  <unicode hex="0072"/>
  <outline>
    <contour>
      <point x="170" y="442" type="line" smooth="yes"/>
      <point x="198" y="478"/>
      <point x="283" y="510"/>
      <point x="352" y="510" type="qcurve"/>
      <point x="352" y="430" type="line"/>
      <point x="261" y="430"/>
      <point x="170" y="360"/>
      <point x="170" y="290" type="qcurve"/>
      <point x="150" y="290" type="line"/>
      <point x="150" y="416" type="line"/>
    </contour>
    <contour>
      <point x="80" y="0" type="line"/>
      <point x="80" y="500" type="line"/>
      <point x="170" y="500" type="line"/>
      <point x="170" y="0" type="line"/>
    </contour>
  </outline>
</glyph>
<glyph name="s" format="2">
  <advance width="523"/>
  <unicode hex="0073"/>
  <outline>
    <contour>
      <point x="60" y="144" type="qcurve"/>
      <point x="153" y="144" type="line"/>
      <point x="153" y="98"/>
      <point x="209" y="51"/>
      <point x="256" y="51" type="qcurve" smooth="yes"/>
      <point x="301" y="51"/>
      <point x="371" y="95"/>
      <point x="371" y="138" type="qcurve" smooth="yes"/>
      <point x="371" y="166"/>
      <point x="339" y="196"/>
      <point x="290" y="212"/>
      <point x="264" y="217" type="qcurve" smooth="yes"/>
      <point x="234" y="224" type="line" smooth="yes"/>
      <point x="189" y="234"/>
      <point x="128" y="259"/>
      <point x="90" y="292"/>
      <point x="74" y="334"/>
      <point x="74" y="362" type="qcurve" smooth="yes"/>
      <point x="74" y="406"/>
      <point x="114" y="474"/>
      <point x="202" y="512"/>
      <point x="274" y="512" type="qcurve" smooth="yes"/>
      <point x="327" y="512"/>
      <point x="408" y="486"/>
      <point x="453" y="423"/>
      <point x="453" y="366" type="qcurve"/>
      <point x="361" y="366" type="line"/>
      <point x="361" y="407"/>
      <point x="313" y="447"/>
      <point x="271" y="447" type="qcurve" smooth="yes"/>
      <point x="229" y="447"/>
      <point x="168" y="407"/>
      <point x="168" y="369" type="qcurve" smooth="yes"/>
      <point x="168" y="341"/>
      <point x="213" y="308"/>
      <point x="270" y="295" type="qcurve" smooth="yes"/>
      <point x="293" y="290" type="line" smooth="yes"/>
      <point x="322" y="284"/>
      <point x="382" y="268"/>
      <point x="432" y="239"/>
      <point x="463" y="187"/>
      <point x="463" y="146" type="qcurve" smooth="yes"/>
      <point x="463" y="89"/>
      <point x="404" y="18"/>
      <point x="307" y="-14"/>
      <point x="251" y="-14" type="qcurve" smooth="yes"/>
      <point x="194" y="-14"/>
      <point x="108" y="19"/>
      <point x="60" y="89"/>
    </contour>
  </outline>
</glyph>
<glyph name="t" format="2">
  <advance width="344"/>
  <unicode hex="0074"/>
  <outline>
    <contour>
      <point x="114" y="133" type="qcurve" smooth="yes"/>
      <point x="114" y="599" type="line"/>
      <point x="204" y="636" type="line"/>
      <point x="204" y="130" type="line" smooth="yes"/>
      <point x="204" y="96"/>
      <point x="225" y="55"/>
      <point x="253" y="55" type="qcurve" smooth="yes"/>
      <point x="268" y="55"/>
      <point x="299" y="60"/>
      <point x="314" y="64" type="qcurve"/>
      <point x="314" y="0" type="line"/>
      <point x="293" y="-7"/>
      <point x="249" y="-12"/>
      <point x="227" y="-12" type="qcurve" smooth="yes"/>
      <point x="184" y="-12"/>
      <point x="135" y="21"/>
      <point x="114" y="85"/>
    </contour>
    <contour>
      <point x="189" y="435" type="line"/>
      <point x="189" y="500" type="line"/>
      <point x="314" y="500" type="line"/>
      <point x="314" y="435" type="line"/>
    </contour>
    <contour>
      <point x="24" y="435" type="line"/>
      <point x="24" y="500" type="line"/>
      <point x="129" y="500" type="line"/>
      <point x="129" y="435" type="line"/>
    </contour>
  </outline>
</glyph>
<glyph name="u" format="2">
  <advance width="594"/>
  <unicode hex="0075"/>
  <outline>
    <contour>
      <point x="80" y="174" type="qcurve" smooth="yes"/>
      <point x="80" y="500" type="line"/>
      <point x="170" y="500" type="line"/>
      <point x="170" y="172" type="line" smooth="yes"/>
      <point x="170" y="116"/>
      <point x="234" y="53"/>
      <point x="287" y="53" type="qcurve" smooth="yes"/>
      <point x="317" y="53"/>
      <point x="367" y="73"/>
      <point x="404" y="107"/>
      <point x="424" y="154"/>
      <point x="424" y="181" type="qcurve"/>
      <point x="444" y="181" type="line"/>
      <point x="444" y="100" type="line"/>
      <point x="424" y="69" type="line" smooth="yes"/>
      <point x="406" y="42"/>
      <point x="359" y="6"/>
      <point x="299" y="-12"/>
      <point x="261" y="-12" type="qcurve" smooth="yes"/>
      <point x="171" y="-12"/>
      <point x="80" y="84"/>
    </contour>
    <contour>
      <point x="514" y="0" type="line"/>
      <point x="424" y="0" type="line"/>
      <point x="424" y="500" type="line"/>
      <point x="514" y="500" type="line"/>
    </contour>
  </outline>
</glyph>
<glyph name="v" format="2">
  <advance width="556"/>
  <unicode hex="0076"/>
  <outline>
    <contour>
      <point x="536" y="500" type="line"/>
      <point x="324" y="0" type="line"/>
      <point x="232" y="0" type="line"/>
      <point x="20" y="500" type="line"/>
      <point x="125" y="500" type="line"/>
      <point x="282" y="99" type="line"/>
      <point x="274" y="99" type="line"/>
      <point x="441" y="500" type="line"/>
    </contour>
  </outline>
</glyph>
<glyph name="w" format="2">
  <advance width="824"/>
  <unicode hex="0077"/>
  <outline>
    <contour>
      <point x="804" y="500" type="line"/>
      <point x="635" y="0" type="line"/>
      <point x="545" y="0" type="line"/>
      <point x="408" y="426" type="line"/>
      <point x="416" y="426" type="line"/>
      <point x="279" y="0" type="line"/>
      <point x="189" y="0" type="line"/>
      <point x="20" y="500" type="line"/>
      <point x="116" y="500" type="line"/>
      <point x="237" y="99" type="line"/>
      <point x="231" y="99" type="line"/>
      <point x="352" y="500" type="line"/>
      <point x="472" y="500" type="line"/>
      <point x="593" y="99" type="line"/>
      <point x="587" y="99" type="line"/>
      <point x="708" y="500" type="line"/>
    </contour>
  </outline>
</glyph>
<glyph name="x" format="2">
  <advance width="547"/>
  <unicode hex="0078"/>
  <outline>
    <contour>
      <point x="527" y="0" type="line"/>
      <point x="413" y="0" type="line"/>
      <point x="28" y="500" type="line"/>
      <point x="142" y="500" type="line"/>
    </contour>
    <contour>
      <point x="228" y="271" type="line"/>
      <point x="276" y="209" type="line"/>
      <point x="125" y="0" type="line"/>
      <point x="20" y="0" type="line"/>
    </contour>
    <contour>
      <point x="319" y="247" type="line"/>
      <point x="272" y="309" type="line"/>
      <point x="409" y="500" type="line"/>
      <point x="514" y="500" type="line"/>
    </contour>
  </outline>
</glyph>
<glyph name="y" format="2">
  <advance width="545"/>
  <unicode hex="0079"/>
  <outline>
    <contour>
      <point x="161" y="-200" type="line"/>
      <point x="428" y="500" type="line"/>
      <point x="525" y="500" type="line"/>
      <point x="253" y="-200" type="line"/>
    </contour>
    <contour>
      <point x="288" y="110" type="line"/>
      <point x="240" y="-13" type="line"/>
      <point x="20" y="500" type="line"/>
      <point x="125" y="500" type="line"/>
    </contour>
  </outline>
</glyph>
<glyph name="z" format="2">
  <advance width="488"/>
  <unicode hex="007A"/>
  <outline>
    <contour>
      <point x="428" y="0" type="line"/>
      <point x="60" y="0" type="line"/>
      <point x="60" y="82" type="line"/>
      <point x="333" y="441" type="line"/>
      <point x="338" y="431" type="line"/>
      <point x="80" y="431" type="line"/>
      <point x="80" y="500" type="line"/>
      <point x="428" y="500" type="line"/>
      <point x="428" y="418" type="line"/>
      <point x="153" y="59" type="line"/>
      <point x="148" y="69" type="line"/>
      <point x="428" y="69" type="line"/>
    </contour>
  </outline>
</glyph>
<glyph name="braceleft" format="2">
  <advance width="487"/>
  <unicode hex="007B"/>
  <outline>
    <contour>
      <point x="80" y="224" type="qcurve"/>
      <point x="80" y="296" type="line"/>
      <point x="131" y="308"/>
      <point x="182" y="354"/>
      <point x="200" y="415"/>
      <point x="200" y="450" type="qcurve" smooth="yes"/>
      <point x="200" y="471"/>
      <point x="197" y="507"/>
      <point x="194" y="542"/>
      <point x="194" y="559" type="qcurve" smooth="yes"/>
      <point x="194" y="609"/>
      <point x="213" y="685"/>
      <point x="261" y="735"/>
      <point x="344" y="760"/>
      <point x="408" y="760" type="qcurve"/>
      <point x="408" y="686" type="line"/>
      <point x="363" y="686"/>
      <point x="310" y="657"/>
      <point x="286" y="600"/>
      <point x="286" y="559" type="qcurve" smooth="yes"/>
      <point x="286" y="542"/>
      <point x="289" y="507"/>
      <point x="292" y="470"/>
      <point x="292" y="450" type="qcurve" smooth="yes"/>
      <point x="292" y="416"/>
      <point x="280" y="363"/>
      <point x="258" y="320"/>
      <point x="225" y="281"/>
      <point x="204" y="260" type="qcurve"/>
      <point x="232" y="245"/>
      <point x="271" y="184"/>
      <point x="292" y="99"/>
      <point x="292" y="47" type="qcurve" smooth="yes"/>
      <point x="292" y="33"/>
      <point x="289" y="3"/>
      <point x="286" y="-29"/>
      <point x="286" y="-46" type="qcurve" smooth="yes"/>
      <point x="286" y="-84"/>
      <point x="310" y="-138"/>
      <point x="364" y="-166"/>
      <point x="408" y="-166" type="qcurve"/>
      <point x="408" y="-240" type="line"/>
      <point x="342" y="-240"/>
      <point x="259" y="-215"/>
      <point x="212" y="-165"/>
      <point x="194" y="-91"/>
      <point x="194" y="-42" type="qcurve" smooth="yes"/>
      <point x="194" y="-32"/>
      <point x="196" y="-2"/>
      <point x="198" y="30"/>
      <point x="200" y="60"/>
      <point x="200" y="70" type="qcurve" smooth="yes"/>
      <point x="200" y="108"/>
      <point x="180" y="171"/>
      <point x="128" y="215"/>
    </contour>
  </outline>
</glyph>
<glyph name="bar" format="2">
  <advance width="230"/>
  <unicode hex="007C"/>
  <outline>
    <contour>
      <point x="160" y="-258" type="line"/>
      <point x="70" y="-258" type="line"/>
      <point x="70" y="796" type="line"/>
      <point x="160" y="796" type="line"/>
    </contour>
  </outline>
</glyph>
<glyph name="asciitilde" format="2">
  <advance width="633"/>
  <unicode hex="007E"/>
  <outline>
    <contour>
      <point x="583" y="315" type="line"/>
      <point x="576" y="281"/>
      <point x="535" y="228"/>
      <point x="473" y="198"/>
      <point x="434" y="198" type="qcurve" smooth="yes"/>
      <point x="406" y="198"/>
      <point x="351" y="210"/>
      <point x="298" y="226"/>
      <point x="244" y="238"/>
      <point x="217" y="238" type="qcurve" smooth="yes"/>
      <point x="198" y="238"/>
      <point x="164" y="227"/>
      <point x="143" y="207"/>
      <point x="141" y="195" type="qcurve"/>
      <point x="50" y="195" type="line"/>
      <point x="67" y="254"/>
      <point x="151" y="313"/>
      <point x="215" y="313" type="qcurve" smooth="yes"/>
      <point x="241" y="313"/>
      <point x="293" y="301"/>
      <point x="344" y="285"/>
      <point x="395" y="273"/>
      <point x="420" y="273" type="qcurve" smooth="yes"/>
      <point x="434" y="273"/>
      <point x="465" y="282"/>
      <point x="491" y="300"/>
      <point x="495" y="315" type="qcurve"/>
    </contour>
  </outline>
</glyph>
<glyph name="cent" format="2">
  <advance width="558"/>
  <unicode hex="00A2"/>
  <outline>
    <contour>
      <point x="425" y="612" type="line"/>
      <point x="179" y="-139" type="line"/>
      <point x="131" y="-126" type="line"/>
      <point x="376" y="625" type="line"/>
    </contour>
    <contour>
      <point x="65" y="250" type="qcurve" smooth="yes"/>
      <point x="65" y="171"/>
      <point x="125" y="54"/>
      <point x="232" y="-12"/>
      <point x="304" y="-12" type="qcurve" smooth="yes"/>
      <point x="365" y="-12"/>
      <point x="461" y="33"/>
      <point x="520" y="115"/>
      <point x="525" y="169" type="qcurve"/>
      <point x="430" y="169" type="line"/>
      <point x="425" y="117"/>
      <point x="354" y="53"/>
      <point x="303" y="53" type="qcurve" smooth="yes"/>
      <point x="259" y="53"/>
      <point x="195" y="100"/>
      <point x="159" y="188"/>
      <point x="159" y="250" type="qcurve" smooth="yes"/>
      <point x="159" y="296"/>
      <point x="179" y="369"/>
      <point x="217" y="420"/>
      <point x="272" y="447"/>
      <point x="306" y="447" type="qcurve" smooth="yes"/>
      <point x="338" y="447"/>
      <point x="390" y="421"/>
      <point x="422" y="373"/>
      <point x="426" y="341" type="qcurve"/>
      <point x="521" y="341" type="line"/>
      <point x="516" y="392"/>
      <point x="460" y="469"/>
      <point x="367" y="512"/>
      <point x="307" y="512" type="qcurve" smooth="yes"/>
      <point x="235" y="512"/>
      <point x="126" y="446"/>
      <point x="65" y="329"/>
    </contour>
  </outline>
</glyph>
<glyph name="sterling" format="2">
  <advance width="558"/>
  <unicode hex="00A3"/>
  <outline>
    <contour>
      <point x="113" y="49" type="line"/>
      <point x="113" y="539" type="line" smooth="yes"/>
      <point x="113" y="606"/>
      <point x="177" y="693"/>
      <point x="276" y="736"/>
      <point x="328" y="736" type="qcurve" smooth="yes"/>
      <point x="380" y="736"/>
      <point x="479" y="698"/>
      <point x="543" y="628"/>
      <point x="543" y="579" type="qcurve"/>
      <point x="454" y="579" type="line"/>
      <point x="454" y="608"/>
      <point x="416" y="650"/>
      <point x="358" y="672"/>
      <point x="328" y="672" type="qcurve" smooth="yes"/>
      <point x="298" y="672"/>
      <point x="240" y="645"/>
      <point x="202" y="587"/>
      <point x="202" y="539" type="qcurve" smooth="yes"/>
      <point x="202" y="49" type="line"/>
    </contour>
    <contour>
      <point x="523" y="64" type="line"/>
      <point x="523" y="0" type="line"/>
      <point x="44" y="0" type="line"/>
      <point x="44" y="64" type="line"/>
    </contour>
    <contour>
      <point x="44" y="456" type="line"/>
      <point x="367" y="456" type="line"/>
      <point x="367" y="392" type="line"/>
      <point x="44" y="392" type="line"/>
    </contour>
  </outline>
</glyph>
<glyph name="currency" format="2">
  <advance width="619"/>
  <unicode hex="00A4"/>
  <outline>
    <contour>
      <point x="99" y="427" type="qcurve" smooth="yes"/>
      <point x="99" y="488"/>
      <point x="155" y="584"/>
      <point x="251" y="639"/>
      <point x="313" y="639" type="qcurve" smooth="yes"/>
      <point x="356" y="639"/>
      <point x="432" y="607"/>
      <point x="489" y="550"/>
      <point x="521" y="474"/>
      <point x="521" y="431" type="qcurve" smooth="yes"/>
      <point x="521" y="385"/>
      <point x="489" y="307"/>
      <point x="433" y="249"/>
      <point x="357" y="216"/>
      <point x="312" y="216" type="qcurve" smooth="yes"/>
      <point x="267" y="216"/>
      <point x="190" y="248"/>
      <point x="132" y="306"/>
      <point x="99" y="383"/>
    </contour>
    <contour>
      <point x="187" y="427" type="qcurve" smooth="yes"/>
      <point x="187" y="391"/>
      <point x="219" y="335"/>
      <point x="275" y="303"/>
      <point x="312" y="303" type="qcurve" smooth="yes"/>
      <point x="346" y="303"/>
      <point x="401" y="336"/>
      <point x="433" y="392"/>
      <point x="433" y="428" type="qcurve" smooth="yes"/>
      <point x="433" y="463"/>
      <point x="401" y="519"/>
      <point x="346" y="552"/>
      <point x="312" y="552" type="qcurve" smooth="yes"/>
      <point x="275" y="552"/>
      <point x="219" y="520"/>
      <point x="187" y="463"/>
    </contour>
    <contour>
      <point x="193" y="584" type="line"/>
      <point x="158" y="548" type="line"/>
      <point x="40" y="664" type="line"/>
      <point x="76" y="700" type="line"/>
    </contour>
    <contour>
      <point x="465" y="549" type="line"/>
      <point x="428" y="583" type="line"/>
      <point x="544" y="700" type="line"/>
      <point x="580" y="664" type="line"/>
    </contour>
    <contour>
      <point x="430" y="274" type="line"/>
      <point x="466" y="310" type="line"/>
      <point x="580" y="196" type="line"/>
      <point x="543" y="160" type="line"/>
    </contour>
    <contour>
      <point x="156" y="310" type="line"/>
      <point x="191" y="274" type="line"/>
      <point x="76" y="160" type="line"/>
      <point x="40" y="196" type="line"/>
    </contour>
  </outline>
</glyph>
<glyph name="yen" format="2">
  <advance width="558"/>
  <unicode hex="00A5"/>
  <outline>
    <contour>
      <point x="556" y="722" type="line"/>
      <point x="339" y="287" type="line"/>
      <point x="331" y="287" type="line"/>
      <point x="331" y="0" type="line"/>
      <point x="229" y="0" type="line"/>
      <point x="229" y="287" type="line"/>
      <point x="224" y="287" type="line"/>
      <point x="4" y="722" type="line"/>
      <point x="109" y="722" type="line"/>
      <point x="286" y="354" type="line"/>
      <point x="276" y="354" type="line"/>
      <point x="451" y="722" type="line"/>
    </contour>
    <contour>
      <point x="213" y="338" type="line"/>
      <point x="244" y="287" type="line"/>
      <point x="14" y="287" type="line"/>
      <point x="14" y="338" type="line"/>
    </contour>
    <contour>
      <point x="316" y="287" type="line"/>
      <point x="349" y="338" type="line"/>
      <point x="546" y="338" type="line"/>
      <point x="546" y="287" type="line"/>
    </contour>
    <contour>
      <point x="130" y="508" type="line"/>
      <point x="155" y="457" type="line"/>
      <point x="14" y="457" type="line"/>
      <point x="14" y="508" type="line"/>
    </contour>
    <contour>
      <point x="407" y="457" type="line"/>
      <point x="432" y="508" type="line"/>
      <point x="546" y="508" type="line"/>
      <point x="546" y="457" type="line"/>
    </contour>
  </outline>
</glyph>
<glyph name="section" format="2">
  <advance width="467"/>
  <unicode hex="00A7"/>
  <outline>
    <contour>
      <point x="3" y="332" type="qcurve" smooth="yes"/>
      <point x="3" y="375"/>
      <point x="40" y="435"/>
      <point x="118" y="472"/>
      <point x="180" y="480" type="qcurve"/>
      <point x="258" y="425" type="line"/>
      <point x="211" y="430"/>
      <point x="140" y="417"/>
      <point x="102" y="377"/>
      <point x="102" y="342" type="qcurve" smooth="yes"/>
      <point x="102" y="324"/>
      <point x="115" y="303"/>
      <point x="130" y="291" type="qcurve" smooth="yes"/>
      <point x="332" y="136" type="line" smooth="yes"/>
      <point x="367" y="108"/>
      <point x="417" y="43"/>
      <point x="417" y="9" type="qcurve" smooth="yes"/>
      <point x="417" y="-48"/>
      <point x="368" y="-130"/>
      <point x="280" y="-173"/>
      <point x="219" y="-173" type="qcurve" smooth="yes"/>
      <point x="191" y="-173"/>
      <point x="132" y="-164"/>
      <point x="80" y="-148"/>
      <point x="63" y="-139" type="qcurve"/>
      <point x="63" y="-62" type="line"/>
      <point x="93" y="-81"/>
      <point x="157" y="-103"/>
      <point x="194" y="-103" type="qcurve" smooth="yes"/>
      <point x="251" y="-103"/>
      <point x="323" y="-50"/>
      <point x="323" y="-8" type="qcurve" smooth="yes"/>
      <point x="323" y="15"/>
      <point x="291" y="54"/>
      <point x="247" y="88" type="qcurve" smooth="yes"/>
      <point x="68" y="227" type="line" smooth="yes"/>
      <point x="57" y="236"/>
      <point x="26" y="265"/>
      <point x="3" y="306"/>
    </contour>
    <contour>
      <point x="64" y="588" type="qcurve" smooth="yes"/>
      <point x="64" y="632"/>
      <point x="112" y="698"/>
      <point x="195" y="735"/>
      <point x="248" y="735" type="qcurve" smooth="yes"/>
      <point x="285" y="735"/>
      <point x="354" y="716"/>
      <point x="386" y="699" type="qcurve"/>
      <point x="386" y="631" type="line"/>
      <point x="356" y="651"/>
      <point x="290" y="671"/>
      <point x="254" y="671" type="qcurve" smooth="yes"/>
      <point x="232" y="671"/>
      <point x="187" y="647"/>
      <point x="158" y="608"/>
      <point x="158" y="585" type="qcurve" smooth="yes"/>
      <point x="158" y="554"/>
      <point x="210" y="513"/>
      <point x="243" y="488" type="qcurve" smooth="yes"/>
      <point x="366" y="394" type="line" smooth="yes"/>
      <point x="395" y="371"/>
      <point x="438" y="336"/>
      <point x="461" y="297"/>
      <point x="461" y="266" type="qcurve" smooth="yes"/>
      <point x="461" y="210"/>
      <point x="381" y="133"/>
      <point x="304" y="114" type="qcurve"/>
      <point x="219" y="170" type="line"/>
      <point x="241" y="169"/>
      <point x="295" y="175"/>
      <point x="345" y="192"/>
      <point x="378" y="227"/>
      <point x="378" y="255" type="qcurve" smooth="yes"/>
      <point x="378" y="265"/>
      <point x="369" y="289"/>
      <point x="350" y="303" type="qcurve" smooth="yes"/>
      <point x="173" y="429" type="line" smooth="yes"/>
      <point x="150" y="445"/>
      <point x="99" y="490"/>
      <point x="64" y="549"/>
    </contour>
  </outline>
</glyph>
<glyph name="dieresis" format="2">
  <advance width="450"/>
  <unicode hex="00A8"/>
  <outline>
    <contour>
      <point x="170" y="600" type="line"/>
      <point x="80" y="600" type="line"/>
      <point x="80" y="692" type="line"/>
      <point x="170" y="692" type="line"/>
    </contour>
    <contour>
      <point x="370" y="600" type="line"/>
      <point x="280" y="600" type="line"/>
      <point x="280" y="692" type="line"/>
      <point x="370" y="692" type="line"/>
    </contour>
  </outline>
</glyph>
<glyph name="copyright" format="2">
  <advance width="867"/>
  <unicode hex="00A9"/>
  <outline>
    <contour>
      <point x="221" y="356" type="qcurve" smooth="yes"/>
      <point x="221" y="435"/>
      <point x="266" y="540"/>
      <point x="357" y="594"/>
      <point x="425" y="594" type="qcurve" smooth="yes"/>
      <point x="499" y="594"/>
      <point x="584" y="551"/>
      <point x="621" y="482"/>
      <point x="621" y="441" type="qcurve"/>
      <point x="541" y="441" type="line"/>
      <point x="541" y="490"/>
      <point x="480" y="539"/>
      <point x="419" y="539" type="qcurve" smooth="yes"/>
      <point x="388" y="539"/>
      <point x="336" y="503"/>
      <point x="304" y="431"/>
      <point x="304" y="377" type="qcurve" smooth="yes"/>
      <point x="304" y="355" type="line" smooth="yes"/>
      <point x="304" y="312"/>
      <point x="320" y="247"/>
      <point x="352" y="204"/>
      <point x="401" y="183"/>
      <point x="433" y="183" type="qcurve" smooth="yes"/>
      <point x="469" y="183"/>
      <point x="517" y="213"/>
      <point x="543" y="260"/>
      <point x="546" y="284" type="qcurve"/>
      <point x="626" y="284" type="line"/>
      <point x="621" y="233"/>
      <point x="575" y="159"/>
      <point x="493" y="120"/>
      <point x="434" y="120" type="qcurve" smooth="yes"/>
      <point x="362" y="120"/>
      <point x="267" y="176"/>
      <point x="221" y="282"/>
    </contour>
    <contour>
      <point x="59" y="360" type="qcurve" smooth="yes"/>
      <point x="59" y="437"/>
      <point x="117" y="573"/>
      <point x="220" y="676"/>
      <point x="356" y="735"/>
      <point x="433" y="735" type="qcurve" smooth="yes"/>
      <point x="510" y="735"/>
      <point x="646" y="677"/>
      <point x="749" y="574"/>
      <point x="808" y="438"/>
      <point x="808" y="361" type="qcurve" smooth="yes"/>
      <point x="808" y="284"/>
      <point x="749" y="147"/>
      <point x="646" y="43"/>
      <point x="510" y="-16"/>
      <point x="433" y="-16" type="qcurve" smooth="yes"/>
      <point x="355" y="-16"/>
      <point x="220" y="43"/>
      <point x="117" y="146"/>
      <point x="59" y="282"/>
    </contour>
    <contour>
      <point x="109" y="357" type="qcurve" smooth="yes"/>
      <point x="109" y="289"/>
      <point x="160" y="171"/>
      <point x="249" y="82"/>
      <point x="366" y="32"/>
      <point x="432" y="32" type="qcurve" smooth="yes"/>
      <point x="499" y="32"/>
      <point x="616" y="82"/>
      <point x="705" y="171"/>
      <point x="755" y="289"/>
      <point x="755" y="356" type="qcurve" smooth="yes"/>
      <point x="755" y="422"/>
      <point x="704" y="540"/>
      <point x="615" y="630"/>
      <point x="498" y="682"/>
      <point x="432" y="682" type="qcurve" smooth="yes"/>
      <point x="366" y="682"/>
      <point x="249" y="631"/>
      <point x="160" y="540"/>
      <point x="109" y="423"/>
    </contour>
  </outline>
</glyph>
<glyph name="ordfeminine" format="2">
  <advance width="388"/>
  <unicode hex="00AA"/>
  <outline>
    <contour>
      <point x="368" y="243" type="line"/>
      <point x="19" y="243" type="line"/>
      <point x="19" y="280" type="line"/>
      <point x="368" y="280" type="line"/>
    </contour>
    <contour>
      <point x="35" y="450" type="qcurve" smooth="yes"/>
      <point x="35" y="509"/>
      <point x="137" y="568"/>
      <point x="229" y="568" type="qcurve" smooth="yes"/>
      <point x="244" y="568"/>
      <point x="282" y="564"/>
      <point x="289" y="563" type="qcurve"/>
      <point x="302" y="515" type="line"/>
      <point x="276" y="517"/>
      <point x="254" y="520"/>
      <point x="237" y="520" type="qcurve" smooth="yes"/>
      <point x="175" y="520"/>
      <point x="101" y="486"/>
      <point x="101" y="452" type="qcurve" smooth="yes"/>
      <point x="101" y="425"/>
      <point x="141" y="390"/>
      <point x="172" y="390" type="qcurve" smooth="yes"/>
      <point x="206" y="390"/>
      <point x="252" y="413"/>
      <point x="275" y="460"/>
      <point x="275" y="495" type="qcurve" smooth="yes"/>
      <point x="275" y="597" type="line" smooth="yes"/>
      <point x="275" y="629"/>
      <point x="234" y="664"/>
      <point x="197" y="664" type="qcurve" smooth="yes"/>
      <point x="162" y="664"/>
      <point x="121" y="634"/>
      <point x="121" y="608" type="qcurve"/>
      <point x="55" y="608" type="line"/>
      <point x="55" y="660"/>
      <point x="128" y="713"/>
      <point x="198" y="713" type="qcurve" smooth="yes"/>
      <point x="265" y="713"/>
      <point x="338" y="657"/>
      <point x="338" y="605" type="qcurve" smooth="yes"/>
      <point x="338" y="479" type="line" smooth="yes"/>
      <point x="338" y="426"/>
      <point x="345" y="364"/>
      <point x="349" y="351" type="qcurve"/>
      <point x="286" y="351" type="line"/>
      <point x="280" y="377"/>
      <point x="279" y="406"/>
      <point x="276" y="424" type="qcurve"/>
      <point x="286" y="411" type="line"/>
      <point x="253" y="371"/>
      <point x="203" y="341"/>
      <point x="167" y="341" type="qcurve" smooth="yes"/>
      <point x="106" y="341"/>
      <point x="35" y="400"/>
    </contour>
  </outline>
</glyph>
<glyph name="guillemotleft" format="2">
  <advance width="530"/>
  <unicode hex="00AB"/>
  <outline>
    <contour>
      <point x="275" y="57" type="line"/>
      <point x="197" y="57" type="line"/>
      <point x="60" y="252" type="line"/>
      <point x="197" y="447" type="line"/>
      <point x="275" y="447" type="line"/>
      <point x="149" y="242" type="line"/>
      <point x="149" y="262" type="line"/>
    </contour>
    <contour>
      <point x="470" y="57" type="line"/>
      <point x="392" y="57" type="line"/>
      <point x="255" y="252" type="line"/>
      <point x="392" y="447" type="line"/>
      <point x="470" y="447" type="line"/>
      <point x="344" y="242" type="line"/>
      <point x="344" y="262" type="line"/>
    </contour>
  </outline>
</glyph>
<glyph name="uni00AD" format="2">
  <advance width="310"/>
  <unicode hex="00AD"/>
  <outline>
    <contour>
      <point x="270" y="264" type="line"/>
      <point x="40" y="264" type="line"/>
      <point x="40" y="334" type="line"/>
      <point x="270" y="334" type="line"/>
    </contour>
  </outline>
</glyph>
<glyph name="registered" format="2">
  <advance width="867"/>
  <unicode hex="00AE"/>
  <outline>
    <contour>
      <point x="61" y="362" type="qcurve" smooth="yes"/>
      <point x="61" y="441"/>
      <point x="118" y="576"/>
      <point x="219" y="679"/>
      <point x="354" y="736"/>
      <point x="433" y="736" type="qcurve" smooth="yes"/>
      <point x="512" y="736"/>
      <point x="646" y="679"/>
      <point x="747" y="576"/>
      <point x="803" y="441"/>
      <point x="803" y="362" type="qcurve" smooth="yes"/>
      <point x="803" y="283"/>
      <point x="747" y="147"/>
      <point x="646" y="45"/>
      <point x="512" y="-12"/>
      <point x="433" y="-12" type="qcurve" smooth="yes"/>
      <point x="354" y="-12"/>
      <point x="219" y="45"/>
      <point x="118" y="147"/>
      <point x="61" y="283"/>
    </contour>
    <contour>
      <point x="109" y="362" type="qcurve" smooth="yes"/>
      <point x="109" y="295"/>
      <point x="159" y="176"/>
      <point x="248" y="87"/>
      <point x="366" y="36"/>
      <point x="433" y="36" type="qcurve" smooth="yes"/>
      <point x="501" y="36"/>
      <point x="617" y="87"/>
      <point x="706" y="176"/>
      <point x="755" y="295"/>
      <point x="755" y="362" type="qcurve" smooth="yes"/>
      <point x="755" y="429"/>
      <point x="706" y="547"/>
      <point x="617" y="637"/>
      <point x="501" y="688"/>
      <point x="433" y="688" type="qcurve" smooth="yes"/>
      <point x="366" y="688"/>
      <point x="248" y="637"/>
      <point x="159" y="547"/>
      <point x="109" y="429"/>
    </contour>
    <contour>
      <point x="275" y="536" type="line"/>
      <point x="275" y="600" type="line"/>
      <point x="449" y="600" type="line" smooth="yes"/>
      <point x="508" y="600"/>
      <point x="582" y="573"/>
      <point x="617" y="515"/>
      <point x="617" y="469" type="qcurve" smooth="yes"/>
      <point x="617" y="435"/>
      <point x="573" y="382"/>
      <point x="533" y="369" type="qcurve"/>
      <point x="560" y="360"/>
      <point x="589" y="323"/>
      <point x="603" y="274"/>
      <point x="610" y="217"/>
      <point x="620" y="158"/>
      <point x="630" y="130" type="qcurve"/>
      <point x="558" y="130" type="line"/>
      <point x="544" y="172"/>
      <point x="536" y="248"/>
      <point x="522" y="308"/>
      <point x="479" y="342"/>
      <point x="430" y="342" type="qcurve" smooth="yes"/>
      <point x="330" y="342" type="line"/>
      <point x="330" y="401" type="line"/>
      <point x="446" y="401" type="line" smooth="yes"/>
      <point x="477" y="401"/>
      <point x="522" y="412"/>
      <point x="547" y="441"/>
      <point x="547" y="469" type="qcurve" smooth="yes"/>
      <point x="547" y="513"/>
      <point x="493" y="536"/>
      <point x="446" y="536" type="qcurve" smooth="yes"/>
    </contour>
    <contour>
      <point x="275" y="131" type="line"/>
      <point x="275" y="600" type="line"/>
      <point x="345" y="600" type="line"/>
      <point x="345" y="131" type="line"/>
    </contour>
  </outline>
</glyph>
<glyph name="macron" format="2">
  <advance width="290"/>
  <unicode hex="00AF"/>
  <outline>
    <contour>
      <point x="290" y="600" type="line"/>
      <point x="0" y="600" type="line"/>
      <point x="0" y="670" type="line"/>
      <point x="290" y="670" type="line"/>
    </contour>
  </outline>
</glyph>
<glyph name="degree" format="2">
  <advance width="321"/>
  <unicode hex="00B0"/>
  <outline>
    <contour>
      <point x="161" y="720" type="qcurve" smooth="yes"/>
      <point x="191" y="720"/>
      <point x="241" y="690"/>
      <point x="271" y="641"/>
      <point x="271" y="610" type="qcurve" smooth="yes"/>
      <point x="271" y="580"/>
      <point x="241" y="530"/>
      <point x="191" y="500"/>
      <point x="161" y="500" type="qcurve" smooth="yes"/>
      <point x="130" y="500"/>
      <point x="80" y="530"/>
      <point x="51" y="580"/>
      <point x="51" y="610" type="qcurve" smooth="yes"/>
      <point x="51" y="641"/>
      <point x="80" y="690"/>
      <point x="130" y="720"/>
    </contour>
    <contour>
      <point x="161" y="540" type="qcurve" smooth="yes"/>
      <point x="190" y="540"/>
      <point x="231" y="581"/>
      <point x="231" y="610" type="qcurve" smooth="yes"/>
      <point x="231" y="639"/>
      <point x="190" y="680"/>
      <point x="161" y="680" type="qcurve" smooth="yes"/>
      <point x="131" y="680"/>
      <point x="90" y="639"/>
      <point x="90" y="610" type="qcurve" smooth="yes"/>
      <point x="90" y="581"/>
      <point x="131" y="540"/>
    </contour>
  </outline>
</glyph>
<glyph name="twosuperior" format="2">
  <advance width="353"/>
  <unicode hex="00B2"/>
  <outline>
    <contour>
      <point x="28" y="407" type="line"/>
      <point x="80" y="446" type="line" smooth="yes"/>
      <point x="136" y="488"/>
      <point x="201" y="541"/>
      <point x="233" y="575"/>
      <point x="243" y="600"/>
      <point x="243" y="613" type="qcurve" smooth="yes"/>
      <point x="243" y="645"/>
      <point x="211" y="675"/>
      <point x="179" y="675" type="qcurve" smooth="yes"/>
      <point x="147" y="675"/>
      <point x="115" y="645"/>
      <point x="111" y="615" type="qcurve"/>
      <point x="37" y="615" type="line"/>
      <point x="39" y="650"/>
      <point x="75" y="703"/>
      <point x="135" y="734"/>
      <point x="172" y="734" type="qcurve" smooth="yes"/>
      <point x="215" y="734"/>
      <point x="279" y="709"/>
      <point x="315" y="655"/>
      <point x="315" y="612" type="qcurve" smooth="yes"/>
      <point x="315" y="595"/>
      <point x="305" y="566"/>
      <point x="272" y="526"/>
      <point x="203" y="467"/>
      <point x="144" y="421" type="qcurve" smooth="yes"/>
      <point x="110" y="394" type="line"/>
      <point x="107" y="401" type="line"/>
      <point x="321" y="401" type="line"/>
      <point x="321" y="342" type="line"/>
      <point x="28" y="342" type="line"/>
    </contour>
  </outline>
</glyph>
<glyph name="threesuperior" format="2">
  <advance width="371"/>
  <unicode hex="00B3"/>
  <outline>
    <contour>
      <point x="31" y="452" type="qcurve"/>
      <point x="97" y="452" type="line"/>
      <point x="101" y="418"/>
      <point x="141" y="390"/>
      <point x="179" y="390" type="qcurve" smooth="yes"/>
      <point x="225" y="390"/>
      <point x="276" y="423"/>
      <point x="276" y="449" type="qcurve" smooth="yes"/>
      <point x="276" y="467"/>
      <point x="252" y="494"/>
      <point x="206" y="510"/>
      <point x="171" y="510" type="qcurve" smooth="yes"/>
      <point x="154" y="510" type="line"/>
      <point x="154" y="563" type="line"/>
      <point x="174" y="563" type="line" smooth="yes"/>
      <point x="215" y="563"/>
      <point x="252" y="595"/>
      <point x="252" y="620" type="qcurve" smooth="yes"/>
      <point x="252" y="647"/>
      <point x="215" y="677"/>
      <point x="182" y="677" type="qcurve" smooth="yes"/>
      <point x="151" y="677"/>
      <point x="114" y="652"/>
      <point x="110" y="624" type="qcurve"/>
      <point x="46" y="624" type="line"/>
      <point x="46" y="672"/>
      <point x="127" y="734"/>
      <point x="194" y="734" type="qcurve" smooth="yes"/>
      <point x="255" y="734"/>
      <point x="327" y="676"/>
      <point x="327" y="626" type="qcurve" smooth="yes"/>
      <point x="327" y="590"/>
      <point x="288" y="544"/>
      <point x="249" y="539" type="qcurve"/>
      <point x="249" y="543" type="line"/>
      <point x="294" y="536"/>
      <point x="344" y="485"/>
      <point x="344" y="447" type="qcurve" smooth="yes"/>
      <point x="344" y="396"/>
      <point x="255" y="331"/>
      <point x="178" y="331" type="qcurve" smooth="yes"/>
      <point x="108" y="331"/>
      <point x="34" y="390"/>
    </contour>
  </outline>
</glyph>
<glyph name="acute" format="2">
  <advance width="260"/>
  <unicode hex="00B4"/>
  <outline>
    <contour>
      <point x="30" y="580" type="line"/>
      <point x="130" y="730" type="line"/>
      <point x="230" y="730" type="line"/>
      <point x="100" y="580" type="line"/>
    </contour>
  </outline>
</glyph>
<glyph name="paragraph" format="2">
  <advance width="559"/>
  <unicode hex="00B6"/>
  <outline>
    <contour>
      <point x="500" y="683" type="line"/>
      <point x="439" y="683" type="line"/>
      <point x="439" y="-160" type="line"/>
      <point x="389" y="-160" type="line"/>
      <point x="389" y="683" type="line"/>
      <point x="299" y="683" type="line"/>
      <point x="299" y="-160" type="line"/>
      <point x="249" y="-160" type="line"/>
      <point x="249" y="352" type="line"/>
      <point x="199" y="352"/>
      <point x="107" y="388"/>
      <point x="50" y="462"/>
      <point x="50" y="521" type="qcurve" smooth="yes"/>
      <point x="50" y="568"/>
      <point x="88" y="643"/>
      <point x="148" y="695"/>
      <point x="218" y="722"/>
      <point x="250" y="722" type="qcurve" smooth="yes"/>
      <point x="500" y="722" type="line"/>
    </contour>
  </outline>
</glyph>
<glyph name="periodcentered" format="2">
  <advance width="208"/>
  <unicode hex="00B7"/>
  <outline>
    <contour>
      <point x="158" y="278" type="line"/>
      <point x="50" y="278" type="line"/>
      <point x="50" y="401" type="line"/>
      <point x="158" y="401" type="line"/>
    </contour>
  </outline>
</glyph>
<glyph name="cedilla" format="2">
  <advance width="287"/>
  <unicode hex="00B8"/>
  <outline>
    <contour>
      <point x="68" y="-104" type="line"/>
      <point x="106" y="10" type="line"/>
      <point x="145" y="10" type="line"/>
      <point x="116" y="-74" type="line"/>
      <point x="111" y="-70" type="line"/>
      <point x="121" y="-63"/>
      <point x="148" y="-54"/>
      <point x="166" y="-54" type="qcurve" smooth="yes"/>
      <point x="202" y="-54"/>
      <point x="247" y="-93"/>
      <point x="247" y="-125" type="qcurve" smooth="yes"/>
      <point x="247" y="-163"/>
      <point x="188" y="-210"/>
      <point x="139" y="-210" type="qcurve" smooth="yes"/>
      <point x="116" y="-210"/>
      <point x="61" y="-197"/>
      <point x="40" y="-188" type="qcurve"/>
      <point x="50" y="-158" type="line"/>
      <point x="68" y="-167"/>
      <point x="111" y="-177"/>
      <point x="126" y="-177" type="qcurve" smooth="yes"/>
      <point x="150" y="-177"/>
      <point x="182" y="-156"/>
      <point x="182" y="-138" type="qcurve" smooth="yes"/>
      <point x="182" y="-123"/>
      <point x="155" y="-100"/>
      <point x="139" y="-100" type="qcurve" smooth="yes"/>
      <point x="126" y="-100"/>
      <point x="103" y="-108"/>
      <point x="95" y="-114" type="qcurve"/>
    </contour>
  </outline>
</glyph>
<glyph name="onesuperior" format="2">
  <advance width="290"/>
  <unicode hex="00B9"/>
  <outline>
    <contour>
      <point x="217" y="343" type="line"/>
      <point x="153" y="343" type="line"/>
      <point x="153" y="658" type="line"/>
      <point x="128" y="639"/>
      <point x="78" y="615"/>
      <point x="56" y="610" type="qcurve"/>
      <point x="56" y="665" type="line"/>
      <point x="67" y="669"/>
      <point x="101" y="686"/>
      <point x="132" y="704"/>
      <point x="140" y="711" type="qcurve" smooth="yes"/>
      <point x="153" y="722" type="line"/>
      <point x="217" y="722" type="line"/>
    </contour>
  </outline>
</glyph>
<glyph name="ordmasculine" format="2">
  <advance width="418"/>
  <unicode hex="00BA"/>
  <outline>
    <contour>
      <point x="35" y="525" type="qcurve" smooth="yes"/>
      <point x="35" y="609"/>
      <point x="127" y="710"/>
      <point x="207" y="710" type="qcurve" smooth="yes"/>
      <point x="287" y="710"/>
      <point x="379" y="610"/>
      <point x="379" y="526" type="qcurve" smooth="yes"/>
      <point x="379" y="442"/>
      <point x="287" y="341"/>
      <point x="207" y="341" type="qcurve" smooth="yes"/>
      <point x="127" y="341"/>
      <point x="35" y="442"/>
    </contour>
    <contour>
      <point x="100" y="525" type="qcurve" smooth="yes"/>
      <point x="100" y="489"/>
      <point x="123" y="426"/>
      <point x="171" y="386"/>
      <point x="207" y="386" type="qcurve" smooth="yes"/>
      <point x="243" y="386"/>
      <point x="290" y="426"/>
      <point x="312" y="489"/>
      <point x="312" y="525" type="qcurve" smooth="yes"/>
      <point x="312" y="561"/>
      <point x="289" y="624"/>
      <point x="242" y="664"/>
      <point x="206" y="664" type="qcurve" smooth="yes"/>
      <point x="171" y="664"/>
      <point x="123" y="624"/>
      <point x="100" y="561"/>
    </contour>
    <contour>
      <point x="33" y="242" type="line"/>
      <point x="33" y="279" type="line"/>
      <point x="386" y="279" type="line"/>
      <point x="386" y="242" type="line"/>
    </contour>
  </outline>
</glyph>
<glyph name="guillemotright" format="2">
  <advance width="530"/>
  <unicode hex="00BB"/>
  <outline>
    <contour>
      <point x="60" y="57" type="line"/>
      <point x="186" y="262" type="line"/>
      <point x="186" y="242" type="line"/>
      <point x="60" y="447" type="line"/>
      <point x="138" y="447" type="line"/>
      <point x="275" y="252" type="line"/>
      <point x="138" y="57" type="line"/>
    </contour>
    <contour>
      <point x="255" y="57" type="line"/>
      <point x="381" y="262" type="line"/>
      <point x="381" y="242" type="line"/>
      <point x="255" y="447" type="line"/>
      <point x="333" y="447" type="line"/>
      <point x="470" y="252" type="line"/>
      <point x="333" y="57" type="line"/>
    </contour>
  </outline>
</glyph>
<glyph name="onequarter" format="2">
  <advance width="799"/>
  <unicode hex="00BC"/>
  <outline>
    <contour>
      <point x="617" y="736" type="line"/>
      <point x="191" y="-14" type="line"/>
      <point x="122" y="-14" type="line"/>
      <point x="548" y="736" type="line"/>
    </contour>
    <contour>
      <point x="471" y="139" type="line"/>
      <point x="466" y="149" type="line"/>
      <point x="744" y="149" type="line"/>
      <point x="744" y="95" type="line"/>
      <point x="419" y="95" type="line"/>
      <point x="419" y="148" type="line"/>
      <point x="593" y="390" type="line"/>
      <point x="663" y="390" type="line"/>
      <point x="663" y="0" type="line"/>
      <point x="599" y="0" type="line"/>
      <point x="599" y="326" type="line"/>
      <point x="606" y="324" type="line"/>
    </contour>
    <contour>
      <point x="217" y="343" type="line"/>
      <point x="153" y="343" type="line"/>
      <point x="153" y="658" type="line"/>
      <point x="128" y="639"/>
      <point x="78" y="615"/>
      <point x="56" y="610" type="qcurve"/>
      <point x="56" y="665" type="line"/>
      <point x="67" y="669"/>
      <point x="101" y="686"/>
      <point x="132" y="704"/>
      <point x="140" y="711" type="qcurve" smooth="yes"/>
      <point x="153" y="722" type="line"/>
      <point x="217" y="722" type="line"/>
    </contour>
  </outline>
</glyph>
<glyph name="onehalf" format="2">
  <advance width="799"/>
  <unicode hex="00BD"/>
  <outline>
    <contour>
      <point x="612" y="736" type="line"/>
      <point x="186" y="-14" type="line"/>
      <point x="117" y="-14" type="line"/>
      <point x="543" y="736" type="line"/>
    </contour>
    <contour>
      <point x="217" y="343" type="line"/>
      <point x="153" y="343" type="line"/>
      <point x="153" y="658" type="line"/>
      <point x="128" y="639"/>
      <point x="78" y="615"/>
      <point x="56" y="610" type="qcurve"/>
      <point x="56" y="665" type="line"/>
      <point x="67" y="669"/>
      <point x="101" y="686"/>
      <point x="132" y="704"/>
      <point x="140" y="711" type="qcurve" smooth="yes"/>
      <point x="153" y="722" type="line"/>
      <point x="217" y="722" type="line"/>
    </contour>
    <contour>
      <point x="453" y="66" type="line"/>
      <point x="505" y="105" type="line" smooth="yes"/>
      <point x="561" y="146"/>
      <point x="626" y="200"/>
      <point x="658" y="234"/>
      <point x="668" y="259"/>
      <point x="668" y="272" type="qcurve" smooth="yes"/>
      <point x="668" y="304"/>
      <point x="636" y="334"/>
      <point x="604" y="334" type="qcurve" smooth="yes"/>
      <point x="572" y="334"/>
      <point x="540" y="304"/>
      <point x="536" y="274" type="qcurve"/>
      <point x="462" y="274" type="line"/>
      <point x="464" y="308"/>
      <point x="500" y="362"/>
      <point x="560" y="393"/>
      <point x="597" y="393" type="qcurve" smooth="yes"/>
      <point x="640" y="393"/>
      <point x="704" y="368"/>
      <point x="740" y="314"/>
      <point x="740" y="271" type="qcurve" smooth="yes"/>
      <point x="740" y="254"/>
      <point x="730" y="224"/>
      <point x="697" y="185"/>
      <point x="628" y="126"/>
      <point x="569" y="80" type="qcurve" smooth="yes"/>
      <point x="535" y="52" type="line"/>
      <point x="532" y="60" type="line"/>
      <point x="746" y="60" type="line"/>
      <point x="746" y="1" type="line"/>
      <point x="453" y="1" type="line"/>
    </contour>
  </outline>
</glyph>
<glyph name="threequarters" format="2">
  <advance width="799"/>
  <unicode hex="00BE"/>
  <outline>
    <contour>
      <point x="31" y="452" type="qcurve"/>
      <point x="97" y="452" type="line"/>
      <point x="101" y="418"/>
      <point x="141" y="390"/>
      <point x="179" y="390" type="qcurve" smooth="yes"/>
      <point x="225" y="390"/>
      <point x="276" y="423"/>
      <point x="276" y="449" type="qcurve" smooth="yes"/>
      <point x="276" y="467"/>
      <point x="252" y="494"/>
      <point x="206" y="510"/>
      <point x="171" y="510" type="qcurve" smooth="yes"/>
      <point x="154" y="510" type="line"/>
      <point x="154" y="563" type="line"/>
      <point x="174" y="563" type="line" smooth="yes"/>
      <point x="215" y="563"/>
      <point x="252" y="595"/>
      <point x="252" y="620" type="qcurve" smooth="yes"/>
      <point x="252" y="647"/>
      <point x="215" y="677"/>
      <point x="182" y="677" type="qcurve" smooth="yes"/>
      <point x="151" y="677"/>
      <point x="114" y="652"/>
      <point x="110" y="624" type="qcurve"/>
      <point x="46" y="624" type="line"/>
      <point x="46" y="672"/>
      <point x="127" y="734"/>
      <point x="194" y="734" type="qcurve" smooth="yes"/>
      <point x="255" y="734"/>
      <point x="327" y="676"/>
      <point x="327" y="626" type="qcurve" smooth="yes"/>
      <point x="327" y="590"/>
      <point x="288" y="544"/>
      <point x="249" y="539" type="qcurve"/>
      <point x="249" y="543" type="line"/>
      <point x="294" y="536"/>
      <point x="344" y="485"/>
      <point x="344" y="447" type="qcurve" smooth="yes"/>
      <point x="344" y="396"/>
      <point x="255" y="331"/>
      <point x="178" y="331" type="qcurve" smooth="yes"/>
      <point x="108" y="331"/>
      <point x="34" y="390"/>
    </contour>
    <contour>
      <point x="661" y="736" type="line"/>
      <point x="235" y="-14" type="line"/>
      <point x="166" y="-14" type="line"/>
      <point x="592" y="736" type="line"/>
    </contour>
    <contour>
      <point x="471" y="139" type="line"/>
      <point x="466" y="149" type="line"/>
      <point x="744" y="149" type="line"/>
      <point x="744" y="95" type="line"/>
      <point x="419" y="95" type="line"/>
      <point x="419" y="148" type="line"/>
      <point x="593" y="390" type="line"/>
      <point x="663" y="390" type="line"/>
      <point x="663" y="0" type="line"/>
      <point x="599" y="0" type="line"/>
      <point x="599" y="326" type="line"/>
      <point x="606" y="324" type="line"/>
    </contour>
  </outline>
</glyph>
<glyph name="AE" format="2">
  <advance width="981"/>
  <unicode hex="00C6"/>
  <outline>
    <contour>
      <point x="20" y="0" type="line"/>
      <point x="403" y="722" type="line"/>
      <point x="475" y="722" type="line"/>
      <point x="475" y="645" type="line"/>
      <point x="126" y="0" type="line"/>
    </contour>
    <contour>
      <point x="189" y="193" type="line"/>
      <point x="234" y="280" type="line"/>
      <point x="520" y="280" type="line"/>
      <point x="520" y="193" type="line"/>
    </contour>
    <contour>
      <point x="564" y="0" type="line"/>
      <point x="564" y="87" type="line"/>
      <point x="921" y="87" type="line"/>
      <point x="921" y="0" type="line"/>
    </contour>
    <contour>
      <point x="564" y="326" type="line"/>
      <point x="564" y="413" type="line"/>
      <point x="901" y="413" type="line"/>
      <point x="901" y="326" type="line"/>
    </contour>
    <contour>
      <point x="564" y="635" type="line"/>
      <point x="564" y="722" type="line"/>
      <point x="901" y="722" type="line"/>
      <point x="901" y="635" type="line"/>
    </contour>
    <contour>
      <point x="475" y="0" type="line"/>
      <point x="475" y="722" type="line"/>
      <point x="575" y="722" type="line"/>
      <point x="575" y="0" type="line"/>
    </contour>
  </outline>
</glyph>
<glyph name="Eth" format="2">
  <advance width="719"/>
  <unicode hex="00D0"/>
  <outline>
    <contour>
      <point x="0" y="403" type="line"/>
      <point x="351" y="403" type="line"/>
      <point x="351" y="320" type="line"/>
      <point x="0" y="320" type="line"/>
    </contour>
    <contour>
      <point x="123" y="0" type="line"/>
      <point x="123" y="87" type="line"/>
      <point x="346" y="87" type="line" smooth="yes"/>
      <point x="411" y="87"/>
      <point x="505" y="154"/>
      <point x="557" y="278"/>
      <point x="557" y="363" type="qcurve" smooth="yes"/>
      <point x="557" y="446"/>
      <point x="505" y="569"/>
      <point x="411" y="635"/>
      <point x="346" y="635" type="qcurve" smooth="yes"/>
      <point x="123" y="635" type="line"/>
      <point x="123" y="722" type="line"/>
      <point x="344" y="722" type="line" smooth="yes"/>
      <point x="445" y="722"/>
      <point x="586" y="639"/>
      <point x="660" y="480"/>
      <point x="660" y="366" type="qcurve" smooth="yes"/>
      <point x="660" y="249"/>
      <point x="586" y="86"/>
      <point x="445" y="0"/>
      <point x="344" y="0" type="qcurve" smooth="yes"/>
    </contour>
    <contour>
      <point x="80" y="0" type="line"/>
      <point x="80" y="722" type="line"/>
      <point x="180" y="722" type="line"/>
      <point x="180" y="0" type="line"/>
    </contour>
  </outline>
</glyph>
<glyph name="multiply" format="2">
  <advance width="640"/>
  <unicode hex="00D7"/>
  <outline>
    <contour>
      <point x="50" y="69" type="line"/>
      <point x="551" y="570" type="line"/>
      <point x="590" y="531" type="line"/>
      <point x="89" y="30" type="line"/>
    </contour>
    <contour>
      <point x="551" y="30" type="line"/>
      <point x="50" y="531" type="line"/>
      <point x="89" y="570" type="line"/>
      <point x="590" y="69" type="line"/>
    </contour>
  </outline>
</glyph>
<glyph name="Oslash" format="2">
  <advance width="756"/>
  <unicode hex="00D8"/>
  <outline>
    <contour>
      <point x="185" y="-12" type="line"/>
      <point x="77" y="-12" type="line"/>
      <point x="576" y="734" type="line"/>
      <point x="684" y="734" type="line"/>
    </contour>
    <contour>
      <point x="50" y="361" type="qcurve" smooth="yes"/>
      <point x="50" y="477"/>
      <point x="129" y="645"/>
      <point x="276" y="734"/>
      <point x="378" y="734" type="qcurve" smooth="yes"/>
      <point x="480" y="734"/>
      <point x="627" y="645"/>
      <point x="706" y="477"/>
      <point x="706" y="361" type="qcurve" smooth="yes"/>
      <point x="706" y="245"/>
      <point x="627" y="77"/>
      <point x="480" y="-12"/>
      <point x="378" y="-12" type="qcurve" smooth="yes"/>
      <point x="276" y="-12"/>
      <point x="129" y="77"/>
      <point x="50" y="245"/>
    </contour>
    <contour>
      <point x="153" y="361" type="qcurve" smooth="yes"/>
      <point x="153" y="218"/>
      <point x="265" y="76"/>
      <point x="378" y="76" type="qcurve" smooth="yes"/>
      <point x="491" y="76"/>
      <point x="603" y="218"/>
      <point x="603" y="361" type="qcurve" smooth="yes"/>
      <point x="603" y="504"/>
      <point x="491" y="646"/>
      <point x="378" y="646" type="qcurve" smooth="yes"/>
      <point x="265" y="646"/>
      <point x="153" y="504"/>
    </contour>
  </outline>
</glyph>
<glyph name="Thorn" format="2">
  <advance width="603"/>
  <unicode hex="00DE"/>
  <outline>
    <contour>
      <point x="156" y="172" type="line"/>
      <point x="156" y="260" type="line"/>
      <point x="277" y="260" type="line" smooth="yes"/>
      <point x="332" y="260"/>
      <point x="412" y="278"/>
      <point x="456" y="330"/>
      <point x="456" y="379" type="qcurve" smooth="yes"/>
      <point x="456" y="429"/>
      <point x="412" y="481"/>
      <point x="331" y="501"/>
      <point x="277" y="501" type="qcurve" smooth="yes"/>
      <point x="156" y="501" type="line"/>
      <point x="156" y="588" type="line"/>
      <point x="274" y="588" type="line" smooth="yes"/>
      <point x="354" y="588"/>
      <point x="480" y="555"/>
      <point x="553" y="466"/>
      <point x="553" y="380" type="qcurve" smooth="yes"/>
      <point x="553" y="298"/>
      <point x="482" y="207"/>
      <point x="357" y="172"/>
      <point x="274" y="172" type="qcurve" smooth="yes"/>
    </contour>
    <contour>
      <point x="70" y="0" type="line"/>
      <point x="70" y="723" type="line"/>
      <point x="171" y="723" type="line"/>
      <point x="171" y="0" type="line"/>
    </contour>
  </outline>
</glyph>
<glyph name="germandbls" format="2">
  <advance width="627"/>
  <unicode hex="00DF"/>
  <outline>
    <contour>
      <point x="70" y="0" type="line"/>
      <point x="70" y="539" type="line" smooth="yes"/>
      <point x="70" y="627"/>
      <point x="189" y="733"/>
      <point x="289" y="733" type="qcurve" smooth="yes"/>
      <point x="339" y="733"/>
      <point x="416" y="713"/>
      <point x="469" y="675"/>
      <point x="496" y="617"/>
      <point x="496" y="579" type="qcurve" smooth="yes"/>
      <point x="496" y="541"/>
      <point x="471" y="491"/>
      <point x="433" y="458"/>
      <point x="395" y="433"/>
      <point x="370" y="407"/>
      <point x="370" y="389" type="qcurve" smooth="yes"/>
      <point x="370" y="367"/>
      <point x="412" y="337"/>
      <point x="473" y="307"/>
      <point x="535" y="265"/>
      <point x="577" y="199"/>
      <point x="577" y="148" type="qcurve" smooth="yes"/>
      <point x="577" y="71"/>
      <point x="487" y="-14"/>
      <point x="405" y="-14" type="qcurve" smooth="yes"/>
      <point x="324" y="-14"/>
      <point x="227" y="69"/>
      <point x="227" y="139" type="qcurve"/>
      <point x="321" y="139" type="line"/>
      <point x="321" y="95"/>
      <point x="371" y="51"/>
      <point x="422" y="51" type="qcurve" smooth="yes"/>
      <point x="451" y="51"/>
      <point x="487" y="98"/>
      <point x="487" y="136" type="qcurve" smooth="yes"/>
      <point x="487" y="169"/>
      <point x="456" y="213"/>
      <point x="407" y="245"/>
      <point x="353" y="272"/>
      <point x="304" y="303"/>
      <point x="273" y="346"/>
      <point x="273" y="378" type="qcurve" smooth="yes"/>
      <point x="273" y="412"/>
      <point x="299" y="455"/>
      <point x="337" y="484"/>
      <point x="375" y="510"/>
      <point x="401" y="544"/>
      <point x="401" y="570" type="qcurve" smooth="yes"/>
      <point x="401" y="612"/>
      <point x="342" y="659"/>
      <point x="289" y="659" type="qcurve" smooth="yes"/>
      <point x="225" y="659"/>
      <point x="160" y="587"/>
      <point x="160" y="517" type="qcurve" smooth="yes"/>
      <point x="160" y="0" type="line"/>
    </contour>
  </outline>
</glyph>
<glyph name="ae" format="2">
  <advance width="905"/>
  <unicode hex="00E6"/>
  <outline>
    <contour>
      <point x="39" y="144" type="qcurve" smooth="yes"/>
      <point x="39" y="195"/>
      <point x="93" y="268"/>
      <point x="200" y="307"/>
      <point x="281" y="307" type="qcurve" smooth="yes"/>
      <point x="298" y="307"/>
      <point x="342" y="305"/>
      <point x="384" y="303"/>
      <point x="417" y="301"/>
      <point x="424" y="300" type="qcurve"/>
      <point x="424" y="242" type="line"/>
      <point x="409" y="243"/>
      <point x="374" y="245"/>
      <point x="333" y="247"/>
      <point x="307" y="247" type="qcurve" smooth="yes"/>
      <point x="281" y="247"/>
      <point x="221" y="238"/>
      <point x="167" y="215"/>
      <point x="133" y="174"/>
      <point x="133" y="143" type="qcurve" smooth="yes"/>
      <point x="133" y="98"/>
      <point x="201" y="51"/>
      <point x="244" y="51" type="qcurve" smooth="yes"/>
      <point x="292" y="51"/>
      <point x="365" y="104"/>
      <point x="405" y="195"/>
      <point x="405" y="251" type="qcurve" smooth="yes"/>
      <point x="405" y="292" type="line" smooth="yes"/>
      <point x="405" y="364"/>
      <point x="323" y="447"/>
      <point x="260" y="447" type="qcurve" smooth="yes"/>
      <point x="214" y="447"/>
      <point x="160" y="403"/>
      <point x="160" y="365" type="qcurve"/>
      <point x="66" y="365" type="line"/>
      <point x="66" y="406"/>
      <point x="113" y="473"/>
      <point x="198" y="512"/>
      <point x="257" y="512" type="qcurve" smooth="yes"/>
      <point x="311" y="512"/>
      <point x="398" y="477"/>
      <point x="456" y="415"/>
      <point x="466" y="374" type="qcurve"/>
      <point x="444" y="374" type="line"/>
      <point x="457" y="415"/>
      <point x="519" y="477"/>
      <point x="605" y="511"/>
      <point x="654" y="511" type="qcurve" smooth="yes"/>
      <point x="718" y="511"/>
      <point x="813" y="453"/>
      <point x="866" y="349"/>
      <point x="866" y="280" type="qcurve" smooth="yes"/>
      <point x="866" y="238" type="line"/>
      <point x="478" y="238" type="line"/>
      <point x="478" y="303" type="line"/>
      <point x="772" y="303" type="line"/>
      <point x="766" y="369"/>
      <point x="695" y="447"/>
      <point x="642" y="447" type="qcurve" smooth="yes"/>
      <point x="579" y="447"/>
      <point x="500" y="340"/>
      <point x="500" y="253" type="qcurve" smooth="yes"/>
      <point x="500" y="218"/>
      <point x="515" y="147"/>
      <point x="549" y="88"/>
      <point x="604" y="51"/>
      <point x="644" y="51" type="qcurve" smooth="yes"/>
      <point x="691" y="51"/>
      <point x="752" y="105"/>
      <point x="763" y="157" type="qcurve"/>
      <point x="858" y="157" type="line"/>
      <point x="852" y="106"/>
      <point x="800" y="29"/>
      <point x="713" y="-14"/>
      <point x="655" y="-14" type="qcurve" smooth="yes"/>
      <point x="593" y="-14"/>
      <point x="496" y="32"/>
      <point x="436" y="116"/>
      <point x="429" y="171" type="qcurve"/>
      <point x="480" y="171" type="line"/>
      <point x="460" y="116"/>
      <point x="384" y="32"/>
      <point x="282" y="-14"/>
      <point x="223" y="-14" type="qcurve" smooth="yes"/>
      <point x="173" y="-14"/>
      <point x="90" y="20"/>
      <point x="39" y="90"/>
    </contour>
  </outline>
</glyph>
<glyph name="eth" format="2">
  <advance width="587"/>
  <unicode hex="00F0"/>
  <outline>
    <contour>
      <point x="48" y="254" type="qcurve" smooth="yes"/>
      <point x="48" y="330"/>
      <point x="98" y="447"/>
      <point x="206" y="513"/>
      <point x="292" y="513" type="qcurve" smooth="yes"/>
      <point x="304" y="513"/>
      <point x="335" y="510"/>
      <point x="362" y="506"/>
      <point x="365" y="503" type="qcurve"/>
      <point x="363" y="499" type="line"/>
      <point x="354" y="520"/>
      <point x="290" y="579"/>
      <point x="205" y="641"/>
      <point x="120" y="692"/>
      <point x="89" y="705" type="qcurve"/>
      <point x="139" y="734" type="line"/>
      <point x="266" y="686"/>
      <point x="445" y="541"/>
      <point x="538" y="358"/>
      <point x="538" y="254" type="qcurve" smooth="yes"/>
      <point x="538" y="169"/>
      <point x="478" y="50"/>
      <point x="366" y="-13"/>
      <point x="289" y="-13" type="qcurve" smooth="yes"/>
      <point x="171" y="-13"/>
      <point x="48" y="131"/>
    </contour>
    <contour>
      <point x="140" y="244" type="qcurve" smooth="yes"/>
      <point x="140" y="193"/>
      <point x="172" y="108"/>
      <point x="240" y="56"/>
      <point x="292" y="56" type="qcurve" smooth="yes"/>
      <point x="336" y="56"/>
      <point x="394" y="92"/>
      <point x="429" y="151"/>
      <point x="444" y="220"/>
      <point x="444" y="254" type="qcurve" smooth="yes"/>
      <point x="444" y="308"/>
      <point x="411" y="394"/>
      <point x="345" y="445"/>
      <point x="297" y="445" type="qcurve" smooth="yes"/>
      <point x="245" y="445"/>
      <point x="176" y="389"/>
      <point x="140" y="298"/>
    </contour>
    <contour>
      <point x="67" y="566" type="line"/>
      <point x="435" y="732" type="line"/>
      <point x="456" y="691" type="line"/>
      <point x="86" y="523" type="line"/>
    </contour>
  </outline>
</glyph>
<glyph name="divide" format="2">
  <advance width="1000"/>
  <unicode hex="00F7"/>
  <outline>
    <contour>
      <point x="800" y="265" type="line"/>
      <point x="200" y="265" type="line"/>
      <point x="200" y="335" type="line"/>
      <point x="800" y="335" type="line"/>
    </contour>
    <contour>
      <point x="446" y="78" type="line"/>
      <point x="446" y="201" type="line"/>
      <point x="554" y="201" type="line"/>
      <point x="554" y="78" type="line"/>
    </contour>
    <contour>
      <point x="446" y="399" type="line"/>
      <point x="446" y="522" type="line"/>
      <point x="554" y="522" type="line"/>
      <point x="554" y="399" type="line"/>
    </contour>
  </outline>
</glyph>
<glyph name="oslash" format="2">
  <advance width="591"/>
  <unicode hex="00F8"/>
  <outline>
    <contour>
      <point x="133" y="-12" type="line"/>
      <point x="55" y="-12" type="line"/>
      <point x="440" y="512" type="line"/>
      <point x="519" y="512" type="line"/>
    </contour>
    <contour>
      <point x="46" y="250" type="qcurve" smooth="yes"/>
      <point x="46" y="331"/>
      <point x="107" y="448"/>
      <point x="220" y="512"/>
      <point x="297" y="512" type="qcurve" smooth="yes"/>
      <point x="374" y="512"/>
      <point x="486" y="448"/>
      <point x="546" y="331"/>
      <point x="546" y="250" type="qcurve" smooth="yes"/>
      <point x="546" y="170"/>
      <point x="486" y="52"/>
      <point x="374" y="-12"/>
      <point x="297" y="-12" type="qcurve" smooth="yes"/>
      <point x="220" y="-12"/>
      <point x="107" y="52"/>
      <point x="46" y="170"/>
    </contour>
    <contour>
      <point x="140" y="250" type="qcurve" smooth="yes"/>
      <point x="140" y="184"/>
      <point x="176" y="96"/>
      <point x="246" y="53"/>
      <point x="296" y="53" type="qcurve" smooth="yes"/>
      <point x="346" y="53"/>
      <point x="416" y="96"/>
      <point x="452" y="184"/>
      <point x="452" y="250" type="qcurve" smooth="yes"/>
      <point x="452" y="317"/>
      <point x="416" y="404"/>
      <point x="346" y="447"/>
      <point x="296" y="447" type="qcurve" smooth="yes"/>
      <point x="246" y="447"/>
      <point x="176" y="404"/>
      <point x="140" y="317"/>
    </contour>
  </outline>
</glyph>
<glyph name="thorn" format="2">
  <advance width="628"/>
  <unicode hex="00FE"/>
  <outline>
    <contour>
      <point x="80" y="-200" type="line"/>
      <point x="80" y="722" type="line"/>
      <point x="170" y="722" type="line"/>
      <point x="170" y="-200" type="line"/>
    </contour>
    <contour>
      <point x="151" y="111" type="qcurve"/>
      <point x="151" y="407" type="line"/>
      <point x="167" y="442"/>
      <point x="221" y="489"/>
      <point x="292" y="513"/>
      <point x="334" y="513" type="qcurve" smooth="yes"/>
      <point x="402" y="513"/>
      <point x="507" y="454"/>
      <point x="568" y="345"/>
      <point x="568" y="271" type="qcurve" smooth="yes"/>
      <point x="568" y="181"/>
      <point x="509" y="54"/>
      <point x="403" y="-13"/>
      <point x="333" y="-13" type="qcurve" smooth="yes"/>
      <point x="274" y="-13"/>
      <point x="183" y="49"/>
    </contour>
    <contour>
      <point x="170" y="262" type="qcurve" smooth="yes"/>
      <point x="170" y="203"/>
      <point x="209" y="109"/>
      <point x="276" y="54"/>
      <point x="318" y="54" type="qcurve" smooth="yes"/>
      <point x="366" y="54"/>
      <point x="435" y="101"/>
      <point x="472" y="194"/>
      <point x="472" y="265" type="qcurve" smooth="yes"/>
      <point x="472" y="324"/>
      <point x="432" y="409"/>
      <point x="364" y="455"/>
      <point x="321" y="455" type="qcurve" smooth="yes"/>
      <point x="288" y="455"/>
      <point x="232" y="427"/>
      <point x="192" y="376"/>
      <point x="170" y="305"/>
    </contour>
  </outline>
</glyph>
<glyph name="dcroat" format="2">
  <advance width="561"/>
  <unicode hex="0111"/>
  <outline>
    <contour>
      <point x="298" y="642" type="line"/>
      <point x="560" y="642" type="line"/>
      <point x="560" y="573" type="line"/>
      <point x="298" y="573" type="line"/>
    </contour>
    <contour>
      <point x="401" y="0" type="line"/>
      <point x="401" y="722" type="line"/>
      <point x="491" y="722" type="line"/>
      <point x="491" y="0" type="line"/>
    </contour>
    <contour>
      <point x="20" y="253" type="qcurve" smooth="yes"/>
      <point x="20" y="337"/>
      <point x="83" y="453"/>
      <point x="186" y="513"/>
      <point x="247" y="513" type="qcurve" smooth="yes"/>
      <point x="290" y="513"/>
      <point x="350" y="486"/>
      <point x="393" y="441"/>
      <point x="410" y="415" type="qcurve"/>
      <point x="410" y="70" type="line"/>
      <point x="403" y="56"/>
      <point x="354" y="17"/>
      <point x="286" y="-13"/>
      <point x="251" y="-13" type="qcurve" smooth="yes"/>
      <point x="177" y="-13"/>
      <point x="74" y="58"/>
      <point x="20" y="178"/>
    </contour>
    <contour>
      <point x="110" y="248" type="qcurve" smooth="yes"/>
      <point x="110" y="200"/>
      <point x="145" y="111"/>
      <point x="213" y="55"/>
      <point x="264" y="55" type="qcurve" smooth="yes"/>
      <point x="309" y="55"/>
      <point x="370" y="102"/>
      <point x="401" y="187"/>
      <point x="401" y="244" type="qcurve" smooth="yes"/>
      <point x="401" y="282"/>
      <point x="386" y="354"/>
      <point x="352" y="414"/>
      <point x="296" y="449"/>
      <point x="254" y="449" type="qcurve" smooth="yes"/>
      <point x="213" y="449"/>
      <point x="158" y="414"/>
      <point x="125" y="356"/>
      <point x="110" y="285"/>
    </contour>
  </outline>
</glyph>
<glyph name="Hbar" format="2">
  <advance width="669"/>
  <unicode hex="0126"/>
  <outline>
    <contour>
      <point x="15" y="516" type="line"/>
      <point x="15" y="581" type="line"/>
      <point x="654" y="581" type="line"/>
      <point x="654" y="516" type="line"/>
    </contour>
    <contour>
      <point x="140" y="414" type="line"/>
      <point x="529" y="414" type="line"/>
      <point x="529" y="326" type="line"/>
      <point x="140" y="326" type="line"/>
    </contour>
    <contour>
      <point x="60" y="0" type="line"/>
      <point x="60" y="722" type="line"/>
      <point x="160" y="722" type="line"/>
      <point x="160" y="0" type="line"/>
    </contour>
    <contour>
      <point x="509" y="0" type="line"/>
      <point x="509" y="722" type="line"/>
      <point x="609" y="722" type="line"/>
      <point x="609" y="0" type="line"/>
    </contour>
  </outline>
</glyph>
<glyph name="dotlessi" format="2">
  <advance width="250"/>
  <unicode hex="0131"/>
  <outline>
    <contour>
      <point x="80" y="0" type="line"/>
      <point x="80" y="500" type="line"/>
      <point x="170" y="500" type="line"/>
      <point x="170" y="0" type="line"/>
    </contour>
  </outline>
</glyph>
<glyph name="kgreenlandic" format="2">
  <advance width="489"/>
  <unicode hex="0138"/>
  <outline>
    <contour>
      <point x="170" y="0" type="line"/>
      <point x="80" y="0" type="line"/>
      <point x="80" y="470" type="line"/>
      <point x="170" y="500" type="line"/>
    </contour>
    <contour>
      <point x="469" y="0" type="line"/>
      <point x="350" y="0" type="line"/>
      <point x="140" y="281" type="line"/>
      <point x="340" y="500" type="line"/>
      <point x="453" y="500" type="line"/>
      <point x="245" y="273" type="line"/>
      <point x="246" y="292" type="line"/>
    </contour>
  </outline>
</glyph>
<glyph name="Lslash" format="2">
  <advance width="606"/>
  <unicode hex="0141"/>
  <outline>
    <contour>
      <point x="286" y="338" type="line"/>
      <point x="286" y="419" type="line"/>
      <point x="392" y="522" type="line"/>
      <point x="392" y="440" type="line"/>
    </contour>
    <contour>
      <point x="186" y="320" type="line"/>
      <point x="186" y="240" type="line"/>
      <point x="80" y="136" type="line"/>
      <point x="80" y="215" type="line"/>
    </contour>
    <contour>
      <point x="246" y="87" type="line"/>
      <point x="603" y="87" type="line"/>
      <point x="603" y="0" type="line"/>
      <point x="246" y="0" type="line"/>
    </contour>
    <contour>
      <point x="186" y="0" type="line"/>
      <point x="186" y="722" type="line"/>
      <point x="286" y="722" type="line"/>
      <point x="286" y="0" type="line"/>
    </contour>
  </outline>
</glyph>
<glyph name="lslash" format="2">
  <advance width="434"/>
  <unicode hex="0142"/>
  <outline>
    <contour>
      <point x="80" y="294" type="line"/>
      <point x="354" y="565" type="line"/>
      <point x="354" y="483" type="line"/>
      <point x="80" y="215" type="line"/>
    </contour>
    <contour>
      <point x="175" y="0" type="line"/>
      <point x="175" y="722" type="line"/>
      <point x="275" y="722" type="line"/>
      <point x="275" y="0" type="line"/>
    </contour>
  </outline>
</glyph>
<glyph name="Eng" format="2">
  <advance width="683"/>
  <unicode hex="014A"/>
  <outline>
    <contour>
      <point x="623" y="20" type="line"/>
      <point x="623" y="-62" type="line" smooth="yes"/>
      <point x="623" y="-104"/>
      <point x="586" y="-166"/>
      <point x="519" y="-200"/>
      <point x="474" y="-200" type="qcurve" smooth="yes"/>
      <point x="434" y="-200"/>
      <point x="366" y="-171"/>
      <point x="340" y="-143" type="qcurve"/>
      <point x="397" y="-86" type="line"/>
      <point x="413" y="-108"/>
      <point x="450" y="-130"/>
      <point x="471" y="-130" type="qcurve" smooth="yes"/>
      <point x="499" y="-130"/>
      <point x="533" y="-91"/>
      <point x="533" y="-62" type="qcurve" smooth="yes"/>
      <point x="533" y="20" type="line"/>
    </contour>
    <contour>
      <point x="90" y="722" type="line"/>
      <point x="202" y="722" type="line"/>
      <point x="593" y="0" type="line"/>
      <point x="480" y="0" type="line"/>
    </contour>
    <contour>
      <point x="160" y="722" type="line"/>
      <point x="160" y="0" type="line"/>
      <point x="60" y="0" type="line"/>
      <point x="60" y="722" type="line"/>
    </contour>
    <contour>
      <point x="523" y="0" type="line"/>
      <point x="523" y="722" type="line"/>
      <point x="623" y="722" type="line"/>
      <point x="623" y="0" type="line"/>
    </contour>
  </outline>
</glyph>
<glyph name="eng" format="2">
  <advance width="595"/>
  <unicode hex="014B"/>
  <outline>
    <contour>
      <point x="232" y="-143" type="qcurve"/>
      <point x="289" y="-86" type="line"/>
      <point x="304" y="-108"/>
      <point x="342" y="-130"/>
      <point x="363" y="-130" type="qcurve" smooth="yes"/>
      <point x="391" y="-130"/>
      <point x="425" y="-91"/>
      <point x="425" y="-62" type="qcurve" smooth="yes"/>
      <point x="425" y="50" type="line"/>
      <point x="515" y="50" type="line"/>
      <point x="515" y="-62" type="line" smooth="yes"/>
      <point x="515" y="-104"/>
      <point x="478" y="-166"/>
      <point x="412" y="-200"/>
      <point x="369" y="-200" type="qcurve" smooth="yes"/>
      <point x="341" y="-200"/>
      <point x="291" y="-187"/>
      <point x="249" y="-162"/>
    </contour>
    <contour>
      <point x="150" y="323" type="line"/>
      <point x="150" y="436" type="line"/>
      <point x="172" y="436" type="line"/>
      <point x="198" y="471"/>
      <point x="279" y="513"/>
      <point x="327" y="513" type="qcurve" smooth="yes"/>
      <point x="389" y="513"/>
      <point x="473" y="473"/>
      <point x="515" y="393"/>
      <point x="515" y="332" type="qcurve" smooth="yes"/>
      <point x="515" y="0" type="line"/>
      <point x="425" y="0" type="line"/>
      <point x="425" y="312" type="line" smooth="yes"/>
      <point x="425" y="361"/>
      <point x="399" y="423"/>
      <point x="345" y="453"/>
      <point x="302" y="453" type="qcurve" smooth="yes"/>
      <point x="265" y="453"/>
      <point x="205" y="418"/>
      <point x="170" y="360"/>
      <point x="170" y="323" type="qcurve"/>
    </contour>
    <contour>
      <point x="80" y="0" type="line"/>
      <point x="80" y="500" type="line"/>
      <point x="170" y="500" type="line"/>
      <point x="170" y="0" type="line"/>
    </contour>
  </outline>
</glyph>
<glyph name="OE" format="2">
  <advance width="1004"/>
  <unicode hex="0152"/>
  <outline>
    <contour>
      <point x="60" y="361" type="qcurve" smooth="yes"/>
      <point x="60" y="470"/>
      <point x="133" y="638"/>
      <point x="279" y="734"/>
      <point x="388" y="734" type="qcurve"/>
      <point x="388" y="646" type="line"/>
      <point x="308" y="646"/>
      <point x="209" y="579"/>
      <point x="163" y="451"/>
      <point x="163" y="361" type="qcurve" smooth="yes"/>
      <point x="163" y="271"/>
      <point x="209" y="144"/>
      <point x="308" y="76"/>
      <point x="388" y="76" type="qcurve"/>
      <point x="388" y="-12" type="line"/>
      <point x="279" y="-12"/>
      <point x="133" y="84"/>
      <point x="60" y="252"/>
    </contour>
    <contour>
      <point x="388" y="646" type="qcurve"/>
      <point x="388" y="734" type="line"/>
      <point x="410" y="734"/>
      <point x="469" y="731"/>
      <point x="526" y="725"/>
      <point x="545" y="720" type="qcurve"/>
      <point x="545" y="615" type="line"/>
      <point x="516" y="633"/>
      <point x="438" y="646"/>
    </contour>
    <contour>
      <point x="388" y="-12" type="qcurve"/>
      <point x="388" y="76" type="line"/>
      <point x="439" y="76"/>
      <point x="517" y="86"/>
      <point x="544" y="113" type="qcurve"/>
      <point x="544" y="3" type="line"/>
      <point x="527" y="-5"/>
      <point x="473" y="-11"/>
      <point x="413" y="-12"/>
    </contour>
    <contour>
      <point x="614" y="87" type="line"/>
      <point x="991" y="87" type="line"/>
      <point x="991" y="0" type="line"/>
      <point x="614" y="0" type="line"/>
    </contour>
    <contour>
      <point x="614" y="413" type="line"/>
      <point x="971" y="413" type="line"/>
      <point x="971" y="326" type="line"/>
      <point x="614" y="326" type="line"/>
    </contour>
    <contour>
      <point x="614" y="722" type="line"/>
      <point x="981" y="722" type="line"/>
      <point x="981" y="635" type="line"/>
      <point x="614" y="635" type="line"/>
    </contour>
    <contour>
      <point x="534" y="0" type="line"/>
      <point x="534" y="722" type="line"/>
      <point x="634" y="722" type="line"/>
      <point x="634" y="0" type="line"/>
    </contour>
  </outline>
</glyph>
<glyph name="oe" format="2">
  <advance width="982"/>
  <unicode hex="0153"/>
  <outline>
    <contour>
      <point x="60" y="250" type="qcurve" smooth="yes"/>
      <point x="60" y="331"/>
      <point x="121" y="448"/>
      <point x="234" y="512"/>
      <point x="311" y="512" type="qcurve" smooth="yes"/>
      <point x="388" y="512"/>
      <point x="500" y="448"/>
      <point x="560" y="331"/>
      <point x="560" y="250" type="qcurve" smooth="yes"/>
      <point x="560" y="170"/>
      <point x="500" y="52"/>
      <point x="388" y="-12"/>
      <point x="311" y="-12" type="qcurve" smooth="yes"/>
      <point x="234" y="-12"/>
      <point x="121" y="52"/>
      <point x="60" y="170"/>
    </contour>
    <contour>
      <point x="154" y="250" type="qcurve" smooth="yes"/>
      <point x="154" y="184"/>
      <point x="190" y="96"/>
      <point x="260" y="53"/>
      <point x="310" y="53" type="qcurve" smooth="yes"/>
      <point x="360" y="53"/>
      <point x="430" y="96"/>
      <point x="466" y="184"/>
      <point x="466" y="250" type="qcurve" smooth="yes"/>
      <point x="466" y="317"/>
      <point x="430" y="404"/>
      <point x="360" y="447"/>
      <point x="310" y="447" type="qcurve" smooth="yes"/>
      <point x="260" y="447"/>
      <point x="190" y="404"/>
      <point x="154" y="317"/>
    </contour>
    <contour>
      <point x="466" y="250" type="qcurve" smooth="yes"/>
      <point x="466" y="328"/>
      <point x="517" y="446"/>
      <point x="620" y="512"/>
      <point x="698" y="512" type="qcurve" smooth="yes"/>
      <point x="770" y="512"/>
      <point x="869" y="456"/>
      <point x="921" y="353"/>
      <point x="921" y="282" type="qcurve" smooth="yes"/>
      <point x="921" y="236" type="line"/>
      <point x="560" y="236" type="line"/>
      <point x="560" y="185"/>
      <point x="593" y="101"/>
      <point x="659" y="51"/>
      <point x="706" y="51" type="qcurve" smooth="yes"/>
      <point x="759" y="51"/>
      <point x="822" y="114"/>
      <point x="826" y="160" type="qcurve"/>
      <point x="922" y="160" type="line"/>
      <point x="907" y="81"/>
      <point x="793" y="-14"/>
      <point x="698" y="-14" type="qcurve" smooth="yes"/>
      <point x="617" y="-14"/>
      <point x="514" y="56"/>
      <point x="466" y="176"/>
    </contour>
    <contour>
      <point x="560" y="301" type="qcurve"/>
      <point x="827" y="301" type="line"/>
      <point x="827" y="331"/>
      <point x="806" y="399"/>
      <point x="750" y="447"/>
      <point x="698" y="447" type="qcurve" smooth="yes"/>
      <point x="640" y="447"/>
      <point x="560" y="375"/>
    </contour>
  </outline>
</glyph>
<glyph name="Tbar" format="2">
  <advance width="622"/>
  <unicode hex="0166"/>
  <outline>
    <contour>
      <point x="158" y="298" type="line"/>
      <point x="158" y="363" type="line"/>
      <point x="458" y="363" type="line"/>
      <point x="458" y="298" type="line"/>
    </contour>
    <contour>
      <point x="592" y="635" type="line"/>
      <point x="356" y="635" type="line"/>
      <point x="356" y="0" type="line"/>
      <point x="256" y="0" type="line"/>
      <point x="256" y="635" type="line"/>
      <point x="20" y="635" type="line"/>
      <point x="20" y="722" type="line"/>
      <point x="592" y="722" type="line"/>
    </contour>
  </outline>
</glyph>
<glyph name="longs" format="2">
  <advance width="345"/>
  <unicode hex="017F"/>
  <outline>
    <contour>
      <point x="124" y="0" type="line"/>
      <point x="124" y="575" type="line" smooth="yes"/>
      <point x="124" y="660"/>
      <point x="193" y="732"/>
      <point x="271" y="732" type="qcurve" smooth="yes"/>
      <point x="291" y="732"/>
      <point x="330" y="727"/>
      <point x="345" y="722" type="qcurve"/>
      <point x="345" y="648" type="line"/>
      <point x="333" y="655"/>
      <point x="304" y="660"/>
      <point x="291" y="660" type="qcurve" smooth="yes"/>
      <point x="247" y="660"/>
      <point x="214" y="617"/>
      <point x="214" y="573" type="qcurve" smooth="yes"/>
      <point x="214" y="0" type="line"/>
    </contour>
    <contour>
      <point x="24" y="435" type="line"/>
      <point x="24" y="500" type="line"/>
      <point x="139" y="500" type="line"/>
      <point x="139" y="435" type="line"/>
    </contour>
  </outline>
</glyph>
<glyph name="florin" format="2">
  <advance width="503"/>
  <unicode hex="0192"/>
  <outline>
    <contour>
      <point x="109" y="-3" type="qcurve" smooth="yes"/>
      <point x="258" y="549" type="line" smooth="yes"/>
      <point x="272" y="604"/>
      <point x="297" y="675"/>
      <point x="335" y="715"/>
      <point x="400" y="732"/>
      <point x="454" y="732" type="qcurve" smooth="yes"/>
      <point x="472" y="732"/>
      <point x="506" y="728"/>
      <point x="523" y="722" type="qcurve"/>
      <point x="501" y="646" type="line"/>
      <point x="491" y="652"/>
      <point x="464" y="658"/>
      <point x="447" y="658" type="qcurve" smooth="yes"/>
      <point x="424" y="658"/>
      <point x="394" y="651"/>
      <point x="372" y="625"/>
      <point x="351" y="565"/>
      <point x="337" y="512" type="qcurve" smooth="yes"/>
      <point x="198" y="-4" type="line" smooth="yes"/>
      <point x="182" y="-64"/>
      <point x="144" y="-144"/>
      <point x="94" y="-191"/>
      <point x="26" y="-212"/>
      <point x="-20" y="-212" type="qcurve" smooth="yes"/>
      <point x="-34" y="-212"/>
      <point x="-61" y="-206"/>
      <point x="-73" y="-199" type="qcurve"/>
      <point x="-53" y="-124" type="line"/>
      <point x="-46" y="-131"/>
      <point x="-25" y="-138"/>
      <point x="-8" y="-138" type="qcurve" smooth="yes"/>
      <point x="22" y="-138"/>
      <point x="64" y="-112"/>
      <point x="96" y="-53"/>
    </contour>
    <contour>
      <point x="144" y="500" type="line"/>
      <point x="453" y="500" type="line"/>
      <point x="436" y="435" type="line"/>
      <point x="127" y="435" type="line"/>
    </contour>
  </outline>
</glyph>
<glyph name="uni01C1" format="2">
  <advance width="688"/>
  <unicode hex="01C1"/>
  <outline>
    <contour>
      <point x="223" y="-258" type="line"/>
      <point x="123" y="-258" type="line"/>
      <point x="123" y="796" type="line"/>
      <point x="223" y="796" type="line"/>
    </contour>
    <contour>
      <point x="567" y="-258" type="line"/>
      <point x="467" y="-258" type="line"/>
      <point x="467" y="796" type="line"/>
      <point x="567" y="796" type="line"/>
    </contour>
  </outline>
</glyph>
<glyph name="uni01C2" format="2">
  <advance width="405"/>
  <unicode hex="01C2"/>
  <outline>
    <contour>
      <point x="153" y="0" type="line"/>
      <point x="153" y="736" type="line"/>
      <point x="253" y="736" type="line"/>
      <point x="253" y="0" type="line"/>
    </contour>
    <contour>
      <point x="19" y="513" type="line"/>
      <point x="385" y="513" type="line"/>
      <point x="385" y="413" type="line"/>
      <point x="19" y="413" type="line"/>
    </contour>
    <contour>
      <point x="19" y="323" type="line"/>
      <point x="385" y="323" type="line"/>
      <point x="385" y="223" type="line"/>
      <point x="19" y="223" type="line"/>
    </contour>
  </outline>
</glyph>
<glyph name="uni01DD" format="2">
  <advance width="576"/>
  <unicode hex="01DD"/>
  <outline>
    <contour>
      <point x="516" y="248" type="qcurve" smooth="yes"/>
      <point x="516" y="171"/>
      <point x="465" y="52"/>
      <point x="363" y="-14"/>
      <point x="284" y="-14" type="qcurve" smooth="yes"/>
      <point x="213" y="-14"/>
      <point x="113" y="42"/>
      <point x="61" y="146"/>
      <point x="61" y="216" type="qcurve" smooth="yes"/>
      <point x="61" y="262" type="line"/>
      <point x="422" y="262" type="line"/>
      <point x="422" y="313"/>
      <point x="389" y="397"/>
      <point x="324" y="447"/>
      <point x="276" y="447" type="qcurve" smooth="yes"/>
      <point x="223" y="447"/>
      <point x="161" y="385"/>
      <point x="156" y="338" type="qcurve"/>
      <point x="60" y="338" type="line"/>
      <point x="75" y="417"/>
      <point x="189" y="512"/>
      <point x="284" y="512" type="qcurve" smooth="yes"/>
      <point x="366" y="512"/>
      <point x="468" y="442"/>
      <point x="516" y="322"/>
    </contour>
    <contour>
      <point x="422" y="197" type="qcurve"/>
      <point x="155" y="197" type="line"/>
      <point x="155" y="167"/>
      <point x="176" y="99"/>
      <point x="232" y="51"/>
      <point x="284" y="51" type="qcurve" smooth="yes"/>
      <point x="343" y="51"/>
      <point x="422" y="124"/>
    </contour>
  </outline>
</glyph>
<glyph name="dotlessj" format="2">
  <advance width="266"/>
  <unicode hex="0237"/>
  <outline>
    <contour>
      <point x="40" y="-200" type="line"/>
      <point x="40" y="-134" type="line"/>
      <point x="65" y="-134" type="line" smooth="yes"/>
      <point x="88" y="-134"/>
      <point x="96" y="-79"/>
      <point x="96" y="-44" type="qcurve" smooth="yes"/>
      <point x="96" y="500" type="line"/>
      <point x="186" y="500" type="line"/>
      <point x="186" y="-74" type="line" smooth="yes"/>
      <point x="186" y="-139"/>
      <point x="118" y="-200"/>
      <point x="65" y="-200" type="qcurve" smooth="yes"/>
    </contour>
  </outline>
</glyph>
<glyph name="uni0251" format="2">
  <advance width="606"/>
  <unicode hex="0251"/>
  <outline>
    <contour>
      <point x="297" y="52" type="qcurve" smooth="yes"/>
      <point x="255" y="52"/>
      <point x="190" y="109"/>
      <point x="154" y="203"/>
      <point x="154" y="259" type="qcurve" smooth="yes"/>
      <point x="154" y="311"/>
      <point x="185" y="397"/>
      <point x="243" y="448"/>
      <point x="282" y="448" type="qcurve" smooth="yes"/>
      <point x="321" y="448"/>
      <point x="388" y="393"/>
      <point x="429" y="300"/>
      <point x="429" y="241" type="qcurve" smooth="yes"/>
      <point x="429" y="190"/>
      <point x="397" y="104"/>
      <point x="338" y="52"/>
    </contour>
    <contour>
      <point x="526" y="0" type="line"/>
      <point x="526" y="500" type="line"/>
      <point x="436" y="500" type="line"/>
      <point x="436" y="429" type="line"/>
      <point x="417" y="456"/>
      <point x="377" y="493"/>
      <point x="324" y="512"/>
      <point x="285" y="512" type="qcurve" smooth="yes"/>
      <point x="214" y="512"/>
      <point x="113" y="446"/>
      <point x="60" y="327"/>
      <point x="60" y="248" type="qcurve" smooth="yes"/>
      <point x="60" y="199"/>
      <point x="94" y="106"/>
      <point x="152" y="32"/>
      <point x="229" y="-12"/>
      <point x="273" y="-12" type="qcurve" smooth="yes"/>
      <point x="314" y="-12"/>
      <point x="403" y="32"/>
      <point x="436" y="75" type="qcurve"/>
      <point x="436" y="0" type="line"/>
    </contour>
  </outline>
</glyph>
<glyph name="uni0253" format="2">
  <advance width="606"/>
  <unicode hex="0253"/>
  <outline>
    <contour>
      <point x="80" y="380" type="line"/>
      <point x="80" y="545" type="line" smooth="yes"/>
      <point x="80" y="599"/>
      <point x="130" y="684"/>
      <point x="218" y="732"/>
      <point x="275" y="732" type="qcurve" smooth="yes"/>
      <point x="311" y="732"/>
      <point x="370" y="721"/>
      <point x="415" y="700"/>
      <point x="431" y="683" type="qcurve"/>
      <point x="377" y="631" type="line"/>
      <point x="340" y="662"/>
      <point x="278" y="662" type="qcurve" smooth="yes"/>
      <point x="234" y="662"/>
      <point x="187" y="619"/>
      <point x="170" y="548"/>
      <point x="170" y="506" type="qcurve" smooth="yes"/>
      <point x="170" y="380" type="line"/>
    </contour>
    <contour>
      <point x="309" y="52" type="qcurve" smooth="yes"/>
      <point x="268" y="52"/>
      <point x="209" y="104"/>
      <point x="177" y="190"/>
      <point x="177" y="241" type="qcurve" smooth="yes"/>
      <point x="177" y="300"/>
      <point x="218" y="393"/>
      <point x="285" y="448"/>
      <point x="324" y="448" type="qcurve" smooth="yes"/>
      <point x="363" y="448"/>
      <point x="421" y="397"/>
      <point x="452" y="311"/>
      <point x="452" y="259" type="qcurve" smooth="yes"/>
      <point x="452" y="203"/>
      <point x="416" y="109"/>
      <point x="351" y="52"/>
    </contour>
    <contour>
      <point x="80" y="0" type="line"/>
      <point x="170" y="0" type="line"/>
      <point x="170" y="75" type="line"/>
      <point x="203" y="32"/>
      <point x="292" y="-12"/>
      <point x="333" y="-12" type="qcurve" smooth="yes"/>
      <point x="377" y="-12"/>
      <point x="454" y="32"/>
      <point x="512" y="106"/>
      <point x="546" y="199"/>
      <point x="546" y="248" type="qcurve" smooth="yes"/>
      <point x="546" y="327"/>
      <point x="493" y="446"/>
      <point x="392" y="512"/>
      <point x="321" y="512" type="qcurve" smooth="yes"/>
      <point x="282" y="512"/>
      <point x="229" y="493"/>
      <point x="189" y="456"/>
      <point x="170" y="429" type="qcurve"/>
      <point x="170" y="500" type="line"/>
      <point x="80" y="500" type="line"/>
    </contour>
  </outline>
</glyph>
<glyph name="uni0255" format="2">
  <advance width="555"/>
  <unicode hex="0255"/>
  <outline>
    <contour>
      <point x="287" y="-12" type="qcurve" smooth="yes"/>
      <point x="207" y="-12"/>
      <point x="107" y="51"/>
      <point x="60" y="164"/>
      <point x="60" y="239" type="qcurve" smooth="yes"/>
      <point x="60" y="319"/>
      <point x="112" y="442"/>
      <point x="214" y="512"/>
      <point x="290" y="512" type="qcurve" smooth="yes"/>
      <point x="372" y="512"/>
      <point x="478" y="425"/>
      <point x="484" y="341" type="qcurve"/>
      <point x="389" y="341" type="line"/>
      <point x="386" y="372"/>
      <point x="361" y="419"/>
      <point x="315" y="447"/>
      <point x="281" y="447" type="qcurve" smooth="yes"/>
      <point x="243" y="447"/>
      <point x="193" y="412"/>
      <point x="165" y="352"/>
      <point x="154" y="279"/>
      <point x="154" y="241" type="qcurve" smooth="yes"/>
      <point x="154" y="188"/>
      <point x="178" y="102"/>
      <point x="246" y="52"/>
      <point x="312" y="52" type="qcurve" smooth="yes"/>
      <point x="333" y="52"/>
      <point x="382" y="69"/>
      <point x="417" y="101"/>
      <point x="417" y="125" type="qcurve" smooth="yes"/>
      <point x="417" y="146"/>
      <point x="388" y="175"/>
      <point x="364" y="175" type="qcurve" smooth="yes"/>
      <point x="333" y="175"/>
      <point x="262" y="124"/>
      <point x="192" y="35"/>
      <point x="132" y="-83"/>
      <point x="111" y="-150" type="qcurve"/>
      <point x="61" y="-133" type="line"/>
      <point x="88" y="-27"/>
      <point x="189" y="139"/>
      <point x="315" y="234"/>
      <point x="382" y="234" type="qcurve" smooth="yes"/>
      <point x="434" y="234"/>
      <point x="505" y="176"/>
      <point x="505" y="131" type="qcurve" smooth="yes"/>
      <point x="505" y="91"/>
      <point x="448" y="26"/>
      <point x="350" y="-12"/>
    </contour>
  </outline>
</glyph>
<glyph name="uni0256" format="2">
  <advance width="611"/>
  <unicode hex="0256"/>
  <outline>
    <contour>
      <point x="441" y="134" type="line"/>
      <point x="531" y="134" type="line"/>
      <point x="531" y="-61" type="line" smooth="yes"/>
      <point x="531" y="-92"/>
      <point x="568" y="-129"/>
      <point x="593" y="-129" type="qcurve" smooth="yes"/>
      <point x="615" y="-129"/>
      <point x="652" y="-107"/>
      <point x="668" y="-85" type="qcurve"/>
      <point x="725" y="-142" type="line"/>
      <point x="673" y="-199"/>
      <point x="587" y="-199" type="qcurve" smooth="yes"/>
      <point x="544" y="-199"/>
      <point x="478" y="-164"/>
      <point x="441" y="-102"/>
      <point x="441" y="-60" type="qcurve" smooth="yes"/>
    </contour>
    <contour>
      <point x="441" y="0" type="line"/>
      <point x="441" y="722" type="line"/>
      <point x="531" y="722" type="line"/>
      <point x="531" y="0" type="line"/>
    </contour>
    <contour>
      <point x="60" y="253" type="qcurve" smooth="yes"/>
      <point x="60" y="337"/>
      <point x="123" y="453"/>
      <point x="226" y="513"/>
      <point x="287" y="513" type="qcurve" smooth="yes"/>
      <point x="330" y="513"/>
      <point x="390" y="486"/>
      <point x="433" y="441"/>
      <point x="450" y="415" type="qcurve"/>
      <point x="450" y="70" type="line"/>
      <point x="443" y="56"/>
      <point x="394" y="17"/>
      <point x="326" y="-13"/>
      <point x="291" y="-13" type="qcurve" smooth="yes"/>
      <point x="217" y="-13"/>
      <point x="114" y="58"/>
      <point x="60" y="178"/>
    </contour>
    <contour>
      <point x="150" y="248" type="qcurve" smooth="yes"/>
      <point x="150" y="200"/>
      <point x="185" y="111"/>
      <point x="253" y="55"/>
      <point x="304" y="55" type="qcurve" smooth="yes"/>
      <point x="349" y="55"/>
      <point x="410" y="102"/>
      <point x="441" y="187"/>
      <point x="441" y="244" type="qcurve" smooth="yes"/>
      <point x="441" y="282"/>
      <point x="426" y="354"/>
      <point x="392" y="414"/>
      <point x="336" y="449"/>
      <point x="294" y="449" type="qcurve" smooth="yes"/>
      <point x="253" y="449"/>
      <point x="198" y="414"/>
      <point x="165" y="356"/>
      <point x="150" y="285"/>
    </contour>
  </outline>
</glyph>
<glyph name="uni0257" format="2">
  <advance width="591"/>
  <unicode hex="0257"/>
  <outline>
    <contour>
      <point x="297" y="52" type="qcurve" smooth="yes"/>
      <point x="338" y="52"/>
      <point x="397" y="104"/>
      <point x="429" y="190"/>
      <point x="429" y="241" type="qcurve" smooth="yes"/>
      <point x="429" y="300"/>
      <point x="388" y="393"/>
      <point x="321" y="448"/>
      <point x="282" y="448" type="qcurve" smooth="yes"/>
      <point x="243" y="448"/>
      <point x="185" y="397"/>
      <point x="154" y="311"/>
      <point x="154" y="259" type="qcurve" smooth="yes"/>
      <point x="154" y="203"/>
      <point x="190" y="109"/>
      <point x="255" y="52"/>
    </contour>
    <contour>
      <point x="526" y="0" type="line"/>
      <point x="436" y="0" type="line"/>
      <point x="436" y="75" type="line"/>
      <point x="403" y="32"/>
      <point x="314" y="-12"/>
      <point x="273" y="-12" type="qcurve" smooth="yes"/>
      <point x="229" y="-12"/>
      <point x="152" y="32"/>
      <point x="94" y="106"/>
      <point x="60" y="199"/>
      <point x="60" y="248" type="qcurve" smooth="yes"/>
      <point x="60" y="327"/>
      <point x="113" y="446"/>
      <point x="214" y="512"/>
      <point x="285" y="512" type="qcurve" smooth="yes"/>
      <point x="324" y="512"/>
      <point x="377" y="493"/>
      <point x="417" y="456"/>
      <point x="436" y="429" type="qcurve"/>
      <point x="436" y="500" type="line"/>
      <point x="526" y="500" type="line"/>
    </contour>
    <contour>
      <point x="436" y="380" type="line"/>
      <point x="436" y="545" type="line" smooth="yes"/>
      <point x="436" y="599"/>
      <point x="486" y="684"/>
      <point x="574" y="732"/>
      <point x="631" y="732" type="qcurve" smooth="yes"/>
      <point x="667" y="732"/>
      <point x="726" y="721"/>
      <point x="771" y="700"/>
      <point x="787" y="683" type="qcurve"/>
      <point x="733" y="631" type="line"/>
      <point x="696" y="662"/>
      <point x="634" y="662" type="qcurve" smooth="yes"/>
      <point x="590" y="662"/>
      <point x="543" y="619"/>
      <point x="526" y="548"/>
      <point x="526" y="506" type="qcurve" smooth="yes"/>
      <point x="526" y="380" type="line"/>
    </contour>
  </outline>
</glyph>
<glyph name="uni025A" format="2">
  <advance width="766"/>
  <unicode hex="025A"/>
  <outline>
    <contour>
      <point x="516" y="248" type="qcurve" smooth="yes"/>
      <point x="516" y="171"/>
      <point x="465" y="52"/>
      <point x="363" y="-14"/>
      <point x="284" y="-14" type="qcurve" smooth="yes"/>
      <point x="213" y="-14"/>
      <point x="114" y="32"/>
      <point x="63" y="117"/>
      <point x="63" y="177" type="qcurve"/>
      <point x="155" y="221" type="line"/>
      <point x="155" y="178"/>
      <point x="175" y="100"/>
      <point x="230" y="51"/>
      <point x="284" y="51" type="qcurve" smooth="yes"/>
      <point x="341" y="51"/>
      <point x="401" y="101"/>
      <point x="424" y="182"/>
      <point x="424" y="228" type="qcurve" smooth="yes"/>
      <point x="424" y="265"/>
      <point x="412" y="341"/>
      <point x="380" y="407"/>
      <point x="322" y="447"/>
      <point x="276" y="447" type="qcurve" smooth="yes"/>
      <point x="223" y="447"/>
      <point x="161" y="385"/>
      <point x="156" y="338" type="qcurve"/>
      <point x="60" y="338" type="line"/>
      <point x="75" y="417"/>
      <point x="189" y="512"/>
      <point x="284" y="512" type="qcurve" smooth="yes"/>
      <point x="366" y="512"/>
      <point x="468" y="442"/>
      <point x="516" y="322"/>
    </contour>
    <contour>
      <point x="90" y="121" type="line"/>
      <point x="77" y="183" type="line"/>
      <point x="630" y="452" type="line"/>
      <point x="630" y="303" type="line" smooth="yes"/>
      <point x="630" y="277"/>
      <point x="652" y="253"/>
      <point x="678" y="253" type="qcurve" smooth="yes"/>
      <point x="699" y="253"/>
      <point x="720" y="288"/>
      <point x="720" y="319" type="qcurve"/>
      <point x="765" y="319" type="line"/>
      <point x="765" y="288"/>
      <point x="742" y="240"/>
      <point x="703" y="213"/>
      <point x="678" y="213" type="qcurve" smooth="yes"/>
      <point x="644" y="213"/>
      <point x="599" y="234"/>
      <point x="576" y="274"/>
      <point x="576" y="301" type="qcurve" smooth="yes"/>
      <point x="576" y="370" type="line"/>
      <point x="587" y="363" type="line"/>
    </contour>
  </outline>
</glyph>
<glyph name="uni025F" format="2">
  <advance width="317"/>
  <unicode hex="025F"/>
  <outline>
    <contour>
      <point x="-28" y="-147" type="qcurve"/>
      <point x="29" y="-90" type="line"/>
      <point x="45" y="-108"/>
      <point x="67" y="-121"/>
      <point x="81" y="-121" type="qcurve" smooth="yes"/>
      <point x="106" y="-121"/>
      <point x="127" y="-92"/>
      <point x="127" y="-64" type="qcurve" smooth="yes"/>
      <point x="127" y="500" type="line"/>
      <point x="217" y="500" type="line"/>
      <point x="217" y="-74" type="line" smooth="yes"/>
      <point x="217" y="-134"/>
      <point x="151" y="-200"/>
      <point x="91" y="-200" type="qcurve" smooth="yes"/>
      <point x="57" y="-200"/>
      <point x="-1" y="-175"/>
    </contour>
    <contour>
      <point x="37" y="222" type="line"/>
      <point x="37" y="278" type="line"/>
      <point x="307" y="278" type="line"/>
      <point x="307" y="222" type="line"/>
    </contour>
  </outline>
</glyph>
<glyph name="uni0260" format="2">
  <advance width="621"/>
  <unicode hex="0260"/>
  <outline>
    <contour>
      <point x="443" y="400" type="line"/>
      <point x="443" y="500" type="line" smooth="yes"/>
      <point x="443" y="568"/>
      <point x="503" y="638"/>
      <point x="570" y="638" type="qcurve" smooth="yes"/>
      <point x="592" y="638"/>
      <point x="623" y="631"/>
      <point x="634" y="623" type="qcurve"/>
      <point x="634" y="562" type="line"/>
      <point x="612" y="575"/>
      <point x="580" y="575" type="qcurve" smooth="yes"/>
      <point x="556" y="575"/>
      <point x="533" y="552"/>
      <point x="533" y="508" type="qcurve" smooth="yes"/>
      <point x="533" y="400" type="line"/>
    </contour>
    <contour>
      <point x="60" y="266" type="qcurve" smooth="yes"/>
      <point x="60" y="329"/>
      <point x="110" y="442"/>
      <point x="208" y="513"/>
      <point x="280" y="513" type="qcurve" smooth="yes"/>
      <point x="333" y="513"/>
      <point x="415" y="475"/>
      <point x="443" y="444" type="qcurve"/>
      <point x="443" y="500" type="line"/>
      <point x="533" y="500" type="line"/>
      <point x="533" y="29" type="line" smooth="yes"/>
      <point x="533" y="-41"/>
      <point x="472" y="-143"/>
      <point x="361" y="-198"/>
      <point x="286" y="-198" type="qcurve" smooth="yes"/>
      <point x="249" y="-198"/>
      <point x="177" y="-177"/>
      <point x="121" y="-136"/>
      <point x="87" y="-77"/>
      <point x="87" y="-39" type="qcurve"/>
      <point x="181" y="-39" type="line"/>
      <point x="181" y="-70"/>
      <point x="215" y="-113"/>
      <point x="270" y="-134"/>
      <point x="301" y="-134" type="qcurve" smooth="yes"/>
      <point x="367" y="-134"/>
      <point x="443" y="-48"/>
      <point x="443" y="21" type="qcurve" smooth="yes"/>
      <point x="443" y="95" type="line"/>
      <point x="426" y="73"/>
      <point x="382" y="36"/>
      <point x="320" y="14"/>
      <point x="276" y="14" type="qcurve" smooth="yes"/>
      <point x="202" y="14"/>
      <point x="106" y="79"/>
      <point x="60" y="193"/>
    </contour>
    <contour>
      <point x="289" y="78" type="qcurve" smooth="yes"/>
      <point x="327" y="78"/>
      <point x="384" y="110"/>
      <point x="423" y="163"/>
      <point x="443" y="230"/>
      <point x="443" y="264" type="qcurve" smooth="yes"/>
      <point x="443" y="308"/>
      <point x="424" y="376"/>
      <point x="387" y="423"/>
      <point x="331" y="448"/>
      <point x="294" y="448" type="qcurve" smooth="yes"/>
      <point x="248" y="448"/>
      <point x="186" y="408"/>
      <point x="154" y="329"/>
      <point x="154" y="270" type="qcurve" smooth="yes"/>
      <point x="154" y="217"/>
      <point x="182" y="130"/>
      <point x="241" y="78"/>
    </contour>
  </outline>
</glyph>
<glyph name="uni0262" format="2">
  <advance width="575"/>
  <unicode hex="0262"/>
  <outline>
    <contour>
      <point x="60" y="256" type="qcurve" smooth="yes"/>
      <point x="60" y="331"/>
      <point x="123" y="447"/>
      <point x="241" y="512"/>
      <point x="323" y="512" type="qcurve" smooth="yes"/>
      <point x="377" y="512"/>
      <point x="464" y="472"/>
      <point x="515" y="405"/>
      <point x="515" y="366" type="qcurve"/>
      <point x="425" y="366" type="line"/>
      <point x="425" y="397"/>
      <point x="365" y="441"/>
      <point x="318" y="441" type="qcurve" smooth="yes"/>
      <point x="266" y="441"/>
      <point x="191" y="390"/>
      <point x="150" y="306"/>
      <point x="150" y="255" type="qcurve" smooth="yes"/>
      <point x="150" y="193"/>
      <point x="192" y="102"/>
      <point x="268" y="52"/>
      <point x="320" y="52" type="qcurve" smooth="yes"/>
      <point x="351" y="52"/>
      <point x="411" y="61"/>
      <point x="441" y="69" type="qcurve"/>
      <point x="441" y="205" type="line"/>
      <point x="327" y="205" type="line"/>
      <point x="327" y="266" type="line"/>
      <point x="512" y="266" type="line"/>
      <point x="512" y="23" type="line"/>
      <point x="470" y="5"/>
      <point x="383" y="-12"/>
      <point x="337" y="-12" type="qcurve" smooth="yes"/>
      <point x="199" y="-12"/>
      <point x="60" y="123"/>
    </contour>
  </outline>
</glyph>
<glyph name="uni0263" format="2">
  <advance width="530"/>
  <unicode hex="0263"/>
  <outline>
    <contour>
      <point x="264" y="-21" type="qcurve"/>
      <point x="256" y="-30"/>
      <point x="243" y="-50"/>
      <point x="234" y="-70"/>
      <point x="230" y="-89"/>
      <point x="230" y="-98" type="qcurve" smooth="yes"/>
      <point x="230" y="-115"/>
      <point x="247" y="-132"/>
      <point x="264" y="-132" type="qcurve" smooth="yes"/>
      <point x="281" y="-132"/>
      <point x="298" y="-114"/>
      <point x="298" y="-94" type="qcurve" smooth="yes"/>
      <point x="298" y="-85"/>
      <point x="294" y="-67"/>
      <point x="286" y="-49"/>
      <point x="273" y="-31"/>
    </contour>
    <contour>
      <point x="515" y="500" type="line"/>
      <point x="313" y="45" type="line"/>
      <point x="335" y="14"/>
      <point x="364" y="-41"/>
      <point x="379" y="-88"/>
      <point x="379" y="-105" type="qcurve" smooth="yes"/>
      <point x="379" y="-147"/>
      <point x="309" y="-197"/>
      <point x="265" y="-197" type="qcurve" smooth="yes"/>
      <point x="220" y="-197"/>
      <point x="149" y="-147"/>
      <point x="149" y="-105" type="qcurve" smooth="yes"/>
      <point x="149" y="-88"/>
      <point x="164" y="-41"/>
      <point x="194" y="14"/>
      <point x="217" y="45" type="qcurve"/>
      <point x="15" y="500" type="line"/>
      <point x="120" y="500" type="line"/>
      <point x="268" y="140" type="line"/>
      <point x="264" y="140" type="line"/>
      <point x="410" y="500" type="line"/>
    </contour>
  </outline>
</glyph>
<glyph name="uni0264" format="2">
  <advance width="579"/>
  <unicode hex="0264"/>
  <outline>
    <contour>
      <point x="176" y="90" type="qcurve" smooth="yes"/>
      <point x="176" y="112"/>
      <point x="214" y="208"/>
      <point x="248" y="262" type="qcurve" smooth="yes"/>
      <point x="284" y="322" type="line" smooth="yes"/>
      <point x="307" y="360"/>
      <point x="359" y="428"/>
      <point x="411" y="481"/>
      <point x="460" y="512"/>
      <point x="480" y="512" type="qcurve" smooth="yes"/>
      <point x="494" y="512"/>
      <point x="523" y="499"/>
      <point x="547" y="478"/>
      <point x="562" y="454"/>
      <point x="562" y="444" type="qcurve" smooth="yes"/>
      <point x="562" y="436"/>
      <point x="555" y="428"/>
      <point x="550" y="428" type="qcurve" smooth="yes"/>
      <point x="545" y="428"/>
      <point x="535" y="433"/>
      <point x="532" y="437" type="qcurve"/>
      <point x="529" y="439"/>
      <point x="520" y="444"/>
      <point x="510" y="447"/>
      <point x="505" y="447" type="qcurve" smooth="yes"/>
      <point x="492" y="447"/>
      <point x="458" y="430"/>
      <point x="421" y="393"/>
      <point x="403" y="365" type="qcurve" smooth="yes"/>
      <point x="287" y="172" type="line" smooth="yes"/>
      <point x="281" y="162"/>
      <point x="264" y="130"/>
      <point x="252" y="98"/>
      <point x="252" y="87" type="qcurve" smooth="yes"/>
      <point x="252" y="70"/>
      <point x="268" y="53"/>
      <point x="284" y="53" type="qcurve" smooth="yes"/>
      <point x="300" y="53"/>
      <point x="319" y="69"/>
      <point x="319" y="87" type="qcurve" smooth="yes"/>
      <point x="319" y="99"/>
      <point x="303" y="136"/>
      <point x="284" y="172"/>
      <point x="277" y="182" type="qcurve"/>
      <point x="321" y="261" type="line"/>
      <point x="355" y="205"/>
      <point x="398" y="106"/>
      <point x="398" y="81" type="qcurve" smooth="yes"/>
      <point x="398" y="58"/>
      <point x="368" y="15"/>
      <point x="316" y="-12"/>
      <point x="282" y="-12" type="qcurve" smooth="yes"/>
      <point x="236" y="-12"/>
      <point x="176" y="43"/>
    </contour>
    <contour>
      <point x="300" y="303" type="qcurve"/>
      <point x="251" y="237" type="line"/>
      <point x="171" y="365" type="line" smooth="yes"/>
      <point x="143" y="408"/>
      <point x="88" y="447"/>
      <point x="70" y="447" type="qcurve" smooth="yes"/>
      <point x="65" y="447"/>
      <point x="53" y="444"/>
      <point x="43" y="438"/>
      <point x="38" y="434" type="qcurve"/>
      <point x="35" y="432"/>
      <point x="27" y="428"/>
      <point x="23" y="428" type="qcurve" smooth="yes"/>
      <point x="17" y="428"/>
      <point x="12" y="435"/>
      <point x="12" y="442" type="qcurve" smooth="yes"/>
      <point x="12" y="453"/>
      <point x="25" y="477"/>
      <point x="48" y="499"/>
      <point x="76" y="512"/>
      <point x="91" y="512" type="qcurve" smooth="yes"/>
      <point x="129" y="512"/>
      <point x="234" y="407"/>
    </contour>
  </outline>
</glyph>
<glyph name="uni0266" format="2">
  <advance width="573"/>
  <unicode hex="0266"/>
  <outline>
    <contour>
      <point x="80" y="380" type="line"/>
      <point x="80" y="545" type="line" smooth="yes"/>
      <point x="80" y="599"/>
      <point x="130" y="684"/>
      <point x="218" y="732"/>
      <point x="275" y="732" type="qcurve" smooth="yes"/>
      <point x="311" y="732"/>
      <point x="370" y="721"/>
      <point x="415" y="700"/>
      <point x="431" y="683" type="qcurve"/>
      <point x="377" y="631" type="line"/>
      <point x="340" y="662"/>
      <point x="278" y="662" type="qcurve" smooth="yes"/>
      <point x="234" y="662"/>
      <point x="187" y="619"/>
      <point x="170" y="548"/>
      <point x="170" y="506" type="qcurve" smooth="yes"/>
      <point x="170" y="380" type="line"/>
    </contour>
    <contour>
      <point x="150" y="323" type="line"/>
      <point x="150" y="436" type="line"/>
      <point x="172" y="436" type="line"/>
      <point x="198" y="471"/>
      <point x="279" y="513"/>
      <point x="327" y="513" type="qcurve" smooth="yes"/>
      <point x="389" y="513"/>
      <point x="473" y="473"/>
      <point x="515" y="393"/>
      <point x="515" y="332" type="qcurve" smooth="yes"/>
      <point x="515" y="0" type="line"/>
      <point x="425" y="0" type="line"/>
      <point x="425" y="312" type="line" smooth="yes"/>
      <point x="425" y="361"/>
      <point x="399" y="423"/>
      <point x="345" y="453"/>
      <point x="302" y="453" type="qcurve" smooth="yes"/>
      <point x="265" y="453"/>
      <point x="205" y="418"/>
      <point x="170" y="360"/>
      <point x="170" y="323" type="qcurve"/>
    </contour>
    <contour>
      <point x="80" y="0" type="line"/>
      <point x="80" y="500" type="line"/>
      <point x="170" y="500" type="line"/>
      <point x="170" y="0" type="line"/>
    </contour>
  </outline>
</glyph>
<glyph name="uni0268" format="2">
  <advance width="320"/>
  <unicode hex="0268"/>
  <outline>
    <contour>
      <point x="295" y="222" type="line"/>
      <point x="25" y="222" type="line"/>
      <point x="25" y="278" type="line"/>
      <point x="295" y="278" type="line"/>
    </contour>
    <contour>
      <point x="107" y="0" type="line"/>
      <point x="107" y="500" type="line"/>
      <point x="197" y="500" type="line"/>
      <point x="197" y="0" type="line"/>
    </contour>
    <contour>
      <point x="97" y="600" type="line"/>
      <point x="97" y="710" type="line"/>
      <point x="207" y="710" type="line"/>
      <point x="207" y="600" type="line"/>
    </contour>
  </outline>
</glyph>
<glyph name="uni026B" format="2">
  <advance width="466"/>
  <unicode hex="026B"/>
  <outline>
    <contour>
      <point x="47" y="362" type="line"/>
      <point x="51" y="409"/>
      <point x="102" y="460"/>
      <point x="132" y="460" type="qcurve" smooth="yes"/>
      <point x="146" y="460"/>
      <point x="176" y="451"/>
      <point x="192" y="444" type="qcurve"/>
      <point x="200" y="440" type="line"/>
      <point x="200" y="380" type="line"/>
      <point x="191" y="386" type="line" smooth="yes"/>
      <point x="180" y="394"/>
      <point x="153" y="403"/>
      <point x="137" y="403" type="qcurve" smooth="yes"/>
      <point x="124" y="403"/>
      <point x="104" y="382"/>
      <point x="102" y="362" type="qcurve"/>
    </contour>
    <contour>
      <point x="260" y="413" type="line"/>
      <point x="274" y="407" type="line" smooth="yes"/>
      <point x="295" y="398"/>
      <point x="318" y="391"/>
      <point x="327" y="391" type="qcurve" smooth="yes"/>
      <point x="340" y="391"/>
      <point x="358" y="412"/>
      <point x="361" y="432" type="qcurve"/>
      <point x="416" y="432" type="line"/>
      <point x="412" y="391"/>
      <point x="367" y="334"/>
      <point x="333" y="334" type="qcurve" smooth="yes"/>
      <point x="318" y="334"/>
      <point x="291" y="341"/>
      <point x="270" y="351" type="qcurve" smooth="yes"/>
      <point x="260" y="356" type="line"/>
    </contour>
    <contour>
      <point x="188" y="0" type="line"/>
      <point x="188" y="722" type="line"/>
      <point x="278" y="722" type="line"/>
      <point x="278" y="0" type="line"/>
    </contour>
  </outline>
</glyph>
<glyph name="uni026C" format="2">
  <advance width="522"/>
  <unicode hex="026C"/>
  <outline>
    <contour>
      <point x="260" y="332" type="qcurve"/>
      <point x="260" y="281" type="line"/>
      <point x="200" y="285"/>
      <point x="105" y="316"/>
      <point x="49" y="373"/>
      <point x="49" y="416" type="qcurve" smooth="yes"/>
      <point x="49" y="460"/>
      <point x="111" y="517"/>
      <point x="163" y="517" type="qcurve" smooth="yes"/>
      <point x="184" y="517"/>
      <point x="222" y="508"/>
      <point x="242" y="498" type="qcurve"/>
      <point x="242" y="450" type="line"/>
      <point x="228" y="456"/>
      <point x="201" y="462"/>
      <point x="189" y="462" type="qcurve" smooth="yes"/>
      <point x="161" y="462"/>
      <point x="128" y="435"/>
      <point x="128" y="413" type="qcurve" smooth="yes"/>
      <point x="128" y="393"/>
      <point x="155" y="361"/>
      <point x="213" y="337"/>
    </contour>
    <contour>
      <point x="302" y="282" type="qcurve"/>
      <point x="302" y="333" type="line"/>
      <point x="334" y="335"/>
      <point x="403" y="363"/>
      <point x="432" y="386" type="qcurve"/>
      <point x="470" y="346" type="line"/>
      <point x="433" y="318"/>
      <point x="352" y="286"/>
    </contour>
    <contour>
      <point x="225" y="0" type="line"/>
      <point x="225" y="722" type="line"/>
      <point x="315" y="722" type="line"/>
      <point x="315" y="0" type="line"/>
    </contour>
  </outline>
</glyph>
<glyph name="uni026D" format="2">
  <advance width="270"/>
  <unicode hex="026D"/>
  <outline>
    <contour>
      <point x="285" y="-135" type="line"/>
      <point x="285" y="-200" type="line"/>
      <point x="236" y="-200" type="line" smooth="yes"/>
      <point x="151" y="-200"/>
      <point x="80" y="-137"/>
      <point x="80" y="-62" type="qcurve" smooth="yes"/>
      <point x="80" y="50" type="line"/>
      <point x="170" y="50" type="line"/>
      <point x="170" y="-62" type="line" smooth="yes"/>
      <point x="170" y="-99"/>
      <point x="202" y="-135"/>
      <point x="236" y="-135" type="qcurve" smooth="yes"/>
    </contour>
    <contour>
      <point x="80" y="0" type="line"/>
      <point x="80" y="722" type="line"/>
      <point x="170" y="722" type="line"/>
      <point x="170" y="0" type="line"/>
    </contour>
  </outline>
</glyph>
<glyph name="uni0272" format="2">
  <advance width="619"/>
  <unicode hex="0272"/>
  <outline>
    <contour>
      <point x="-35" y="-135" type="line"/>
      <point x="15" y="-135" type="line" smooth="yes"/>
      <point x="48" y="-135"/>
      <point x="80" y="-99"/>
      <point x="80" y="-62" type="qcurve" smooth="yes"/>
      <point x="80" y="50" type="line"/>
      <point x="170" y="50" type="line"/>
      <point x="170" y="-62" type="line" smooth="yes"/>
      <point x="170" y="-137"/>
      <point x="99" y="-200"/>
      <point x="14" y="-200" type="qcurve" smooth="yes"/>
      <point x="-35" y="-200" type="line"/>
    </contour>
    <contour>
      <point x="150" y="323" type="line"/>
      <point x="150" y="436" type="line"/>
      <point x="172" y="436" type="line"/>
      <point x="198" y="471"/>
      <point x="279" y="513"/>
      <point x="327" y="513" type="qcurve" smooth="yes"/>
      <point x="389" y="513"/>
      <point x="473" y="473"/>
      <point x="515" y="393"/>
      <point x="515" y="332" type="qcurve" smooth="yes"/>
      <point x="515" y="0" type="line"/>
      <point x="425" y="0" type="line"/>
      <point x="425" y="312" type="line" smooth="yes"/>
      <point x="425" y="361"/>
      <point x="399" y="423"/>
      <point x="345" y="453"/>
      <point x="302" y="453" type="qcurve" smooth="yes"/>
      <point x="265" y="453"/>
      <point x="205" y="418"/>
      <point x="170" y="360"/>
      <point x="170" y="323" type="qcurve"/>
    </contour>
    <contour>
      <point x="80" y="0" type="line"/>
      <point x="80" y="500" type="line"/>
      <point x="170" y="500" type="line"/>
      <point x="170" y="0" type="line"/>
    </contour>
  </outline>
</glyph>
<glyph name="uni0273" format="2">
  <advance width="620"/>
  <unicode hex="0273"/>
  <outline>
    <contour>
      <point x="630" y="-135" type="line"/>
      <point x="630" y="-200" type="line"/>
      <point x="581" y="-200" type="line" smooth="yes"/>
      <point x="496" y="-200"/>
      <point x="425" y="-137"/>
      <point x="425" y="-62" type="qcurve" smooth="yes"/>
      <point x="425" y="50" type="line"/>
      <point x="515" y="50" type="line"/>
      <point x="515" y="-62" type="line" smooth="yes"/>
      <point x="515" y="-99"/>
      <point x="547" y="-135"/>
      <point x="581" y="-135" type="qcurve" smooth="yes"/>
    </contour>
    <contour>
      <point x="150" y="323" type="line"/>
      <point x="150" y="436" type="line"/>
      <point x="172" y="436" type="line"/>
      <point x="198" y="471"/>
      <point x="279" y="513"/>
      <point x="327" y="513" type="qcurve" smooth="yes"/>
      <point x="389" y="513"/>
      <point x="473" y="473"/>
      <point x="515" y="393"/>
      <point x="515" y="332" type="qcurve" smooth="yes"/>
      <point x="515" y="0" type="line"/>
      <point x="425" y="0" type="line"/>
      <point x="425" y="312" type="line" smooth="yes"/>
      <point x="425" y="361"/>
      <point x="399" y="423"/>
      <point x="345" y="453"/>
      <point x="302" y="453" type="qcurve" smooth="yes"/>
      <point x="265" y="453"/>
      <point x="205" y="418"/>
      <point x="170" y="360"/>
      <point x="170" y="323" type="qcurve"/>
    </contour>
    <contour>
      <point x="80" y="0" type="line"/>
      <point x="80" y="500" type="line"/>
      <point x="170" y="500" type="line"/>
      <point x="170" y="0" type="line"/>
    </contour>
  </outline>
</glyph>
<glyph name="uni0274" format="2">
  <advance width="581"/>
  <unicode hex="0274"/>
  <outline>
    <contour>
      <point x="80" y="0" type="line"/>
      <point x="80" y="500" type="line"/>
      <point x="190" y="500" type="line"/>
      <point x="422" y="98" type="line"/>
      <point x="422" y="500" type="line"/>
      <point x="501" y="500" type="line"/>
      <point x="501" y="0" type="line"/>
      <point x="389" y="0" type="line"/>
      <point x="159" y="402" type="line"/>
      <point x="159" y="0" type="line"/>
    </contour>
  </outline>
</glyph>
<glyph name="uni0276" format="2">
  <advance width="744"/>
  <unicode hex="0276"/>
  <outline>
    <contour>
      <point x="53" y="247" type="qcurve" smooth="yes"/>
      <point x="53" y="321"/>
      <point x="110" y="440"/>
      <point x="217" y="510"/>
      <point x="291" y="510" type="qcurve" smooth="yes"/>
      <point x="312" y="510"/>
      <point x="357" y="505"/>
      <point x="376" y="500" type="qcurve"/>
      <point x="701" y="500" type="line"/>
      <point x="701" y="435" type="line"/>
      <point x="484" y="435" type="line"/>
      <point x="484" y="286" type="line"/>
      <point x="687" y="286" type="line"/>
      <point x="687" y="221" type="line"/>
      <point x="484" y="221" type="line"/>
      <point x="484" y="65" type="line"/>
      <point x="701" y="65" type="line"/>
      <point x="701" y="0" type="line"/>
      <point x="371" y="0" type="line"/>
      <point x="355" y="-6"/>
      <point x="314" y="-11"/>
      <point x="291" y="-11" type="qcurve" smooth="yes"/>
      <point x="217" y="-11"/>
      <point x="110" y="57"/>
      <point x="53" y="174"/>
    </contour>
    <contour>
      <point x="145" y="246" type="qcurve" smooth="yes"/>
      <point x="145" y="162"/>
      <point x="220" y="54"/>
      <point x="291" y="54" type="qcurve" smooth="yes"/>
      <point x="324" y="54"/>
      <point x="376" y="68"/>
      <point x="394" y="84" type="qcurve"/>
      <point x="394" y="421" type="line"/>
      <point x="375" y="432"/>
      <point x="323" y="444"/>
      <point x="291" y="444" type="qcurve" smooth="yes"/>
      <point x="238" y="444"/>
      <point x="173" y="385"/>
      <point x="145" y="294"/>
    </contour>
  </outline>
</glyph>
<glyph name="uni0278" format="2">
  <advance width="612"/>
  <unicode hex="0278"/>
  <outline>
    <contour>
      <point x="351" y="722" type="line"/>
      <point x="351" y="-200" type="line"/>
      <point x="261" y="-200" type="line"/>
      <point x="261" y="722" type="line"/>
    </contour>
    <contour>
      <point x="276" y="512" type="qcurve"/>
      <point x="273" y="439" type="line"/>
      <point x="239" y="435"/>
      <point x="185" y="380"/>
      <point x="154" y="296"/>
      <point x="154" y="247" type="qcurve" smooth="yes"/>
      <point x="154" y="198"/>
      <point x="185" y="114"/>
      <point x="239" y="59"/>
      <point x="273" y="55" type="qcurve"/>
      <point x="277" y="-11" type="line"/>
      <point x="211" y="-7"/>
      <point x="113" y="60"/>
      <point x="60" y="175"/>
      <point x="60" y="250" type="qcurve" smooth="yes"/>
      <point x="60" y="325"/>
      <point x="114" y="441"/>
      <point x="211" y="508"/>
    </contour>
    <contour>
      <point x="552" y="250" type="qcurve" smooth="yes"/>
      <point x="552" y="174"/>
      <point x="498" y="61"/>
      <point x="401" y="-5"/>
      <point x="336" y="-9" type="qcurve"/>
      <point x="339" y="56" type="line"/>
      <point x="373" y="60"/>
      <point x="427" y="115"/>
      <point x="458" y="199"/>
      <point x="458" y="248" type="qcurve" smooth="yes"/>
      <point x="458" y="297"/>
      <point x="427" y="381"/>
      <point x="373" y="435"/>
      <point x="339" y="439" type="qcurve"/>
      <point x="336" y="512" type="line"/>
      <point x="401" y="508"/>
      <point x="498" y="441"/>
      <point x="552" y="325"/>
    </contour>
  </outline>
</glyph>
<glyph name="uni0279" format="2">
  <advance width="372"/>
  <unicode hex="0279"/>
  <outline>
    <contour>
      <point x="202" y="500" type="line"/>
      <point x="292" y="500" type="line"/>
      <point x="292" y="0" type="line"/>
      <point x="202" y="0" type="line"/>
      <point x="202" y="68" type="line"/>
      <point x="188" y="44"/>
      <point x="149" y="14"/>
      <point x="80" y="0"/>
      <point x="20" y="0" type="qcurve"/>
      <point x="20" y="80" type="line"/>
      <point x="111" y="80"/>
      <point x="202" y="150"/>
      <point x="202" y="220" type="qcurve" smooth="yes"/>
    </contour>
  </outline>
</glyph>
<glyph name="uni027A" format="2">
  <advance width="372"/>
  <unicode hex="027A"/>
  <outline>
    <contour>
      <point x="202" y="722" type="line"/>
      <point x="292" y="722" type="line"/>
      <point x="292" y="400" type="line"/>
      <point x="202" y="400" type="line"/>
    </contour>
    <contour>
      <point x="202" y="500" type="line"/>
      <point x="292" y="500" type="line"/>
      <point x="292" y="0" type="line"/>
      <point x="202" y="0" type="line"/>
      <point x="202" y="68" type="line"/>
      <point x="188" y="44"/>
      <point x="149" y="14"/>
      <point x="80" y="0"/>
      <point x="20" y="0" type="qcurve"/>
      <point x="20" y="80" type="line"/>
      <point x="111" y="80"/>
      <point x="202" y="150"/>
      <point x="202" y="220" type="qcurve" smooth="yes"/>
    </contour>
  </outline>
</glyph>
<glyph name="uni027B" format="2">
  <advance width="409"/>
  <unicode hex="027B"/>
  <outline>
    <contour>
      <point x="407" y="-135" type="line"/>
      <point x="407" y="-200" type="line"/>
      <point x="358" y="-200" type="line" smooth="yes"/>
      <point x="273" y="-200"/>
      <point x="202" y="-137"/>
      <point x="202" y="-62" type="qcurve" smooth="yes"/>
      <point x="202" y="50" type="line"/>
      <point x="292" y="50" type="line"/>
      <point x="292" y="-62" type="line" smooth="yes"/>
      <point x="292" y="-99"/>
      <point x="324" y="-135"/>
      <point x="358" y="-135" type="qcurve" smooth="yes"/>
    </contour>
    <contour>
      <point x="202" y="500" type="line"/>
      <point x="292" y="500" type="line"/>
      <point x="292" y="0" type="line"/>
      <point x="202" y="0" type="line"/>
      <point x="202" y="68" type="line"/>
      <point x="188" y="44"/>
      <point x="149" y="14"/>
      <point x="80" y="0"/>
      <point x="20" y="0" type="qcurve"/>
      <point x="20" y="80" type="line"/>
      <point x="111" y="80"/>
      <point x="202" y="150"/>
      <point x="202" y="220" type="qcurve" smooth="yes"/>
    </contour>
  </outline>
</glyph>
<glyph name="uni027C" format="2">
  <advance width="363"/>
  <unicode hex="027C"/>
  <outline>
    <contour>
      <point x="170" y="-200" type="line"/>
      <point x="80" y="-200" type="line"/>
      <point x="80" y="0" type="line"/>
      <point x="170" y="0" type="line"/>
    </contour>
    <contour>
      <point x="170" y="442" type="line" smooth="yes"/>
      <point x="198" y="478"/>
      <point x="283" y="510"/>
      <point x="352" y="510" type="qcurve"/>
      <point x="352" y="430" type="line"/>
      <point x="261" y="430"/>
      <point x="170" y="360"/>
      <point x="170" y="290" type="qcurve"/>
      <point x="150" y="290" type="line"/>
      <point x="150" y="416" type="line"/>
    </contour>
    <contour>
      <point x="80" y="0" type="line"/>
      <point x="80" y="500" type="line"/>
      <point x="170" y="500" type="line"/>
      <point x="170" y="0" type="line"/>
    </contour>
  </outline>
</glyph>
